solid ascii
  facet normal 0.000000e+00 -1.224647e-15 -1.000000e+01
    outer loop
      vertex   -1.550229e+02 1.836372e+02 4.000000e+00
      vertex   -1.610229e+02 1.836372e+02 4.000000e+00
      vertex   -1.550229e+02 1.863372e+02 4.000000e+00
    endloop
  endfacet
  facet normal 0.000000e+00 -5.025552e-16 -4.103674e+00
    outer loop
      vertex   -1.550229e+02 1.863372e+02 4.000000e+00
      vertex   -1.610229e+02 1.836372e+02 4.000000e+00
      vertex   -1.610229e+02 1.863372e+02 4.000000e+00
    endloop
  endfacet
  facet normal 0.000000e+00 -1.095357e-15 -8.944272e+00
    outer loop
      vertex   -1.550229e+02 1.863372e+02 4.000000e+00
      vertex   -1.610229e+02 1.863372e+02 4.000000e+00
      vertex   -1.525229e+02 1.913372e+02 4.000000e+00
    endloop
  endfacet
  facet normal 0.000000e+00 -6.209204e-16 -5.070199e+00
    outer loop
      vertex   -1.525229e+02 1.913372e+02 4.000000e+00
      vertex   -1.610229e+02 1.863372e+02 4.000000e+00
      vertex   -1.635229e+02 1.913372e+02 4.000000e+00
    endloop
  endfacet
  facet normal 0.000000e+00 -5.476787e-16 -4.472136e+00
    outer loop
      vertex   -1.635229e+02 1.913372e+02 4.000000e+00
      vertex   -1.610229e+02 1.863372e+02 4.000000e+00
      vertex   -1.635229e+02 1.863372e+02 4.000000e+00
    endloop
  endfacet
  facet normal 0.000000e+00 -5.476787e-16 -4.472136e+00
    outer loop
      vertex   -1.525229e+02 1.913372e+02 4.000000e+00
      vertex   -1.525229e+02 1.863372e+02 4.000000e+00
      vertex   -1.550229e+02 1.863372e+02 4.000000e+00
    endloop
  endfacet
  facet normal 0.000000e+00 -1.224647e-15 -1.000000e+01
    outer loop
      vertex   -1.730229e+02 2.016372e+02 4.000000e+00
      vertex   -1.703229e+02 2.016372e+02 4.000000e+00
      vertex   -1.730229e+02 1.956372e+02 4.000000e+00
    endloop
  endfacet
  facet normal 0.000000e+00 -1.116783e-15 -9.119225e+00
    outer loop
      vertex   -1.730229e+02 1.956372e+02 4.000000e+00
      vertex   -1.703229e+02 2.016372e+02 4.000000e+00
      vertex   -1.703229e+02 1.956372e+02 4.000000e+00
    endloop
  endfacet
  facet normal 0.000000e+00 -6.209204e-16 -5.070199e+00
    outer loop
      vertex   -1.703229e+02 1.956372e+02 4.000000e+00
      vertex   -1.703229e+02 2.016372e+02 4.000000e+00
      vertex   -1.653229e+02 2.041372e+02 4.000000e+00
    endloop
  endfacet
  facet normal 0.000000e+00 -1.221810e-15 -9.976837e+00
    outer loop
      vertex   -1.703229e+02 1.956372e+02 4.000000e+00
      vertex   -1.653229e+02 2.041372e+02 4.000000e+00
      vertex   -1.653229e+02 1.931372e+02 4.000000e+00
    endloop
  endfacet
  facet normal 0.000000e+00 -1.095357e-15 -8.944272e+00
    outer loop
      vertex   -1.703229e+02 2.016372e+02 4.000000e+00
      vertex   -1.703229e+02 2.041372e+02 4.000000e+00
      vertex   -1.653229e+02 2.041372e+02 4.000000e+00
    endloop
  endfacet
  facet normal 0.000000e+00 -5.476787e-16 -4.472136e+00
    outer loop
      vertex   -1.653229e+02 1.931372e+02 4.000000e+00
      vertex   -1.703229e+02 1.931372e+02 4.000000e+00
      vertex   -1.703229e+02 1.956372e+02 4.000000e+00
    endloop
  endfacet
  facet normal 0.000000e+00 1.224647e-15 1.000000e+01
    outer loop
      vertex   -1.730229e+02 1.836372e+02 6.000000e+00
      vertex   -1.430229e+02 1.836372e+02 6.000000e+00
      vertex   -1.730229e+02 2.136372e+02 6.000000e+00
    endloop
  endfacet
  facet normal 0.000000e+00 8.659562e-16 7.071069e+00
    outer loop
      vertex   -1.730229e+02 2.136372e+02 6.000000e+00
      vertex   -1.430229e+02 1.836372e+02 6.000000e+00
      vertex   -1.430229e+02 2.136372e+02 6.000000e+00
    endloop
  endfacet
  facet normal 0.000000e+00 1.224647e-15 1.000000e+01
    outer loop
      vertex   -1.430229e+02 1.961372e+02 3.000000e+00
      vertex   -1.395229e+02 1.961372e+02 3.000000e+00
      vertex   -1.430229e+02 2.011372e+02 3.000000e+00
    endloop
  endfacet
  facet normal 0.000000e+00 1.003269e-15 8.192316e+00
    outer loop
      vertex   -1.430229e+02 2.011372e+02 3.000000e+00
      vertex   -1.395229e+02 1.961372e+02 3.000000e+00
      vertex   -1.395229e+02 2.011372e+02 3.000000e+00
    endloop
  endfacet
  facet normal 0.000000e+00 1.038498e-15 8.479980e+00
    outer loop
      vertex   -1.395229e+02 2.011372e+02 3.000000e+00
      vertex   -1.395229e+02 1.961372e+02 3.000000e+00
      vertex   -1.355229e+02 2.036372e+02 3.000000e+00
    endloop
  endfacet
  facet normal 0.000000e+00 1.038498e-15 8.479980e+00
    outer loop
      vertex   -1.395229e+02 2.011372e+02 3.000000e+00
      vertex   -1.355229e+02 2.036372e+02 3.000000e+00
      vertex   -1.395229e+02 2.036372e+02 3.000000e+00
    endloop
  endfacet
  facet normal 0.000000e+00 1.224647e-15 1.000000e+01
    outer loop
      vertex   -1.395229e+02 1.936372e+02 3.000000e+00
      vertex   -1.355229e+02 1.936372e+02 3.000000e+00
      vertex   -1.395229e+02 1.961372e+02 3.000000e+00
    endloop
  endfacet
  facet normal 0.000000e+00 1.221763e-15 9.976450e+00
    outer loop
      vertex   -1.395229e+02 1.961372e+02 3.000000e+00
      vertex   -1.355229e+02 1.936372e+02 3.000000e+00
      vertex   -1.355229e+02 2.036372e+02 3.000000e+00
    endloop
  endfacet
  facet normal 0.000000e+00 -1.000000e+01 1.224647e-15
    outer loop
      vertex   -1.550229e+02 1.836372e+02 1.776357e-15
      vertex   -1.430229e+02 1.836372e+02 1.776357e-15
      vertex   -1.550229e+02 1.836372e+02 4.000000e+00
    endloop
  endfacet
  facet normal 0.000000e+00 -4.678878e+00 5.729973e-16
    outer loop
      vertex   -1.550229e+02 1.836372e+02 4.000000e+00
      vertex   -1.430229e+02 1.836372e+02 1.776357e-15
      vertex   -1.430229e+02 1.836372e+02 6.000000e+00
    endloop
  endfacet
  facet normal 0.000000e+00 -2.723225e+00 3.334989e-16
    outer loop
      vertex   -1.550229e+02 1.836372e+02 4.000000e+00
      vertex   -1.430229e+02 1.836372e+02 6.000000e+00
      vertex   -1.730229e+02 1.836372e+02 6.000000e+00
    endloop
  endfacet
  facet normal 0.000000e+00 -1.104316e+00 1.352397e-16
    outer loop
      vertex   -1.550229e+02 1.836372e+02 4.000000e+00
      vertex   -1.730229e+02 1.836372e+02 6.000000e+00
      vertex   -1.610229e+02 1.836372e+02 4.000000e+00
    endloop
  endfacet
  facet normal 0.000000e+00 -4.678882e+00 5.729977e-16
    outer loop
      vertex   -1.610229e+02 1.836372e+02 4.000000e+00
      vertex   -1.730229e+02 1.836372e+02 6.000000e+00
      vertex   -1.730229e+02 1.836372e+02 1.776357e-15
    endloop
  endfacet
  facet normal 0.000000e+00 -9.486832e+00 1.161802e-15
    outer loop
      vertex   -1.610229e+02 1.836372e+02 4.000000e+00
      vertex   -1.730229e+02 1.836372e+02 1.776357e-15
      vertex   -1.610229e+02 1.836372e+02 1.776357e-15
    endloop
  endfacet
  facet normal 0.000000e+00 -1.000000e+01 1.224647e-15
    outer loop
      vertex   -1.395229e+02 1.961372e+02 3.000000e+00
      vertex   -1.430229e+02 1.961372e+02 3.000000e+00
      vertex   -1.395229e+02 1.961372e+02 8.881784e-16
    endloop
  endfacet
  facet normal 0.000000e+00 -6.507910e+00 7.969891e-16
    outer loop
      vertex   -1.395229e+02 1.961372e+02 8.881784e-16
      vertex   -1.430229e+02 1.961372e+02 3.000000e+00
      vertex   -1.430229e+02 1.961372e+02 8.881784e-16
    endloop
  endfacet
  facet normal -1.000000e+01 -0.000000e+00 0.000000e+00
    outer loop
      vertex   -1.395229e+02 1.936372e+02 3.000000e+00
      vertex   -1.395229e+02 1.961372e+02 3.000000e+00
      vertex   -1.395229e+02 1.936372e+02 8.881784e-16
    endloop
  endfacet
  facet normal -7.682213e+00 0.000000e+00 -0.000000e+00
    outer loop
      vertex   -1.395229e+02 1.936372e+02 8.881784e-16
      vertex   -1.395229e+02 1.961372e+02 3.000000e+00
      vertex   -1.395229e+02 1.961372e+02 8.881784e-16
    endloop
  endfacet
  facet normal 0.000000e+00 -1.000000e+01 1.224647e-15
    outer loop
      vertex   -1.355229e+02 1.936372e+02 3.000000e+00
      vertex   -1.395229e+02 1.936372e+02 3.000000e+00
      vertex   -1.355229e+02 1.936372e+02 8.881784e-16
    endloop
  endfacet
  facet normal 0.000000e+00 -6.000004e+00 7.347885e-16
    outer loop
      vertex   -1.355229e+02 1.936372e+02 8.881784e-16
      vertex   -1.395229e+02 1.936372e+02 3.000000e+00
      vertex   -1.395229e+02 1.936372e+02 8.881784e-16
    endloop
  endfacet
  facet normal 1.000000e+01 0.000000e+00 0.000000e+00
    outer loop
      vertex   -1.355229e+02 2.036372e+02 3.000000e+00
      vertex   -1.355229e+02 1.936372e+02 3.000000e+00
      vertex   -1.355229e+02 2.036372e+02 0.000000e+00
    endloop
  endfacet
  facet normal 2.873479e+00 0.000000e+00 0.000000e+00
    outer loop
      vertex   -1.355229e+02 2.036372e+02 0.000000e+00
      vertex   -1.355229e+02 1.936372e+02 3.000000e+00
      vertex   -1.355229e+02 1.936372e+02 8.881784e-16
    endloop
  endfacet
  facet normal 0.000000e+00 1.000000e+01 -1.224647e-15
    outer loop
      vertex   -1.395229e+02 2.036372e+02 3.000000e+00
      vertex   -1.355229e+02 2.036372e+02 3.000000e+00
      vertex   -1.395229e+02 2.036372e+02 0.000000e+00
    endloop
  endfacet
  facet normal 0.000000e+00 6.000004e+00 -7.347885e-16
    outer loop
      vertex   -1.395229e+02 2.036372e+02 0.000000e+00
      vertex   -1.355229e+02 2.036372e+02 3.000000e+00
      vertex   -1.355229e+02 2.036372e+02 0.000000e+00
    endloop
  endfacet
  facet normal -1.000000e+01 -0.000000e+00 0.000000e+00
    outer loop
      vertex   -1.395229e+02 2.011372e+02 3.000000e+00
      vertex   -1.395229e+02 2.036372e+02 3.000000e+00
      vertex   -1.395229e+02 2.011372e+02 0.000000e+00
    endloop
  endfacet
  facet normal -7.682213e+00 0.000000e+00 -0.000000e+00
    outer loop
      vertex   -1.395229e+02 2.011372e+02 0.000000e+00
      vertex   -1.395229e+02 2.036372e+02 3.000000e+00
      vertex   -1.395229e+02 2.036372e+02 0.000000e+00
    endloop
  endfacet
  facet normal 0.000000e+00 1.000000e+01 -1.224647e-15
    outer loop
      vertex   -1.430229e+02 2.011372e+02 3.000000e+00
      vertex   -1.395229e+02 2.011372e+02 3.000000e+00
      vertex   -1.430229e+02 2.011372e+02 0.000000e+00
    endloop
  endfacet
  facet normal 0.000000e+00 6.507910e+00 -7.969891e-16
    outer loop
      vertex   -1.430229e+02 2.011372e+02 0.000000e+00
      vertex   -1.395229e+02 2.011372e+02 3.000000e+00
      vertex   -1.395229e+02 2.011372e+02 0.000000e+00
    endloop
  endfacet
  facet normal 1.000000e+01 0.000000e+00 0.000000e+00
    outer loop
      vertex   -1.430229e+02 2.011372e+02 0.000000e+00
      vertex   -1.430229e+02 2.136372e+02 -1.776357e-15
      vertex   -1.430229e+02 2.011372e+02 3.000000e+00
    endloop
  endfacet
  facet normal 4.538578e+00 0.000000e+00 0.000000e+00
    outer loop
      vertex   -1.430229e+02 2.011372e+02 3.000000e+00
      vertex   -1.430229e+02 2.136372e+02 -1.776357e-15
      vertex   -1.430229e+02 2.136372e+02 6.000000e+00
    endloop
  endfacet
  facet normal 3.943159e+00 0.000000e+00 0.000000e+00
    outer loop
      vertex   -1.430229e+02 2.011372e+02 3.000000e+00
      vertex   -1.430229e+02 2.136372e+02 6.000000e+00
      vertex   -1.430229e+02 1.836372e+02 6.000000e+00
    endloop
  endfacet
  facet normal 1.689638e+00 0.000000e+00 0.000000e+00
    outer loop
      vertex   -1.430229e+02 2.011372e+02 3.000000e+00
      vertex   -1.430229e+02 1.836372e+02 6.000000e+00
      vertex   -1.430229e+02 1.961372e+02 3.000000e+00
    endloop
  endfacet
  facet normal 4.538578e+00 0.000000e+00 0.000000e+00
    outer loop
      vertex   -1.430229e+02 1.961372e+02 3.000000e+00
      vertex   -1.430229e+02 1.836372e+02 6.000000e+00
      vertex   -1.430229e+02 1.836372e+02 1.776357e-15
    endloop
  endfacet
  facet normal 9.723873e+00 0.000000e+00 0.000000e+00
    outer loop
      vertex   -1.430229e+02 1.961372e+02 3.000000e+00
      vertex   -1.430229e+02 1.836372e+02 1.776357e-15
      vertex   -1.430229e+02 1.961372e+02 8.881784e-16
    endloop
  endfacet
  facet normal 0.000000e+00 9.723873e+00 -1.190831e-15
    outer loop
      vertex   -1.430229e+02 2.136372e+02 -1.776357e-15
      vertex   -1.555229e+02 2.136372e+02 3.000000e+00
      vertex   -1.430229e+02 2.136372e+02 6.000000e+00
    endloop
  endfacet
  facet normal 0.000000e+00 6.571922e-01 -8.048283e-17
    outer loop
      vertex   -1.430229e+02 2.136372e+02 6.000000e+00
      vertex   -1.555229e+02 2.136372e+02 3.000000e+00
      vertex   -1.605229e+02 2.136372e+02 3.000000e+00
    endloop
  endfacet
  facet normal 0.000000e+00 1.689639e+00 -2.069211e-16
    outer loop
      vertex   -1.430229e+02 2.136372e+02 6.000000e+00
      vertex   -1.605229e+02 2.136372e+02 3.000000e+00
      vertex   -1.730229e+02 2.136372e+02 6.000000e+00
    endloop
  endfacet
  facet normal 0.000000e+00 9.723873e+00 -1.190831e-15
    outer loop
      vertex   -1.730229e+02 2.136372e+02 6.000000e+00
      vertex   -1.605229e+02 2.136372e+02 3.000000e+00
      vertex   -1.730229e+02 2.136372e+02 -1.776357e-15
    endloop
  endfacet
  facet normal 0.000000e+00 2.333730e+00 -2.857995e-16
    outer loop
      vertex   -1.730229e+02 2.136372e+02 -1.776357e-15
      vertex   -1.605229e+02 2.136372e+02 3.000000e+00
      vertex   -1.605229e+02 2.136372e+02 -1.776357e-15
    endloop
  endfacet
  facet normal 0.000000e+00 2.333730e+00 -2.857995e-16
    outer loop
      vertex   -1.430229e+02 2.136372e+02 -1.776357e-15
      vertex   -1.555229e+02 2.136372e+02 -1.776357e-15
      vertex   -1.555229e+02 2.136372e+02 3.000000e+00
    endloop
  endfacet
  facet normal 1.000000e+01 0.000000e+00 0.000000e+00
    outer loop
      vertex   -1.555229e+02 2.171372e+02 3.000000e+00
      vertex   -1.555229e+02 2.136372e+02 3.000000e+00
      vertex   -1.555229e+02 2.171372e+02 -1.776357e-15
    endloop
  endfacet
  facet normal 6.507910e+00 0.000000e+00 0.000000e+00
    outer loop
      vertex   -1.555229e+02 2.171372e+02 -1.776357e-15
      vertex   -1.555229e+02 2.136372e+02 3.000000e+00
      vertex   -1.555229e+02 2.136372e+02 -1.776357e-15
    endloop
  endfacet
  facet normal 0.000000e+00 -1.000000e+01 1.224647e-15
    outer loop
      vertex   -1.530229e+02 2.171372e+02 3.000000e+00
      vertex   -1.555229e+02 2.171372e+02 3.000000e+00
      vertex   -1.530229e+02 2.171372e+02 -1.776357e-15
    endloop
  endfacet
  facet normal 0.000000e+00 -7.682213e+00 9.407998e-16
    outer loop
      vertex   -1.530229e+02 2.171372e+02 -1.776357e-15
      vertex   -1.555229e+02 2.171372e+02 3.000000e+00
      vertex   -1.555229e+02 2.171372e+02 -1.776357e-15
    endloop
  endfacet
  facet normal 1.000000e+01 0.000000e+00 0.000000e+00
    outer loop
      vertex   -1.530229e+02 2.211372e+02 3.000000e+00
      vertex   -1.530229e+02 2.171372e+02 3.000000e+00
      vertex   -1.530229e+02 2.211372e+02 -2.664535e-15
    endloop
  endfacet
  facet normal 6.000004e+00 0.000000e+00 0.000000e+00
    outer loop
      vertex   -1.530229e+02 2.211372e+02 -2.664535e-15
      vertex   -1.530229e+02 2.171372e+02 3.000000e+00
      vertex   -1.530229e+02 2.171372e+02 -1.776357e-15
    endloop
  endfacet
  facet normal 0.000000e+00 1.000000e+01 -1.224647e-15
    outer loop
      vertex   -1.630229e+02 2.211372e+02 3.000000e+00
      vertex   -1.530229e+02 2.211372e+02 3.000000e+00
      vertex   -1.630229e+02 2.211372e+02 -2.664535e-15
    endloop
  endfacet
  facet normal 0.000000e+00 2.873482e+00 -3.519000e-16
    outer loop
      vertex   -1.630229e+02 2.211372e+02 -2.664535e-15
      vertex   -1.530229e+02 2.211372e+02 3.000000e+00
      vertex   -1.530229e+02 2.211372e+02 -2.664535e-15
    endloop
  endfacet
  facet normal -1.000000e+01 -0.000000e+00 0.000000e+00
    outer loop
      vertex   -1.630229e+02 2.171372e+02 3.000000e+00
      vertex   -1.630229e+02 2.211372e+02 3.000000e+00
      vertex   -1.630229e+02 2.171372e+02 -1.776357e-15
    endloop
  endfacet
  facet normal -6.000004e+00 0.000000e+00 -0.000000e+00
    outer loop
      vertex   -1.630229e+02 2.171372e+02 -1.776357e-15
      vertex   -1.630229e+02 2.211372e+02 3.000000e+00
      vertex   -1.630229e+02 2.211372e+02 -2.664535e-15
    endloop
  endfacet
  facet normal 0.000000e+00 -1.000000e+01 1.224647e-15
    outer loop
      vertex   -1.605229e+02 2.171372e+02 3.000000e+00
      vertex   -1.630229e+02 2.171372e+02 3.000000e+00
      vertex   -1.605229e+02 2.171372e+02 -1.776357e-15
    endloop
  endfacet
  facet normal 0.000000e+00 -7.682213e+00 9.407998e-16
    outer loop
      vertex   -1.605229e+02 2.171372e+02 -1.776357e-15
      vertex   -1.630229e+02 2.171372e+02 3.000000e+00
      vertex   -1.630229e+02 2.171372e+02 -1.776357e-15
    endloop
  endfacet
  facet normal -1.000000e+01 -0.000000e+00 0.000000e+00
    outer loop
      vertex   -1.605229e+02 2.136372e+02 3.000000e+00
      vertex   -1.605229e+02 2.171372e+02 3.000000e+00
      vertex   -1.605229e+02 2.136372e+02 -1.776357e-15
    endloop
  endfacet
  facet normal -6.507910e+00 0.000000e+00 -0.000000e+00
    outer loop
      vertex   -1.605229e+02 2.136372e+02 -1.776357e-15
      vertex   -1.605229e+02 2.171372e+02 3.000000e+00
      vertex   -1.605229e+02 2.171372e+02 -1.776357e-15
    endloop
  endfacet
  facet normal -9.486832e+00 -0.000000e+00 0.000000e+00
    outer loop
      vertex   -1.730229e+02 2.136372e+02 -1.776357e-15
      vertex   -1.730229e+02 2.016372e+02 4.000000e+00
      vertex   -1.730229e+02 2.136372e+02 6.000000e+00
    endloop
  endfacet
  facet normal -5.446460e-01 -0.000000e+00 0.000000e+00
    outer loop
      vertex   -1.730229e+02 2.136372e+02 6.000000e+00
      vertex   -1.730229e+02 2.016372e+02 4.000000e+00
      vertex   -1.730229e+02 1.956372e+02 4.000000e+00
    endloop
  endfacet
  facet normal -1.104316e+00 -0.000000e+00 0.000000e+00
    outer loop
      vertex   -1.730229e+02 2.136372e+02 6.000000e+00
      vertex   -1.730229e+02 1.956372e+02 4.000000e+00
      vertex   -1.730229e+02 1.836372e+02 6.000000e+00
    endloop
  endfacet
  facet normal -9.863939e+00 -0.000000e+00 0.000000e+00
    outer loop
      vertex   -1.730229e+02 1.836372e+02 6.000000e+00
      vertex   -1.730229e+02 1.956372e+02 4.000000e+00
      vertex   -1.730229e+02 1.836372e+02 1.776357e-15
    endloop
  endfacet
  facet normal -3.162276e+00 0.000000e+00 -0.000000e+00
    outer loop
      vertex   -1.730229e+02 1.836372e+02 1.776357e-15
      vertex   -1.730229e+02 1.956372e+02 4.000000e+00
      vertex   -1.730229e+02 1.956372e+02 8.881784e-16
    endloop
  endfacet
  facet normal -3.162281e+00 -0.000000e+00 0.000000e+00
    outer loop
      vertex   -1.730229e+02 2.136372e+02 -1.776357e-15
      vertex   -1.730229e+02 2.016372e+02 0.000000e+00
      vertex   -1.730229e+02 2.016372e+02 4.000000e+00
    endloop
  endfacet
  facet normal 0.000000e+00 -1.000000e+01 1.224647e-15
    outer loop
      vertex   -1.703229e+02 2.016372e+02 4.000000e+00
      vertex   -1.730229e+02 2.016372e+02 4.000000e+00
      vertex   -1.703229e+02 2.016372e+02 0.000000e+00
    endloop
  endfacet
  facet normal 0.000000e+00 -8.288501e+00 1.015049e-15
    outer loop
      vertex   -1.703229e+02 2.016372e+02 0.000000e+00
      vertex   -1.730229e+02 2.016372e+02 4.000000e+00
      vertex   -1.730229e+02 2.016372e+02 0.000000e+00
    endloop
  endfacet
  facet normal 1.000000e+01 0.000000e+00 0.000000e+00
    outer loop
      vertex   -1.703229e+02 2.041372e+02 4.000000e+00
      vertex   -1.703229e+02 2.016372e+02 4.000000e+00
      vertex   -1.703229e+02 2.041372e+02 0.000000e+00
    endloop
  endfacet
  facet normal 8.479983e+00 0.000000e+00 0.000000e+00
    outer loop
      vertex   -1.703229e+02 2.041372e+02 0.000000e+00
      vertex   -1.703229e+02 2.016372e+02 4.000000e+00
      vertex   -1.703229e+02 2.016372e+02 0.000000e+00
    endloop
  endfacet
  facet normal 0.000000e+00 -1.000000e+01 1.224647e-15
    outer loop
      vertex   -1.653229e+02 2.041372e+02 4.000000e+00
      vertex   -1.703229e+02 2.041372e+02 4.000000e+00
      vertex   -1.653229e+02 2.041372e+02 0.000000e+00
    endloop
  endfacet
  facet normal 0.000000e+00 -6.246951e+00 7.650308e-16
    outer loop
      vertex   -1.653229e+02 2.041372e+02 0.000000e+00
      vertex   -1.703229e+02 2.041372e+02 4.000000e+00
      vertex   -1.703229e+02 2.041372e+02 0.000000e+00
    endloop
  endfacet
  facet normal -1.000000e+01 -0.000000e+00 0.000000e+00
    outer loop
      vertex   -1.653229e+02 1.931372e+02 4.000000e+00
      vertex   -1.653229e+02 2.041372e+02 4.000000e+00
      vertex   -1.653229e+02 1.931372e+02 8.881784e-16
    endloop
  endfacet
  facet normal -3.417430e+00 0.000000e+00 -0.000000e+00
    outer loop
      vertex   -1.653229e+02 1.931372e+02 8.881784e-16
      vertex   -1.653229e+02 2.041372e+02 4.000000e+00
      vertex   -1.653229e+02 2.041372e+02 0.000000e+00
    endloop
  endfacet
  facet normal 0.000000e+00 1.000000e+01 -1.224647e-15
    outer loop
      vertex   -1.703229e+02 1.931372e+02 4.000000e+00
      vertex   -1.653229e+02 1.931372e+02 4.000000e+00
      vertex   -1.703229e+02 1.931372e+02 8.881784e-16
    endloop
  endfacet
  facet normal 0.000000e+00 6.246951e+00 -7.650308e-16
    outer loop
      vertex   -1.703229e+02 1.931372e+02 8.881784e-16
      vertex   -1.653229e+02 1.931372e+02 4.000000e+00
      vertex   -1.653229e+02 1.931372e+02 8.881784e-16
    endloop
  endfacet
  facet normal 1.000000e+01 0.000000e+00 0.000000e+00
    outer loop
      vertex   -1.703229e+02 1.956372e+02 4.000000e+00
      vertex   -1.703229e+02 1.931372e+02 4.000000e+00
      vertex   -1.703229e+02 1.956372e+02 8.881784e-16
    endloop
  endfacet
  facet normal 8.479983e+00 0.000000e+00 0.000000e+00
    outer loop
      vertex   -1.703229e+02 1.956372e+02 8.881784e-16
      vertex   -1.703229e+02 1.931372e+02 4.000000e+00
      vertex   -1.703229e+02 1.931372e+02 8.881784e-16
    endloop
  endfacet
  facet normal 0.000000e+00 1.000000e+01 -1.224647e-15
    outer loop
      vertex   -1.730229e+02 1.956372e+02 4.000000e+00
      vertex   -1.703229e+02 1.956372e+02 4.000000e+00
      vertex   -1.730229e+02 1.956372e+02 8.881784e-16
    endloop
  endfacet
  facet normal 0.000000e+00 8.288501e+00 -1.015049e-15
    outer loop
      vertex   -1.730229e+02 1.956372e+02 8.881784e-16
      vertex   -1.703229e+02 1.956372e+02 4.000000e+00
      vertex   -1.703229e+02 1.956372e+02 8.881784e-16
    endloop
  endfacet
  facet normal 1.000000e+01 0.000000e+00 0.000000e+00
    outer loop
      vertex   -1.610229e+02 1.863372e+02 4.000000e+00
      vertex   -1.610229e+02 1.836372e+02 4.000000e+00
      vertex   -1.610229e+02 1.863372e+02 1.776357e-15
    endloop
  endfacet
  facet normal 8.288464e+00 0.000000e+00 0.000000e+00
    outer loop
      vertex   -1.610229e+02 1.863372e+02 1.776357e-15
      vertex   -1.610229e+02 1.836372e+02 4.000000e+00
      vertex   -1.610229e+02 1.836372e+02 1.776357e-15
    endloop
  endfacet
  facet normal 0.000000e+00 1.000000e+01 -1.224647e-15
    outer loop
      vertex   -1.635229e+02 1.863372e+02 4.000000e+00
      vertex   -1.610229e+02 1.863372e+02 4.000000e+00
      vertex   -1.635229e+02 1.863372e+02 1.776357e-15
    endloop
  endfacet
  facet normal 0.000000e+00 8.479983e+00 -1.038498e-15
    outer loop
      vertex   -1.635229e+02 1.863372e+02 1.776357e-15
      vertex   -1.610229e+02 1.863372e+02 4.000000e+00
      vertex   -1.610229e+02 1.863372e+02 1.776357e-15
    endloop
  endfacet
  facet normal 1.000000e+01 0.000000e+00 0.000000e+00
    outer loop
      vertex   -1.635229e+02 1.913372e+02 4.000000e+00
      vertex   -1.635229e+02 1.863372e+02 4.000000e+00
      vertex   -1.635229e+02 1.913372e+02 8.881784e-16
    endloop
  endfacet
  facet normal 6.246951e+00 0.000000e+00 0.000000e+00
    outer loop
      vertex   -1.635229e+02 1.913372e+02 8.881784e-16
      vertex   -1.635229e+02 1.863372e+02 4.000000e+00
      vertex   -1.635229e+02 1.863372e+02 1.776357e-15
    endloop
  endfacet
  facet normal 0.000000e+00 -1.000000e+01 1.224647e-15
    outer loop
      vertex   -1.525229e+02 1.913372e+02 4.000000e+00
      vertex   -1.635229e+02 1.913372e+02 4.000000e+00
      vertex   -1.525229e+02 1.913372e+02 8.881784e-16
    endloop
  endfacet
  facet normal 0.000000e+00 -3.417430e+00 4.185145e-16
    outer loop
      vertex   -1.525229e+02 1.913372e+02 8.881784e-16
      vertex   -1.635229e+02 1.913372e+02 4.000000e+00
      vertex   -1.635229e+02 1.913372e+02 8.881784e-16
    endloop
  endfacet
  facet normal -1.000000e+01 -0.000000e+00 0.000000e+00
    outer loop
      vertex   -1.525229e+02 1.863372e+02 4.000000e+00
      vertex   -1.525229e+02 1.913372e+02 4.000000e+00
      vertex   -1.525229e+02 1.863372e+02 1.776357e-15
    endloop
  endfacet
  facet normal -6.246951e+00 0.000000e+00 -0.000000e+00
    outer loop
      vertex   -1.525229e+02 1.863372e+02 1.776357e-15
      vertex   -1.525229e+02 1.913372e+02 4.000000e+00
      vertex   -1.525229e+02 1.913372e+02 8.881784e-16
    endloop
  endfacet
  facet normal 0.000000e+00 1.000000e+01 -1.224647e-15
    outer loop
      vertex   -1.550229e+02 1.863372e+02 4.000000e+00
      vertex   -1.525229e+02 1.863372e+02 4.000000e+00
      vertex   -1.550229e+02 1.863372e+02 1.776357e-15
    endloop
  endfacet
  facet normal 0.000000e+00 8.479983e+00 -1.038498e-15
    outer loop
      vertex   -1.550229e+02 1.863372e+02 1.776357e-15
      vertex   -1.525229e+02 1.863372e+02 4.000000e+00
      vertex   -1.525229e+02 1.863372e+02 1.776357e-15
    endloop
  endfacet
  facet normal -1.000000e+01 -0.000000e+00 0.000000e+00
    outer loop
      vertex   -1.550229e+02 1.836372e+02 4.000000e+00
      vertex   -1.550229e+02 1.863372e+02 4.000000e+00
      vertex   -1.550229e+02 1.836372e+02 1.776357e-15
    endloop
  endfacet
  facet normal -8.288464e+00 0.000000e+00 -0.000000e+00
    outer loop
      vertex   -1.550229e+02 1.836372e+02 1.776357e-15
      vertex   -1.550229e+02 1.863372e+02 4.000000e+00
      vertex   -1.550229e+02 1.863372e+02 1.776357e-15
    endloop
  endfacet
  facet normal 0.000000e+00 -1.224647e-15 -1.000000e+01
    outer loop
      vertex   -1.550229e+02 1.863372e+02 1.776357e-15
      vertex   -1.525229e+02 1.863372e+02 1.776357e-15
      vertex   -1.550229e+02 1.836372e+02 1.776357e-15
    endloop
  endfacet
  facet normal 0.000000e+00 -8.986013e-16 -7.337636e+00
    outer loop
      vertex   -1.550229e+02 1.836372e+02 1.776357e-15
      vertex   -1.525229e+02 1.863372e+02 1.776357e-15
      vertex   -1.430229e+02 1.836372e+02 1.776357e-15
    endloop
  endfacet
  facet normal 0.000000e+00 -4.816523e-16 -3.932990e+00
    outer loop
      vertex   -1.430229e+02 1.836372e+02 1.776357e-15
      vertex   -1.525229e+02 1.863372e+02 1.776357e-15
      vertex   -1.525229e+02 1.913372e+02 8.881784e-16
    endloop
  endfacet
  facet normal 0.000000e+00 -9.513826e-16 -7.768629e+00
    outer loop
      vertex   -1.430229e+02 1.836372e+02 1.776357e-15
      vertex   -1.525229e+02 1.913372e+02 8.881784e-16
      vertex   -1.430229e+02 1.961372e+02 8.881784e-16
    endloop
  endfacet
  facet normal 0.000000e+00 -1.093048e-15 -8.925411e+00
    outer loop
      vertex   -1.430229e+02 1.961372e+02 8.881784e-16
      vertex   -1.525229e+02 1.913372e+02 8.881784e-16
      vertex   -1.430229e+02 2.011372e+02 0.000000e+00
    endloop
  endfacet
  facet normal 0.000000e+00 -7.022894e-16 -5.734628e+00
    outer loop
      vertex   -1.430229e+02 1.961372e+02 8.881784e-16
      vertex   -1.430229e+02 2.011372e+02 0.000000e+00
      vertex   -1.395229e+02 2.011372e+02 0.000000e+00
    endloop
  endfacet
  facet normal 0.000000e+00 -8.659514e-16 -7.071030e+00
    outer loop
      vertex   -1.635229e+02 1.913372e+02 8.881784e-16
      vertex   -1.653229e+02 1.931372e+02 8.881784e-16
      vertex   -1.525229e+02 1.913372e+02 8.881784e-16
    endloop
  endfacet
  facet normal 0.000000e+00 -7.369306e-16 -6.017495e+00
    outer loop
      vertex   -1.525229e+02 1.913372e+02 8.881784e-16
      vertex   -1.653229e+02 1.931372e+02 8.881784e-16
      vertex   -1.653229e+02 2.041372e+02 0.000000e+00
    endloop
  endfacet
  facet normal 0.000000e+00 -1.224499e-15 -9.998793e+00
    outer loop
      vertex   -1.525229e+02 1.913372e+02 8.881784e-16
      vertex   -1.653229e+02 2.041372e+02 0.000000e+00
      vertex   -1.430229e+02 2.011372e+02 0.000000e+00
    endloop
  endfacet
  facet normal 0.000000e+00 -7.427680e-16 -6.065161e+00
    outer loop
      vertex   -1.430229e+02 2.011372e+02 0.000000e+00
      vertex   -1.653229e+02 2.041372e+02 0.000000e+00
      vertex   -1.555229e+02 2.136372e+02 -1.776357e-15
    endloop
  endfacet
  facet normal 0.000000e+00 -8.659560e-16 -7.071068e+00
    outer loop
      vertex   -1.430229e+02 2.011372e+02 0.000000e+00
      vertex   -1.555229e+02 2.136372e+02 -1.776357e-15
      vertex   -1.430229e+02 2.136372e+02 -1.776357e-15
    endloop
  endfacet
  facet normal 0.000000e+00 -8.659514e-16 -7.071030e+00
    outer loop
      vertex   -1.653229e+02 1.931372e+02 8.881784e-16
      vertex   -1.635229e+02 1.913372e+02 8.881784e-16
      vertex   -1.703229e+02 1.931372e+02 8.881784e-16
    endloop
  endfacet
  facet normal 0.000000e+00 -6.155335e-16 -5.026212e+00
    outer loop
      vertex   -1.703229e+02 1.931372e+02 8.881784e-16
      vertex   -1.635229e+02 1.913372e+02 8.881784e-16
      vertex   -1.635229e+02 1.863372e+02 1.776357e-15
    endloop
  endfacet
  facet normal 0.000000e+00 -1.069706e-15 -8.734809e+00
    outer loop
      vertex   -1.703229e+02 1.931372e+02 8.881784e-16
      vertex   -1.635229e+02 1.863372e+02 1.776357e-15
      vertex   -1.730229e+02 1.836372e+02 1.776357e-15
    endloop
  endfacet
  facet normal 0.000000e+00 -3.348014e-16 -2.733861e+00
    outer loop
      vertex   -1.730229e+02 1.836372e+02 1.776357e-15
      vertex   -1.635229e+02 1.863372e+02 1.776357e-15
      vertex   -1.610229e+02 1.836372e+02 1.776357e-15
    endloop
  endfacet
  facet normal 0.000000e+00 -8.320310e-16 -6.794048e+00
    outer loop
      vertex   -1.610229e+02 1.836372e+02 1.776357e-15
      vertex   -1.635229e+02 1.863372e+02 1.776357e-15
      vertex   -1.610229e+02 1.863372e+02 1.776357e-15
    endloop
  endfacet
  facet normal 0.000000e+00 -3.347964e-16 -2.733820e+00
    outer loop
      vertex   -1.730229e+02 1.836372e+02 1.776357e-15
      vertex   -1.730229e+02 1.956372e+02 8.881784e-16
      vertex   -1.703229e+02 1.931372e+02 8.881784e-16
    endloop
  endfacet
  facet normal 0.000000e+00 -8.985954e-16 -7.337589e+00
    outer loop
      vertex   -1.703229e+02 1.931372e+02 8.881784e-16
      vertex   -1.730229e+02 1.956372e+02 8.881784e-16
      vertex   -1.703229e+02 1.956372e+02 8.881784e-16
    endloop
  endfacet
  facet normal 0.000000e+00 -1.177994e-15 -9.619054e+00
    outer loop
      vertex   -1.703229e+02 2.041372e+02 0.000000e+00
      vertex   -1.730229e+02 2.136372e+02 -1.776357e-15
      vertex   -1.653229e+02 2.041372e+02 0.000000e+00
    endloop
  endfacet
  facet normal 0.000000e+00 -1.117301e-15 -9.123457e+00
    outer loop
      vertex   -1.653229e+02 2.041372e+02 0.000000e+00
      vertex   -1.730229e+02 2.136372e+02 -1.776357e-15
      vertex   -1.605229e+02 2.136372e+02 -1.776357e-15
    endloop
  endfacet
  facet normal 0.000000e+00 -4.004173e-16 -3.269655e+00
    outer loop
      vertex   -1.653229e+02 2.041372e+02 0.000000e+00
      vertex   -1.605229e+02 2.136372e+02 -1.776357e-15
      vertex   -1.555229e+02 2.136372e+02 -1.776357e-15
    endloop
  endfacet
  facet normal 0.000000e+00 -1.224647e-15 -1.000000e+01
    outer loop
      vertex   -1.555229e+02 2.136372e+02 -1.776357e-15
      vertex   -1.605229e+02 2.136372e+02 -1.776357e-15
      vertex   -1.555229e+02 2.171372e+02 -1.776357e-15
    endloop
  endfacet
  facet normal 0.000000e+00 -7.022903e-16 -5.734635e+00
    outer loop
      vertex   -1.555229e+02 2.171372e+02 -1.776357e-15
      vertex   -1.605229e+02 2.136372e+02 -1.776357e-15
      vertex   -1.605229e+02 2.171372e+02 -1.776357e-15
    endloop
  endfacet
  facet normal 0.000000e+00 -1.038498e-15 -8.479980e+00
    outer loop
      vertex   -1.555229e+02 2.171372e+02 -1.776357e-15
      vertex   -1.605229e+02 2.171372e+02 -1.776357e-15
      vertex   -1.530229e+02 2.211372e+02 -2.664535e-15
    endloop
  endfacet
  facet normal 0.000000e+00 -5.763045e-16 -4.705884e+00
    outer loop
      vertex   -1.530229e+02 2.211372e+02 -2.664535e-15
      vertex   -1.605229e+02 2.171372e+02 -1.776357e-15
      vertex   -1.630229e+02 2.211372e+02 -2.664535e-15
    endloop
  endfacet
  facet normal 0.000000e+00 -6.490620e-16 -5.299993e+00
    outer loop
      vertex   -1.630229e+02 2.211372e+02 -2.664535e-15
      vertex   -1.605229e+02 2.171372e+02 -1.776357e-15
      vertex   -1.630229e+02 2.171372e+02 -1.776357e-15
    endloop
  endfacet
  facet normal 0.000000e+00 -1.224647e-15 -1.000000e+01
    outer loop
      vertex   -1.703229e+02 2.016372e+02 0.000000e+00
      vertex   -1.730229e+02 2.016372e+02 0.000000e+00
      vertex   -1.703229e+02 2.041372e+02 0.000000e+00
    endloop
  endfacet
  facet normal 0.000000e+00 -1.091828e-15 -8.915454e+00
    outer loop
      vertex   -1.703229e+02 2.041372e+02 0.000000e+00
      vertex   -1.730229e+02 2.016372e+02 0.000000e+00
      vertex   -1.730229e+02 2.136372e+02 -1.776357e-15
    endloop
  endfacet
  facet normal 0.000000e+00 -6.490620e-16 -5.299993e+00
    outer loop
      vertex   -1.530229e+02 2.211372e+02 -2.664535e-15
      vertex   -1.530229e+02 2.171372e+02 -1.776357e-15
      vertex   -1.555229e+02 2.171372e+02 -1.776357e-15
    endloop
  endfacet
  facet normal 0.000000e+00 -1.224647e-15 -1.000000e+01
    outer loop
      vertex   -1.395229e+02 2.036372e+02 0.000000e+00
      vertex   -1.355229e+02 2.036372e+02 0.000000e+00
      vertex   -1.395229e+02 2.011372e+02 0.000000e+00
    endloop
  endfacet
  facet normal 0.000000e+00 -1.038498e-15 -8.479980e+00
    outer loop
      vertex   -1.395229e+02 2.011372e+02 0.000000e+00
      vertex   -1.355229e+02 2.036372e+02 0.000000e+00
      vertex   -1.395229e+02 1.961372e+02 8.881784e-16
    endloop
  endfacet
  facet normal 0.000000e+00 -7.022894e-16 -5.734628e+00
    outer loop
      vertex   -1.395229e+02 2.011372e+02 0.000000e+00
      vertex   -1.395229e+02 1.961372e+02 8.881784e-16
      vertex   -1.430229e+02 1.961372e+02 8.881784e-16
    endloop
  endfacet
  facet normal 0.000000e+00 -5.763040e-16 -4.705879e+00
    outer loop
      vertex   -1.355229e+02 2.036372e+02 0.000000e+00
      vertex   -1.355229e+02 1.936372e+02 8.881784e-16
      vertex   -1.395229e+02 1.961372e+02 8.881784e-16
    endloop
  endfacet
  facet normal 0.000000e+00 -1.038498e-15 -8.479980e+00
    outer loop
      vertex   -1.395229e+02 1.961372e+02 8.881784e-16
      vertex   -1.355229e+02 1.936372e+02 8.881784e-16
      vertex   -1.395229e+02 1.936372e+02 8.881784e-16
    endloop
  endfacet
  facet normal 0.000000e+00 1.224647e-15 1.000000e+01
    outer loop
      vertex   -1.605229e+02 2.136372e+02 3.000000e+00
      vertex   -1.555229e+02 2.136372e+02 3.000000e+00
      vertex   -1.605229e+02 2.171372e+02 3.000000e+00
    endloop
  endfacet
  facet normal 0.000000e+00 7.022903e-16 5.734635e+00
    outer loop
      vertex   -1.605229e+02 2.171372e+02 3.000000e+00
      vertex   -1.555229e+02 2.136372e+02 3.000000e+00
      vertex   -1.555229e+02 2.171372e+02 3.000000e+00
    endloop
  endfacet
  facet normal 0.000000e+00 1.038498e-15 8.479980e+00
    outer loop
      vertex   -1.605229e+02 2.171372e+02 3.000000e+00
      vertex   -1.555229e+02 2.171372e+02 3.000000e+00
      vertex   -1.630229e+02 2.211372e+02 3.000000e+00
    endloop
  endfacet
  facet normal 0.000000e+00 5.763045e-16 4.705884e+00
    outer loop
      vertex   -1.630229e+02 2.211372e+02 3.000000e+00
      vertex   -1.555229e+02 2.171372e+02 3.000000e+00
      vertex   -1.530229e+02 2.211372e+02 3.000000e+00
    endloop
  endfacet
  facet normal 0.000000e+00 6.490620e-16 5.299993e+00
    outer loop
      vertex   -1.530229e+02 2.211372e+02 3.000000e+00
      vertex   -1.555229e+02 2.171372e+02 3.000000e+00
      vertex   -1.530229e+02 2.171372e+02 3.000000e+00
    endloop
  endfacet
  facet normal 0.000000e+00 6.490620e-16 5.299993e+00
    outer loop
      vertex   -1.630229e+02 2.211372e+02 3.000000e+00
      vertex   -1.630229e+02 2.171372e+02 3.000000e+00
      vertex   -1.605229e+02 2.171372e+02 3.000000e+00
    endloop
  endfacet
endsolid
