solid ascii
  facet normal 4.799719e-16 0.000000e+00 -3.919268e+00
    outer loop
      vertex   -1.066229e+02 6.437191e+00 0.000000e+00
      vertex   -8.432291e+01 1.593719e+01 2.664535e-15
      vertex   -7.662290e+01 6.437191e+00 3.552714e-15
    endloop
  endfacet
  facet normal 4.816530e-16 0.000000e+00 -3.932995e+00
    outer loop
      vertex   -7.662290e+01 6.437191e+00 3.552714e-15
      vertex   -8.432291e+01 1.593719e+01 2.664535e-15
      vertex   -7.932291e+01 1.593719e+01 2.664535e-15
    endloop
  endfacet
  facet normal 3.347989e-16 0.000000e+00 -2.733840e+00
    outer loop
      vertex   -7.662290e+01 6.437191e+00 3.552714e-15
      vertex   -7.932291e+01 1.593719e+01 2.664535e-15
      vertex   -7.662290e+01 1.843719e+01 3.552714e-15
    endloop
  endfacet
  facet normal 8.320339e-16 0.000000e+00 -6.794072e+00
    outer loop
      vertex   -7.662290e+01 1.843719e+01 3.552714e-15
      vertex   -7.932291e+01 1.593719e+01 2.664535e-15
      vertex   -7.932291e+01 1.843719e+01 2.664535e-15
    endloop
  endfacet
  facet normal 1.126671e-15 0.000000e+00 -9.199965e+00
    outer loop
      vertex   -1.066229e+02 6.437191e+00 0.000000e+00
      vertex   -1.066229e+02 1.893719e+01 0.000000e+00
      vertex   -8.432291e+01 1.593719e+01 2.664535e-15
    endloop
  endfacet
  facet normal 7.427686e-16 0.000000e+00 -6.065166e+00
    outer loop
      vertex   -8.432291e+01 1.593719e+01 2.664535e-15
      vertex   -1.066229e+02 1.893719e+01 0.000000e+00
      vertex   -9.712290e+01 2.873719e+01 8.881784e-16
    endloop
  endfacet
  facet normal 8.659560e-16 0.000000e+00 -7.071067e+00
    outer loop
      vertex   -8.432291e+01 1.593719e+01 2.664535e-15
      vertex   -9.712290e+01 2.873719e+01 8.881784e-16
      vertex   -8.432291e+01 2.693719e+01 2.664535e-15
    endloop
  endfacet
  facet normal 7.369320e-16 0.000000e+00 -6.017506e+00
    outer loop
      vertex   -8.432291e+01 2.693719e+01 2.664535e-15
      vertex   -9.712290e+01 2.873719e+01 8.881784e-16
      vertex   -8.612290e+01 2.873719e+01 1.776357e-15
    endloop
  endfacet
  facet normal 8.659578e-16 0.000000e+00 -7.071082e+00
    outer loop
      vertex   -8.432291e+01 2.693719e+01 2.664535e-15
      vertex   -8.612290e+01 2.873719e+01 1.776357e-15
      vertex   -7.932291e+01 2.693719e+01 2.664535e-15
    endloop
  endfacet
  facet normal 6.155328e-16 0.000000e+00 -5.026206e+00
    outer loop
      vertex   -7.932291e+01 2.693719e+01 2.664535e-15
      vertex   -8.612290e+01 2.873719e+01 1.776357e-15
      vertex   -8.612290e+01 3.373719e+01 1.776357e-15
    endloop
  endfacet
  facet normal 1.069706e-15 0.000000e+00 -8.734809e+00
    outer loop
      vertex   -7.932291e+01 2.693719e+01 2.664535e-15
      vertex   -8.612290e+01 3.373719e+01 1.776357e-15
      vertex   -7.662290e+01 3.643719e+01 3.552714e-15
    endloop
  endfacet
  facet normal 3.347986e-16 0.000000e+00 -2.733838e+00
    outer loop
      vertex   -7.662290e+01 3.643719e+01 3.552714e-15
      vertex   -8.612290e+01 3.373719e+01 1.776357e-15
      vertex   -8.862290e+01 3.643719e+01 1.776357e-15
    endloop
  endfacet
  facet normal 8.320345e-16 0.000000e+00 -6.794077e+00
    outer loop
      vertex   -8.862290e+01 3.643719e+01 1.776357e-15
      vertex   -8.612290e+01 3.373719e+01 1.776357e-15
      vertex   -8.862290e+01 3.373719e+01 1.776357e-15
    endloop
  endfacet
  facet normal 4.004183e-16 0.000000e+00 -3.269663e+00
    outer loop
      vertex   -9.712290e+01 2.873719e+01 8.881784e-16
      vertex   -1.066229e+02 1.893719e+01 0.000000e+00
      vertex   -1.066229e+02 2.393719e+01 0.000000e+00
    endloop
  endfacet
  facet normal 7.022894e-16 0.000000e+00 -5.734628e+00
    outer loop
      vertex   -1.066229e+02 2.393719e+01 0.000000e+00
      vertex   -1.066229e+02 1.893719e+01 0.000000e+00
      vertex   -1.101229e+02 1.893719e+01 -8.881784e-16
    endloop
  endfacet
  facet normal 1.003269e-15 0.000000e+00 -8.192316e+00
    outer loop
      vertex   -1.066229e+02 2.393719e+01 0.000000e+00
      vertex   -1.101229e+02 1.893719e+01 -8.881784e-16
      vertex   -1.101229e+02 2.393719e+01 -8.881784e-16
    endloop
  endfacet
  facet normal 5.763045e-16 0.000000e+00 -4.705883e+00
    outer loop
      vertex   -1.101229e+02 2.393719e+01 -8.881784e-16
      vertex   -1.101229e+02 1.893719e+01 -8.881784e-16
      vertex   -1.141229e+02 1.643719e+01 -8.881784e-16
    endloop
  endfacet
  facet normal 1.221763e-15 0.000000e+00 -9.976451e+00
    outer loop
      vertex   -1.101229e+02 2.393719e+01 -8.881784e-16
      vertex   -1.141229e+02 1.643719e+01 -8.881784e-16
      vertex   -1.141229e+02 2.643719e+01 -8.881784e-16
    endloop
  endfacet
  facet normal 1.038498e-15 0.000000e+00 -8.479984e+00
    outer loop
      vertex   -1.101229e+02 1.893719e+01 -8.881784e-16
      vertex   -1.101229e+02 1.643719e+01 -8.881784e-16
      vertex   -1.141229e+02 1.643719e+01 -8.881784e-16
    endloop
  endfacet
  facet normal 6.490614e-16 0.000000e+00 -5.299988e+00
    outer loop
      vertex   -1.141229e+02 2.643719e+01 -8.881784e-16
      vertex   -1.101229e+02 2.643719e+01 -8.881784e-16
      vertex   -1.101229e+02 2.393719e+01 -8.881784e-16
    endloop
  endfacet
  facet normal 1.093046e-15 0.000000e+00 -8.925402e+00
    outer loop
      vertex   -1.066229e+02 2.393719e+01 0.000000e+00
      vertex   -1.066229e+02 3.643719e+01 0.000000e+00
      vertex   -9.712290e+01 2.873719e+01 8.881784e-16
    endloop
  endfacet
  facet normal 9.513836e-16 0.000000e+00 -7.768637e+00
    outer loop
      vertex   -9.712290e+01 2.873719e+01 8.881784e-16
      vertex   -1.066229e+02 3.643719e+01 0.000000e+00
      vertex   -9.712290e+01 3.373719e+01 8.881784e-16
    endloop
  endfacet
  facet normal 1.091831e-15 0.000000e+00 -8.915474e+00
    outer loop
      vertex   -9.712290e+01 3.373719e+01 8.881784e-16
      vertex   -1.066229e+02 3.643719e+01 0.000000e+00
      vertex   -9.462290e+01 3.643719e+01 8.881784e-16
    endloop
  endfacet
  facet normal 8.985980e-16 0.000000e+00 -7.337609e+00
    outer loop
      vertex   -9.712290e+01 3.373719e+01 8.881784e-16
      vertex   -9.462290e+01 3.643719e+01 8.881784e-16
      vertex   -9.462290e+01 3.373719e+01 8.881784e-16
    endloop
  endfacet
  facet normal 3.347987e-16 0.000000e+00 -2.733839e+00
    outer loop
      vertex   -7.662290e+01 3.643719e+01 3.552714e-15
      vertex   -7.662290e+01 2.443719e+01 3.552714e-15
      vertex   -7.932291e+01 2.693719e+01 2.664535e-15
    endloop
  endfacet
  facet normal 8.985984e-16 0.000000e+00 -7.337613e+00
    outer loop
      vertex   -7.932291e+01 2.693719e+01 2.664535e-15
      vertex   -7.662290e+01 2.443719e+01 3.552714e-15
      vertex   -7.932291e+01 2.443719e+01 2.664535e-15
    endloop
  endfacet
  facet normal 1.224647e-15 0.000000e+00 -1.000000e+01
    outer loop
      vertex   -9.462290e+01 3.643719e+01 4.000000e+00
      vertex   -8.862290e+01 3.643719e+01 4.000000e+00
      vertex   -9.462290e+01 3.373719e+01 4.000000e+00
    endloop
  endfacet
  facet normal 5.025519e-16 0.000000e+00 -4.103647e+00
    outer loop
      vertex   -9.462290e+01 3.373719e+01 4.000000e+00
      vertex   -8.862290e+01 3.643719e+01 4.000000e+00
      vertex   -8.862290e+01 3.373719e+01 4.000000e+00
    endloop
  endfacet
  facet normal 1.095357e-15 0.000000e+00 -8.944272e+00
    outer loop
      vertex   -9.462290e+01 3.373719e+01 4.000000e+00
      vertex   -8.862290e+01 3.373719e+01 4.000000e+00
      vertex   -9.712290e+01 2.873719e+01 4.000000e+00
    endloop
  endfacet
  facet normal 6.209204e-16 0.000000e+00 -5.070199e+00
    outer loop
      vertex   -9.712290e+01 2.873719e+01 4.000000e+00
      vertex   -8.862290e+01 3.373719e+01 4.000000e+00
      vertex   -8.612290e+01 2.873719e+01 4.000000e+00
    endloop
  endfacet
  facet normal 5.476787e-16 0.000000e+00 -4.472136e+00
    outer loop
      vertex   -8.612290e+01 2.873719e+01 4.000000e+00
      vertex   -8.862290e+01 3.373719e+01 4.000000e+00
      vertex   -8.612290e+01 3.373719e+01 4.000000e+00
    endloop
  endfacet
  facet normal 5.476787e-16 0.000000e+00 -4.472136e+00
    outer loop
      vertex   -9.712290e+01 2.873719e+01 4.000000e+00
      vertex   -9.712290e+01 3.373719e+01 4.000000e+00
      vertex   -9.462290e+01 3.373719e+01 4.000000e+00
    endloop
  endfacet
  facet normal 1.224647e-15 0.000000e+00 -1.000000e+01
    outer loop
      vertex   -7.662290e+01 1.843719e+01 4.000000e+00
      vertex   -7.932291e+01 1.843719e+01 4.000000e+00
      vertex   -7.662290e+01 2.443719e+01 4.000000e+00
    endloop
  endfacet
  facet normal 1.116781e-15 0.000000e+00 -9.119213e+00
    outer loop
      vertex   -7.662290e+01 2.443719e+01 4.000000e+00
      vertex   -7.932291e+01 1.843719e+01 4.000000e+00
      vertex   -7.932291e+01 2.443719e+01 4.000000e+00
    endloop
  endfacet
  facet normal 6.209206e-16 0.000000e+00 -5.070202e+00
    outer loop
      vertex   -7.932291e+01 2.443719e+01 4.000000e+00
      vertex   -7.932291e+01 1.843719e+01 4.000000e+00
      vertex   -8.432291e+01 1.593719e+01 4.000000e+00
    endloop
  endfacet
  facet normal 1.221810e-15 0.000000e+00 -9.976837e+00
    outer loop
      vertex   -7.932291e+01 2.443719e+01 4.000000e+00
      vertex   -8.432291e+01 1.593719e+01 4.000000e+00
      vertex   -8.432291e+01 2.693719e+01 4.000000e+00
    endloop
  endfacet
  facet normal 1.095357e-15 0.000000e+00 -8.944273e+00
    outer loop
      vertex   -7.932291e+01 1.843719e+01 4.000000e+00
      vertex   -7.932291e+01 1.593719e+01 4.000000e+00
      vertex   -8.432291e+01 1.593719e+01 4.000000e+00
    endloop
  endfacet
  facet normal 5.476787e-16 0.000000e+00 -4.472136e+00
    outer loop
      vertex   -8.432291e+01 2.693719e+01 4.000000e+00
      vertex   -7.932291e+01 2.693719e+01 4.000000e+00
      vertex   -7.932291e+01 2.443719e+01 4.000000e+00
    endloop
  endfacet
  facet normal -1.224647e-15 0.000000e+00 1.000000e+01
    outer loop
      vertex   -7.662290e+01 3.643719e+01 6.000000e+00
      vertex   -1.066229e+02 3.643719e+01 6.000000e+00
      vertex   -7.662290e+01 6.437191e+00 6.000000e+00
    endloop
  endfacet
  facet normal -8.659560e-16 0.000000e+00 7.071068e+00
    outer loop
      vertex   -7.662290e+01 6.437191e+00 6.000000e+00
      vertex   -1.066229e+02 3.643719e+01 6.000000e+00
      vertex   -1.066229e+02 6.437191e+00 6.000000e+00
    endloop
  endfacet
  facet normal -1.224647e-15 0.000000e+00 1.000000e+01
    outer loop
      vertex   -1.066229e+02 2.393719e+01 3.000000e+00
      vertex   -1.101229e+02 2.393719e+01 3.000000e+00
      vertex   -1.066229e+02 1.893719e+01 3.000000e+00
    endloop
  endfacet
  facet normal -1.003269e-15 0.000000e+00 8.192316e+00
    outer loop
      vertex   -1.066229e+02 1.893719e+01 3.000000e+00
      vertex   -1.101229e+02 2.393719e+01 3.000000e+00
      vertex   -1.101229e+02 1.893719e+01 3.000000e+00
    endloop
  endfacet
  facet normal -1.038498e-15 0.000000e+00 8.479984e+00
    outer loop
      vertex   -1.101229e+02 1.893719e+01 3.000000e+00
      vertex   -1.101229e+02 2.393719e+01 3.000000e+00
      vertex   -1.141229e+02 1.643719e+01 3.000000e+00
    endloop
  endfacet
  facet normal -1.038498e-15 0.000000e+00 8.479984e+00
    outer loop
      vertex   -1.101229e+02 1.893719e+01 3.000000e+00
      vertex   -1.141229e+02 1.643719e+01 3.000000e+00
      vertex   -1.101229e+02 1.643719e+01 3.000000e+00
    endloop
  endfacet
  facet normal -1.224647e-15 0.000000e+00 1.000000e+01
    outer loop
      vertex   -1.101229e+02 2.643719e+01 3.000000e+00
      vertex   -1.141229e+02 2.643719e+01 3.000000e+00
      vertex   -1.101229e+02 2.393719e+01 3.000000e+00
    endloop
  endfacet
  facet normal -1.221763e-15 0.000000e+00 9.976451e+00
    outer loop
      vertex   -1.101229e+02 2.393719e+01 3.000000e+00
      vertex   -1.141229e+02 2.643719e+01 3.000000e+00
      vertex   -1.141229e+02 1.643719e+01 3.000000e+00
    endloop
  endfacet
  facet normal 0.000000e+00 1.000000e+01 0.000000e+00
    outer loop
      vertex   -9.462290e+01 3.643719e+01 8.881784e-16
      vertex   -1.066229e+02 3.643719e+01 0.000000e+00
      vertex   -9.462290e+01 3.643719e+01 4.000000e+00
    endloop
  endfacet
  facet normal 0.000000e+00 4.678878e+00 0.000000e+00
    outer loop
      vertex   -9.462290e+01 3.643719e+01 4.000000e+00
      vertex   -1.066229e+02 3.643719e+01 0.000000e+00
      vertex   -1.066229e+02 3.643719e+01 6.000000e+00
    endloop
  endfacet
  facet normal 0.000000e+00 2.723225e+00 0.000000e+00
    outer loop
      vertex   -9.462290e+01 3.643719e+01 4.000000e+00
      vertex   -1.066229e+02 3.643719e+01 6.000000e+00
      vertex   -7.662290e+01 3.643719e+01 6.000000e+00
    endloop
  endfacet
  facet normal 0.000000e+00 1.104315e+00 0.000000e+00
    outer loop
      vertex   -9.462290e+01 3.643719e+01 4.000000e+00
      vertex   -7.662290e+01 3.643719e+01 6.000000e+00
      vertex   -8.862290e+01 3.643719e+01 4.000000e+00
    endloop
  endfacet
  facet normal 0.000000e+00 4.678878e+00 0.000000e+00
    outer loop
      vertex   -8.862290e+01 3.643719e+01 4.000000e+00
      vertex   -7.662290e+01 3.643719e+01 6.000000e+00
      vertex   -7.662290e+01 3.643719e+01 3.552714e-15
    endloop
  endfacet
  facet normal 0.000000e+00 9.486833e+00 0.000000e+00
    outer loop
      vertex   -8.862290e+01 3.643719e+01 4.000000e+00
      vertex   -7.662290e+01 3.643719e+01 3.552714e-15
      vertex   -8.862290e+01 3.643719e+01 1.776357e-15
    endloop
  endfacet
  facet normal 0.000000e+00 1.000000e+01 0.000000e+00
    outer loop
      vertex   -1.101229e+02 2.393719e+01 3.000000e+00
      vertex   -1.066229e+02 2.393719e+01 3.000000e+00
      vertex   -1.101229e+02 2.393719e+01 -8.881784e-16
    endloop
  endfacet
  facet normal 0.000000e+00 6.507910e+00 0.000000e+00
    outer loop
      vertex   -1.101229e+02 2.393719e+01 -8.881784e-16
      vertex   -1.066229e+02 2.393719e+01 3.000000e+00
      vertex   -1.066229e+02 2.393719e+01 0.000000e+00
    endloop
  endfacet
  facet normal 1.000000e+01 0.000000e+00 1.224647e-15
    outer loop
      vertex   -1.101229e+02 2.643719e+01 3.000000e+00
      vertex   -1.101229e+02 2.393719e+01 3.000000e+00
      vertex   -1.101229e+02 2.643719e+01 -8.881784e-16
    endloop
  endfacet
  facet normal 7.682213e+00 0.000000e+00 9.407998e-16
    outer loop
      vertex   -1.101229e+02 2.643719e+01 -8.881784e-16
      vertex   -1.101229e+02 2.393719e+01 3.000000e+00
      vertex   -1.101229e+02 2.393719e+01 -8.881784e-16
    endloop
  endfacet
  facet normal 0.000000e+00 1.000000e+01 0.000000e+00
    outer loop
      vertex   -1.141229e+02 2.643719e+01 3.000000e+00
      vertex   -1.101229e+02 2.643719e+01 3.000000e+00
      vertex   -1.141229e+02 2.643719e+01 -8.881784e-16
    endloop
  endfacet
  facet normal 0.000000e+00 5.999999e+00 0.000000e+00
    outer loop
      vertex   -1.141229e+02 2.643719e+01 -8.881784e-16
      vertex   -1.101229e+02 2.643719e+01 3.000000e+00
      vertex   -1.101229e+02 2.643719e+01 -8.881784e-16
    endloop
  endfacet
  facet normal -1.000000e+01 0.000000e+00 -1.224647e-15
    outer loop
      vertex   -1.141229e+02 1.643719e+01 3.000000e+00
      vertex   -1.141229e+02 2.643719e+01 3.000000e+00
      vertex   -1.141229e+02 1.643719e+01 -8.881784e-16
    endloop
  endfacet
  facet normal -2.873479e+00 0.000000e+00 -3.518997e-16
    outer loop
      vertex   -1.141229e+02 1.643719e+01 -8.881784e-16
      vertex   -1.141229e+02 2.643719e+01 3.000000e+00
      vertex   -1.141229e+02 2.643719e+01 -8.881784e-16
    endloop
  endfacet
  facet normal 0.000000e+00 -1.000000e+01 -0.000000e+00
    outer loop
      vertex   -1.101229e+02 1.643719e+01 3.000000e+00
      vertex   -1.141229e+02 1.643719e+01 3.000000e+00
      vertex   -1.101229e+02 1.643719e+01 -8.881784e-16
    endloop
  endfacet
  facet normal 0.000000e+00 -5.999999e+00 -0.000000e+00
    outer loop
      vertex   -1.101229e+02 1.643719e+01 -8.881784e-16
      vertex   -1.141229e+02 1.643719e+01 3.000000e+00
      vertex   -1.141229e+02 1.643719e+01 -8.881784e-16
    endloop
  endfacet
  facet normal 1.000000e+01 0.000000e+00 1.224647e-15
    outer loop
      vertex   -1.101229e+02 1.893719e+01 3.000000e+00
      vertex   -1.101229e+02 1.643719e+01 3.000000e+00
      vertex   -1.101229e+02 1.893719e+01 -8.881784e-16
    endloop
  endfacet
  facet normal 7.682213e+00 0.000000e+00 9.407998e-16
    outer loop
      vertex   -1.101229e+02 1.893719e+01 -8.881784e-16
      vertex   -1.101229e+02 1.643719e+01 3.000000e+00
      vertex   -1.101229e+02 1.643719e+01 -8.881784e-16
    endloop
  endfacet
  facet normal 0.000000e+00 -1.000000e+01 -0.000000e+00
    outer loop
      vertex   -1.066229e+02 1.893719e+01 3.000000e+00
      vertex   -1.101229e+02 1.893719e+01 3.000000e+00
      vertex   -1.066229e+02 1.893719e+01 0.000000e+00
    endloop
  endfacet
  facet normal 0.000000e+00 -6.507910e+00 -0.000000e+00
    outer loop
      vertex   -1.066229e+02 1.893719e+01 0.000000e+00
      vertex   -1.101229e+02 1.893719e+01 3.000000e+00
      vertex   -1.101229e+02 1.893719e+01 -8.881784e-16
    endloop
  endfacet
  facet normal -1.000000e+01 0.000000e+00 -1.224647e-15
    outer loop
      vertex   -1.066229e+02 1.893719e+01 0.000000e+00
      vertex   -1.066229e+02 6.437191e+00 0.000000e+00
      vertex   -1.066229e+02 1.893719e+01 3.000000e+00
    endloop
  endfacet
  facet normal -4.538579e+00 0.000000e+00 -5.558156e-16
    outer loop
      vertex   -1.066229e+02 1.893719e+01 3.000000e+00
      vertex   -1.066229e+02 6.437191e+00 0.000000e+00
      vertex   -1.066229e+02 6.437191e+00 6.000000e+00
    endloop
  endfacet
  facet normal -3.943159e+00 0.000000e+00 -4.828977e-16
    outer loop
      vertex   -1.066229e+02 1.893719e+01 3.000000e+00
      vertex   -1.066229e+02 6.437191e+00 6.000000e+00
      vertex   -1.066229e+02 3.643719e+01 6.000000e+00
    endloop
  endfacet
  facet normal -1.689638e+00 0.000000e+00 -2.069210e-16
    outer loop
      vertex   -1.066229e+02 1.893719e+01 3.000000e+00
      vertex   -1.066229e+02 3.643719e+01 6.000000e+00
      vertex   -1.066229e+02 2.393719e+01 3.000000e+00
    endloop
  endfacet
  facet normal -4.538577e+00 0.000000e+00 -5.558154e-16
    outer loop
      vertex   -1.066229e+02 2.393719e+01 3.000000e+00
      vertex   -1.066229e+02 3.643719e+01 6.000000e+00
      vertex   -1.066229e+02 3.643719e+01 0.000000e+00
    endloop
  endfacet
  facet normal -9.723873e+00 0.000000e+00 -1.190831e-15
    outer loop
      vertex   -1.066229e+02 2.393719e+01 3.000000e+00
      vertex   -1.066229e+02 3.643719e+01 0.000000e+00
      vertex   -1.066229e+02 2.393719e+01 0.000000e+00
    endloop
  endfacet
  facet normal 0.000000e+00 -1.000000e+01 0.000000e+00
    outer loop
      vertex   -1.066229e+02 6.437191e+00 0.000000e+00
      vertex   -7.662290e+01 6.437191e+00 3.552714e-15
      vertex   -1.066229e+02 6.437191e+00 6.000000e+00
    endloop
  endfacet
  facet normal 0.000000e+00 -1.961161e+00 -0.000000e+00
    outer loop
      vertex   -1.066229e+02 6.437191e+00 6.000000e+00
      vertex   -7.662290e+01 6.437191e+00 3.552714e-15
      vertex   -7.662290e+01 6.437191e+00 6.000000e+00
    endloop
  endfacet
  facet normal 9.486833e+00 0.000000e+00 1.161802e-15
    outer loop
      vertex   -7.662290e+01 6.437191e+00 3.552714e-15
      vertex   -7.662290e+01 1.843719e+01 4.000000e+00
      vertex   -7.662290e+01 6.437191e+00 6.000000e+00
    endloop
  endfacet
  facet normal 5.446450e-01 0.000000e+00 6.669977e-17
    outer loop
      vertex   -7.662290e+01 6.437191e+00 6.000000e+00
      vertex   -7.662290e+01 1.843719e+01 4.000000e+00
      vertex   -7.662290e+01 2.443719e+01 4.000000e+00
    endloop
  endfacet
  facet normal 1.104315e+00 0.000000e+00 1.352396e-16
    outer loop
      vertex   -7.662290e+01 6.437191e+00 6.000000e+00
      vertex   -7.662290e+01 2.443719e+01 4.000000e+00
      vertex   -7.662290e+01 3.643719e+01 6.000000e+00
    endloop
  endfacet
  facet normal 9.863939e+00 0.000000e+00 1.207984e-15
    outer loop
      vertex   -7.662290e+01 3.643719e+01 6.000000e+00
      vertex   -7.662290e+01 2.443719e+01 4.000000e+00
      vertex   -7.662290e+01 3.643719e+01 3.552714e-15
    endloop
  endfacet
  facet normal 3.162277e+00 0.000000e+00 3.872673e-16
    outer loop
      vertex   -7.662290e+01 3.643719e+01 3.552714e-15
      vertex   -7.662290e+01 2.443719e+01 4.000000e+00
      vertex   -7.662290e+01 2.443719e+01 3.552714e-15
    endloop
  endfacet
  facet normal 3.162278e+00 0.000000e+00 3.872674e-16
    outer loop
      vertex   -7.662290e+01 6.437191e+00 3.552714e-15
      vertex   -7.662290e+01 1.843719e+01 3.552714e-15
      vertex   -7.662290e+01 1.843719e+01 4.000000e+00
    endloop
  endfacet
  facet normal 0.000000e+00 1.000000e+01 0.000000e+00
    outer loop
      vertex   -7.932291e+01 1.843719e+01 4.000000e+00
      vertex   -7.662290e+01 1.843719e+01 4.000000e+00
      vertex   -7.932291e+01 1.843719e+01 2.664535e-15
    endloop
  endfacet
  facet normal 0.000000e+00 8.288483e+00 0.000000e+00
    outer loop
      vertex   -7.932291e+01 1.843719e+01 2.664535e-15
      vertex   -7.662290e+01 1.843719e+01 4.000000e+00
      vertex   -7.662290e+01 1.843719e+01 3.552714e-15
    endloop
  endfacet
  facet normal -1.000000e+01 0.000000e+00 -1.224647e-15
    outer loop
      vertex   -7.932291e+01 1.593719e+01 4.000000e+00
      vertex   -7.932291e+01 1.843719e+01 4.000000e+00
      vertex   -7.932291e+01 1.593719e+01 2.664535e-15
    endloop
  endfacet
  facet normal -8.479984e+00 0.000000e+00 -1.038499e-15
    outer loop
      vertex   -7.932291e+01 1.593719e+01 2.664535e-15
      vertex   -7.932291e+01 1.843719e+01 4.000000e+00
      vertex   -7.932291e+01 1.843719e+01 2.664535e-15
    endloop
  endfacet
  facet normal 0.000000e+00 1.000000e+01 0.000000e+00
    outer loop
      vertex   -8.432291e+01 1.593719e+01 4.000000e+00
      vertex   -7.932291e+01 1.593719e+01 4.000000e+00
      vertex   -8.432291e+01 1.593719e+01 2.664535e-15
    endloop
  endfacet
  facet normal 0.000000e+00 6.246951e+00 0.000000e+00
    outer loop
      vertex   -8.432291e+01 1.593719e+01 2.664535e-15
      vertex   -7.932291e+01 1.593719e+01 4.000000e+00
      vertex   -7.932291e+01 1.593719e+01 2.664535e-15
    endloop
  endfacet
  facet normal 1.000000e+01 0.000000e+00 1.224647e-15
    outer loop
      vertex   -8.432291e+01 2.693719e+01 4.000000e+00
      vertex   -8.432291e+01 1.593719e+01 4.000000e+00
      vertex   -8.432291e+01 2.693719e+01 2.664535e-15
    endloop
  endfacet
  facet normal 3.417431e+00 0.000000e+00 4.185146e-16
    outer loop
      vertex   -8.432291e+01 2.693719e+01 2.664535e-15
      vertex   -8.432291e+01 1.593719e+01 4.000000e+00
      vertex   -8.432291e+01 1.593719e+01 2.664535e-15
    endloop
  endfacet
  facet normal 0.000000e+00 -1.000000e+01 -0.000000e+00
    outer loop
      vertex   -7.932291e+01 2.693719e+01 4.000000e+00
      vertex   -8.432291e+01 2.693719e+01 4.000000e+00
      vertex   -7.932291e+01 2.693719e+01 2.664535e-15
    endloop
  endfacet
  facet normal 0.000000e+00 -6.246951e+00 -0.000000e+00
    outer loop
      vertex   -7.932291e+01 2.693719e+01 2.664535e-15
      vertex   -8.432291e+01 2.693719e+01 4.000000e+00
      vertex   -8.432291e+01 2.693719e+01 2.664535e-15
    endloop
  endfacet
  facet normal -1.000000e+01 0.000000e+00 -1.224647e-15
    outer loop
      vertex   -7.932291e+01 2.443719e+01 4.000000e+00
      vertex   -7.932291e+01 2.693719e+01 4.000000e+00
      vertex   -7.932291e+01 2.443719e+01 2.664535e-15
    endloop
  endfacet
  facet normal -8.479983e+00 0.000000e+00 -1.038498e-15
    outer loop
      vertex   -7.932291e+01 2.443719e+01 2.664535e-15
      vertex   -7.932291e+01 2.693719e+01 4.000000e+00
      vertex   -7.932291e+01 2.693719e+01 2.664535e-15
    endloop
  endfacet
  facet normal 0.000000e+00 -1.000000e+01 -0.000000e+00
    outer loop
      vertex   -7.662290e+01 2.443719e+01 4.000000e+00
      vertex   -7.932291e+01 2.443719e+01 4.000000e+00
      vertex   -7.662290e+01 2.443719e+01 3.552714e-15
    endloop
  endfacet
  facet normal 0.000000e+00 -8.288483e+00 -0.000000e+00
    outer loop
      vertex   -7.662290e+01 2.443719e+01 3.552714e-15
      vertex   -7.932291e+01 2.443719e+01 4.000000e+00
      vertex   -7.932291e+01 2.443719e+01 2.664535e-15
    endloop
  endfacet
  facet normal -1.000000e+01 0.000000e+00 -1.224647e-15
    outer loop
      vertex   -8.862290e+01 3.373719e+01 4.000000e+00
      vertex   -8.862290e+01 3.643719e+01 4.000000e+00
      vertex   -8.862290e+01 3.373719e+01 1.776357e-15
    endloop
  endfacet
  facet normal -8.288485e+00 0.000000e+00 -1.015047e-15
    outer loop
      vertex   -8.862290e+01 3.373719e+01 1.776357e-15
      vertex   -8.862290e+01 3.643719e+01 4.000000e+00
      vertex   -8.862290e+01 3.643719e+01 1.776357e-15
    endloop
  endfacet
  facet normal 0.000000e+00 -1.000000e+01 -0.000000e+00
    outer loop
      vertex   -8.612290e+01 3.373719e+01 4.000000e+00
      vertex   -8.862290e+01 3.373719e+01 4.000000e+00
      vertex   -8.612290e+01 3.373719e+01 1.776357e-15
    endloop
  endfacet
  facet normal 0.000000e+00 -8.479983e+00 -0.000000e+00
    outer loop
      vertex   -8.612290e+01 3.373719e+01 1.776357e-15
      vertex   -8.862290e+01 3.373719e+01 4.000000e+00
      vertex   -8.862290e+01 3.373719e+01 1.776357e-15
    endloop
  endfacet
  facet normal -1.000000e+01 0.000000e+00 -1.224647e-15
    outer loop
      vertex   -8.612290e+01 2.873719e+01 4.000000e+00
      vertex   -8.612290e+01 3.373719e+01 4.000000e+00
      vertex   -8.612290e+01 2.873719e+01 1.776357e-15
    endloop
  endfacet
  facet normal -6.246951e+00 0.000000e+00 -7.650308e-16
    outer loop
      vertex   -8.612290e+01 2.873719e+01 1.776357e-15
      vertex   -8.612290e+01 3.373719e+01 4.000000e+00
      vertex   -8.612290e+01 3.373719e+01 1.776357e-15
    endloop
  endfacet
  facet normal 0.000000e+00 1.000000e+01 0.000000e+00
    outer loop
      vertex   -9.712290e+01 2.873719e+01 4.000000e+00
      vertex   -8.612290e+01 2.873719e+01 4.000000e+00
      vertex   -9.712290e+01 2.873719e+01 8.881784e-16
    endloop
  endfacet
  facet normal 0.000000e+00 3.417430e+00 0.000000e+00
    outer loop
      vertex   -9.712290e+01 2.873719e+01 8.881784e-16
      vertex   -8.612290e+01 2.873719e+01 4.000000e+00
      vertex   -8.612290e+01 2.873719e+01 1.776357e-15
    endloop
  endfacet
  facet normal 1.000000e+01 0.000000e+00 1.224647e-15
    outer loop
      vertex   -9.712290e+01 3.373719e+01 4.000000e+00
      vertex   -9.712290e+01 2.873719e+01 4.000000e+00
      vertex   -9.712290e+01 3.373719e+01 8.881784e-16
    endloop
  endfacet
  facet normal 6.246951e+00 0.000000e+00 7.650308e-16
    outer loop
      vertex   -9.712290e+01 3.373719e+01 8.881784e-16
      vertex   -9.712290e+01 2.873719e+01 4.000000e+00
      vertex   -9.712290e+01 2.873719e+01 8.881784e-16
    endloop
  endfacet
  facet normal 0.000000e+00 -1.000000e+01 -0.000000e+00
    outer loop
      vertex   -9.462290e+01 3.373719e+01 4.000000e+00
      vertex   -9.712290e+01 3.373719e+01 4.000000e+00
      vertex   -9.462290e+01 3.373719e+01 8.881784e-16
    endloop
  endfacet
  facet normal 0.000000e+00 -8.479983e+00 -0.000000e+00
    outer loop
      vertex   -9.462290e+01 3.373719e+01 8.881784e-16
      vertex   -9.712290e+01 3.373719e+01 4.000000e+00
      vertex   -9.712290e+01 3.373719e+01 8.881784e-16
    endloop
  endfacet
  facet normal 1.000000e+01 0.000000e+00 1.224647e-15
    outer loop
      vertex   -9.462290e+01 3.643719e+01 4.000000e+00
      vertex   -9.462290e+01 3.373719e+01 4.000000e+00
      vertex   -9.462290e+01 3.643719e+01 8.881784e-16
    endloop
  endfacet
  facet normal 8.288485e+00 0.000000e+00 1.015047e-15
    outer loop
      vertex   -9.462290e+01 3.643719e+01 8.881784e-16
      vertex   -9.462290e+01 3.373719e+01 4.000000e+00
      vertex   -9.462290e+01 3.373719e+01 8.881784e-16
    endloop
  endfacet
endsolid
