solid ascii
  facet normal 0.000000e+00 -1.213713e-15 -9.910720e+00
    outer loop
      vertex   -1.739229e+02 2.890372e+02 1.776357e-15
      vertex   -1.739229e+02 2.765372e+02 2.664535e-15
      vertex   -1.962229e+02 2.860372e+02 1.776357e-15
    endloop
  endfacet
  facet normal 0.000000e+00 -1.177493e-15 -9.614961e+00
    outer loop
      vertex   -1.962229e+02 2.860372e+02 1.776357e-15
      vertex   -1.739229e+02 2.765372e+02 2.664535e-15
      vertex   -2.039229e+02 2.765372e+02 2.664535e-15
    endloop
  endfacet
  facet normal 0.000000e+00 -9.513839e-16 -7.768640e+00
    outer loop
      vertex   -1.962229e+02 2.860372e+02 1.776357e-15
      vertex   -2.039229e+02 2.765372e+02 2.664535e-15
      vertex   -2.012229e+02 2.860372e+02 1.776357e-15
    endloop
  endfacet
  facet normal 0.000000e+00 -1.091831e-15 -8.915476e+00
    outer loop
      vertex   -2.012229e+02 2.860372e+02 1.776357e-15
      vertex   -2.039229e+02 2.765372e+02 2.664535e-15
      vertex   -2.039229e+02 2.885372e+02 1.776357e-15
    endloop
  endfacet
  facet normal 0.000000e+00 -8.985984e-16 -7.337613e+00
    outer loop
      vertex   -2.012229e+02 2.860372e+02 1.776357e-15
      vertex   -2.039229e+02 2.885372e+02 1.776357e-15
      vertex   -2.012229e+02 2.885372e+02 1.776357e-15
    endloop
  endfacet
  facet normal 0.000000e+00 -1.213713e-15 -9.910720e+00
    outer loop
      vertex   -1.962229e+02 2.860372e+02 1.776357e-15
      vertex   -1.962229e+02 2.970372e+02 0.000000e+00
      vertex   -1.739229e+02 2.890372e+02 1.776357e-15
    endloop
  endfacet
  facet normal 0.000000e+00 -1.152715e-15 -9.412633e+00
    outer loop
      vertex   -1.739229e+02 2.890372e+02 1.776357e-15
      vertex   -1.962229e+02 2.970372e+02 0.000000e+00
      vertex   -1.739229e+02 2.940372e+02 8.881784e-16
    endloop
  endfacet
  facet normal 0.000000e+00 -7.022894e-16 -5.734628e+00
    outer loop
      vertex   -1.739229e+02 2.890372e+02 1.776357e-15
      vertex   -1.739229e+02 2.940372e+02 8.881784e-16
      vertex   -1.704229e+02 2.940372e+02 8.881784e-16
    endloop
  endfacet
  facet normal 0.000000e+00 -1.177994e-15 -9.619049e+00
    outer loop
      vertex   -2.012229e+02 2.970372e+02 0.000000e+00
      vertex   -2.039229e+02 3.065372e+02 -8.881784e-16
      vertex   -1.962229e+02 2.970372e+02 0.000000e+00
    endloop
  endfacet
  facet normal 0.000000e+00 -1.117301e-15 -9.123455e+00
    outer loop
      vertex   -1.962229e+02 2.970372e+02 0.000000e+00
      vertex   -2.039229e+02 3.065372e+02 -8.881784e-16
      vertex   -1.914229e+02 3.065372e+02 -8.881784e-16
    endloop
  endfacet
  facet normal 0.000000e+00 -4.004186e-16 -3.269666e+00
    outer loop
      vertex   -1.962229e+02 2.970372e+02 0.000000e+00
      vertex   -1.914229e+02 3.065372e+02 -8.881784e-16
      vertex   -1.864229e+02 3.065372e+02 -8.881784e-16
    endloop
  endfacet
  facet normal 0.000000e+00 -1.224647e-15 -1.000000e+01
    outer loop
      vertex   -1.864229e+02 3.065372e+02 -8.881784e-16
      vertex   -1.914229e+02 3.065372e+02 -8.881784e-16
      vertex   -1.864229e+02 3.100372e+02 -8.881784e-16
    endloop
  endfacet
  facet normal 0.000000e+00 -7.022894e-16 -5.734628e+00
    outer loop
      vertex   -1.864229e+02 3.100372e+02 -8.881784e-16
      vertex   -1.914229e+02 3.065372e+02 -8.881784e-16
      vertex   -1.914229e+02 3.100372e+02 -8.881784e-16
    endloop
  endfacet
  facet normal 0.000000e+00 -1.038498e-15 -8.479980e+00
    outer loop
      vertex   -1.864229e+02 3.100372e+02 -8.881784e-16
      vertex   -1.914229e+02 3.100372e+02 -8.881784e-16
      vertex   -1.839229e+02 3.140372e+02 -1.776357e-15
    endloop
  endfacet
  facet normal 0.000000e+00 -5.763040e-16 -4.705879e+00
    outer loop
      vertex   -1.839229e+02 3.140372e+02 -1.776357e-15
      vertex   -1.914229e+02 3.100372e+02 -8.881784e-16
      vertex   -1.939229e+02 3.140372e+02 -1.776357e-15
    endloop
  endfacet
  facet normal 0.000000e+00 -6.490620e-16 -5.299993e+00
    outer loop
      vertex   -1.939229e+02 3.140372e+02 -1.776357e-15
      vertex   -1.914229e+02 3.100372e+02 -8.881784e-16
      vertex   -1.939229e+02 3.100372e+02 -8.881784e-16
    endloop
  endfacet
  facet normal 0.000000e+00 -1.224647e-15 -1.000000e+01
    outer loop
      vertex   -2.012229e+02 2.945372e+02 8.881784e-16
      vertex   -2.039229e+02 2.945372e+02 8.881784e-16
      vertex   -2.012229e+02 2.970372e+02 0.000000e+00
    endloop
  endfacet
  facet normal 0.000000e+00 -1.091831e-15 -8.915479e+00
    outer loop
      vertex   -2.012229e+02 2.970372e+02 0.000000e+00
      vertex   -2.039229e+02 2.945372e+02 8.881784e-16
      vertex   -2.039229e+02 3.065372e+02 -8.881784e-16
    endloop
  endfacet
  facet normal 0.000000e+00 -6.490620e-16 -5.299993e+00
    outer loop
      vertex   -1.839229e+02 3.140372e+02 -1.776357e-15
      vertex   -1.839229e+02 3.100372e+02 -8.881784e-16
      vertex   -1.864229e+02 3.100372e+02 -8.881784e-16
    endloop
  endfacet
  facet normal 0.000000e+00 -1.224647e-15 -1.000000e+01
    outer loop
      vertex   -1.739229e+02 3.065372e+02 -8.881784e-16
      vertex   -1.739229e+02 2.940372e+02 8.881784e-16
      vertex   -1.864229e+02 3.065372e+02 -8.881784e-16
    endloop
  endfacet
  facet normal 0.000000e+00 -1.224499e-15 -9.998792e+00
    outer loop
      vertex   -1.864229e+02 3.065372e+02 -8.881784e-16
      vertex   -1.739229e+02 2.940372e+02 8.881784e-16
      vertex   -1.962229e+02 2.970372e+02 0.000000e+00
    endloop
  endfacet
  facet normal 0.000000e+00 -1.224647e-15 -1.000000e+01
    outer loop
      vertex   -1.704229e+02 2.965372e+02 8.881784e-16
      vertex   -1.664229e+02 2.965372e+02 8.881784e-16
      vertex   -1.704229e+02 2.940372e+02 8.881784e-16
    endloop
  endfacet
  facet normal 0.000000e+00 -1.038498e-15 -8.479980e+00
    outer loop
      vertex   -1.704229e+02 2.940372e+02 8.881784e-16
      vertex   -1.664229e+02 2.965372e+02 8.881784e-16
      vertex   -1.704229e+02 2.890372e+02 1.776357e-15
    endloop
  endfacet
  facet normal 0.000000e+00 -7.022894e-16 -5.734628e+00
    outer loop
      vertex   -1.704229e+02 2.940372e+02 8.881784e-16
      vertex   -1.704229e+02 2.890372e+02 1.776357e-15
      vertex   -1.739229e+02 2.890372e+02 1.776357e-15
    endloop
  endfacet
  facet normal 0.000000e+00 -5.763040e-16 -4.705879e+00
    outer loop
      vertex   -1.664229e+02 2.965372e+02 8.881784e-16
      vertex   -1.664229e+02 2.865372e+02 1.776357e-15
      vertex   -1.704229e+02 2.890372e+02 1.776357e-15
    endloop
  endfacet
  facet normal 0.000000e+00 -1.038498e-15 -8.479980e+00
    outer loop
      vertex   -1.704229e+02 2.890372e+02 1.776357e-15
      vertex   -1.664229e+02 2.865372e+02 1.776357e-15
      vertex   -1.704229e+02 2.865372e+02 1.776357e-15
    endloop
  endfacet
  facet normal 0.000000e+00 -1.224647e-15 -1.000000e+01
    outer loop
      vertex   -2.039229e+02 2.945372e+02 4.000000e+00
      vertex   -2.012229e+02 2.945372e+02 4.000000e+00
      vertex   -2.039229e+02 2.885372e+02 4.000000e+00
    endloop
  endfacet
  facet normal 0.000000e+00 -1.116781e-15 -9.119213e+00
    outer loop
      vertex   -2.039229e+02 2.885372e+02 4.000000e+00
      vertex   -2.012229e+02 2.945372e+02 4.000000e+00
      vertex   -2.012229e+02 2.885372e+02 4.000000e+00
    endloop
  endfacet
  facet normal 0.000000e+00 -6.209204e-16 -5.070199e+00
    outer loop
      vertex   -2.012229e+02 2.885372e+02 4.000000e+00
      vertex   -2.012229e+02 2.945372e+02 4.000000e+00
      vertex   -1.962229e+02 2.970372e+02 4.000000e+00
    endloop
  endfacet
  facet normal 0.000000e+00 -1.221810e-15 -9.976837e+00
    outer loop
      vertex   -2.012229e+02 2.885372e+02 4.000000e+00
      vertex   -1.962229e+02 2.970372e+02 4.000000e+00
      vertex   -1.962229e+02 2.860372e+02 4.000000e+00
    endloop
  endfacet
  facet normal 0.000000e+00 -1.095357e-15 -8.944272e+00
    outer loop
      vertex   -2.012229e+02 2.945372e+02 4.000000e+00
      vertex   -2.012229e+02 2.970372e+02 4.000000e+00
      vertex   -1.962229e+02 2.970372e+02 4.000000e+00
    endloop
  endfacet
  facet normal 0.000000e+00 -5.476787e-16 -4.472136e+00
    outer loop
      vertex   -1.962229e+02 2.860372e+02 4.000000e+00
      vertex   -2.012229e+02 2.860372e+02 4.000000e+00
      vertex   -2.012229e+02 2.885372e+02 4.000000e+00
    endloop
  endfacet
  facet normal 0.000000e+00 1.224647e-15 1.000000e+01
    outer loop
      vertex   -2.039229e+02 2.765372e+02 6.000000e+00
      vertex   -1.739229e+02 2.765372e+02 6.000000e+00
      vertex   -2.039229e+02 3.065372e+02 6.000000e+00
    endloop
  endfacet
  facet normal 0.000000e+00 8.659560e-16 7.071068e+00
    outer loop
      vertex   -2.039229e+02 3.065372e+02 6.000000e+00
      vertex   -1.739229e+02 2.765372e+02 6.000000e+00
      vertex   -1.739229e+02 3.065372e+02 6.000000e+00
    endloop
  endfacet
  facet normal 0.000000e+00 1.224647e-15 1.000000e+01
    outer loop
      vertex   -1.739229e+02 2.890372e+02 3.000000e+00
      vertex   -1.704229e+02 2.890372e+02 3.000000e+00
      vertex   -1.739229e+02 2.940372e+02 3.000000e+00
    endloop
  endfacet
  facet normal 0.000000e+00 1.003269e-15 8.192316e+00
    outer loop
      vertex   -1.739229e+02 2.940372e+02 3.000000e+00
      vertex   -1.704229e+02 2.890372e+02 3.000000e+00
      vertex   -1.704229e+02 2.940372e+02 3.000000e+00
    endloop
  endfacet
  facet normal 0.000000e+00 1.038498e-15 8.479980e+00
    outer loop
      vertex   -1.704229e+02 2.940372e+02 3.000000e+00
      vertex   -1.704229e+02 2.890372e+02 3.000000e+00
      vertex   -1.664229e+02 2.965372e+02 3.000000e+00
    endloop
  endfacet
  facet normal 0.000000e+00 1.038498e-15 8.479980e+00
    outer loop
      vertex   -1.704229e+02 2.940372e+02 3.000000e+00
      vertex   -1.664229e+02 2.965372e+02 3.000000e+00
      vertex   -1.704229e+02 2.965372e+02 3.000000e+00
    endloop
  endfacet
  facet normal 0.000000e+00 1.224647e-15 1.000000e+01
    outer loop
      vertex   -1.704229e+02 2.865372e+02 3.000000e+00
      vertex   -1.664229e+02 2.865372e+02 3.000000e+00
      vertex   -1.704229e+02 2.890372e+02 3.000000e+00
    endloop
  endfacet
  facet normal 0.000000e+00 1.221763e-15 9.976450e+00
    outer loop
      vertex   -1.704229e+02 2.890372e+02 3.000000e+00
      vertex   -1.664229e+02 2.865372e+02 3.000000e+00
      vertex   -1.664229e+02 2.965372e+02 3.000000e+00
    endloop
  endfacet
  facet normal 0.000000e+00 -1.000000e+01 1.224647e-15
    outer loop
      vertex   -2.039229e+02 2.765372e+02 2.664535e-15
      vertex   -1.739229e+02 2.765372e+02 2.664535e-15
      vertex   -2.039229e+02 2.765372e+02 6.000000e+00
    endloop
  endfacet
  facet normal 0.000000e+00 -1.961161e+00 2.401730e-16
    outer loop
      vertex   -2.039229e+02 2.765372e+02 6.000000e+00
      vertex   -1.739229e+02 2.765372e+02 2.664535e-15
      vertex   -1.739229e+02 2.765372e+02 6.000000e+00
    endloop
  endfacet
  facet normal 0.000000e+00 -1.000000e+01 1.224647e-15
    outer loop
      vertex   -1.704229e+02 2.890372e+02 3.000000e+00
      vertex   -1.739229e+02 2.890372e+02 3.000000e+00
      vertex   -1.704229e+02 2.890372e+02 1.776357e-15
    endloop
  endfacet
  facet normal 0.000000e+00 -6.507910e+00 7.969891e-16
    outer loop
      vertex   -1.704229e+02 2.890372e+02 1.776357e-15
      vertex   -1.739229e+02 2.890372e+02 3.000000e+00
      vertex   -1.739229e+02 2.890372e+02 1.776357e-15
    endloop
  endfacet
  facet normal -1.000000e+01 -0.000000e+00 0.000000e+00
    outer loop
      vertex   -1.704229e+02 2.865372e+02 3.000000e+00
      vertex   -1.704229e+02 2.890372e+02 3.000000e+00
      vertex   -1.704229e+02 2.865372e+02 1.776357e-15
    endloop
  endfacet
  facet normal -7.682213e+00 0.000000e+00 -0.000000e+00
    outer loop
      vertex   -1.704229e+02 2.865372e+02 1.776357e-15
      vertex   -1.704229e+02 2.890372e+02 3.000000e+00
      vertex   -1.704229e+02 2.890372e+02 1.776357e-15
    endloop
  endfacet
  facet normal 0.000000e+00 -1.000000e+01 1.224647e-15
    outer loop
      vertex   -1.664229e+02 2.865372e+02 3.000000e+00
      vertex   -1.704229e+02 2.865372e+02 3.000000e+00
      vertex   -1.664229e+02 2.865372e+02 1.776357e-15
    endloop
  endfacet
  facet normal 0.000000e+00 -6.000004e+00 7.347885e-16
    outer loop
      vertex   -1.664229e+02 2.865372e+02 1.776357e-15
      vertex   -1.704229e+02 2.865372e+02 3.000000e+00
      vertex   -1.704229e+02 2.865372e+02 1.776357e-15
    endloop
  endfacet
  facet normal 1.000000e+01 0.000000e+00 0.000000e+00
    outer loop
      vertex   -1.664229e+02 2.965372e+02 3.000000e+00
      vertex   -1.664229e+02 2.865372e+02 3.000000e+00
      vertex   -1.664229e+02 2.965372e+02 8.881784e-16
    endloop
  endfacet
  facet normal 2.873479e+00 0.000000e+00 0.000000e+00
    outer loop
      vertex   -1.664229e+02 2.965372e+02 8.881784e-16
      vertex   -1.664229e+02 2.865372e+02 3.000000e+00
      vertex   -1.664229e+02 2.865372e+02 1.776357e-15
    endloop
  endfacet
  facet normal 0.000000e+00 1.000000e+01 -1.224647e-15
    outer loop
      vertex   -1.704229e+02 2.965372e+02 3.000000e+00
      vertex   -1.664229e+02 2.965372e+02 3.000000e+00
      vertex   -1.704229e+02 2.965372e+02 8.881784e-16
    endloop
  endfacet
  facet normal 0.000000e+00 6.000004e+00 -7.347885e-16
    outer loop
      vertex   -1.704229e+02 2.965372e+02 8.881784e-16
      vertex   -1.664229e+02 2.965372e+02 3.000000e+00
      vertex   -1.664229e+02 2.965372e+02 8.881784e-16
    endloop
  endfacet
  facet normal -1.000000e+01 -0.000000e+00 0.000000e+00
    outer loop
      vertex   -1.704229e+02 2.940372e+02 3.000000e+00
      vertex   -1.704229e+02 2.965372e+02 3.000000e+00
      vertex   -1.704229e+02 2.940372e+02 8.881784e-16
    endloop
  endfacet
  facet normal -7.682213e+00 0.000000e+00 -0.000000e+00
    outer loop
      vertex   -1.704229e+02 2.940372e+02 8.881784e-16
      vertex   -1.704229e+02 2.965372e+02 3.000000e+00
      vertex   -1.704229e+02 2.965372e+02 8.881784e-16
    endloop
  endfacet
  facet normal 0.000000e+00 1.000000e+01 -1.224647e-15
    outer loop
      vertex   -1.739229e+02 2.940372e+02 3.000000e+00
      vertex   -1.704229e+02 2.940372e+02 3.000000e+00
      vertex   -1.739229e+02 2.940372e+02 8.881784e-16
    endloop
  endfacet
  facet normal 0.000000e+00 6.507910e+00 -7.969891e-16
    outer loop
      vertex   -1.739229e+02 2.940372e+02 8.881784e-16
      vertex   -1.704229e+02 2.940372e+02 3.000000e+00
      vertex   -1.704229e+02 2.940372e+02 8.881784e-16
    endloop
  endfacet
  facet normal 1.000000e+01 0.000000e+00 0.000000e+00
    outer loop
      vertex   -1.739229e+02 2.940372e+02 8.881784e-16
      vertex   -1.739229e+02 3.065372e+02 -8.881784e-16
      vertex   -1.739229e+02 2.940372e+02 3.000000e+00
    endloop
  endfacet
  facet normal 4.538578e+00 0.000000e+00 0.000000e+00
    outer loop
      vertex   -1.739229e+02 2.940372e+02 3.000000e+00
      vertex   -1.739229e+02 3.065372e+02 -8.881784e-16
      vertex   -1.739229e+02 3.065372e+02 6.000000e+00
    endloop
  endfacet
  facet normal 3.943159e+00 0.000000e+00 0.000000e+00
    outer loop
      vertex   -1.739229e+02 2.940372e+02 3.000000e+00
      vertex   -1.739229e+02 3.065372e+02 6.000000e+00
      vertex   -1.739229e+02 2.765372e+02 6.000000e+00
    endloop
  endfacet
  facet normal 1.689638e+00 0.000000e+00 0.000000e+00
    outer loop
      vertex   -1.739229e+02 2.940372e+02 3.000000e+00
      vertex   -1.739229e+02 2.765372e+02 6.000000e+00
      vertex   -1.739229e+02 2.890372e+02 3.000000e+00
    endloop
  endfacet
  facet normal 4.538578e+00 0.000000e+00 0.000000e+00
    outer loop
      vertex   -1.739229e+02 2.890372e+02 3.000000e+00
      vertex   -1.739229e+02 2.765372e+02 6.000000e+00
      vertex   -1.739229e+02 2.765372e+02 2.664535e-15
    endloop
  endfacet
  facet normal 9.723873e+00 0.000000e+00 0.000000e+00
    outer loop
      vertex   -1.739229e+02 2.890372e+02 3.000000e+00
      vertex   -1.739229e+02 2.765372e+02 2.664535e-15
      vertex   -1.739229e+02 2.890372e+02 1.776357e-15
    endloop
  endfacet
  facet normal 0.000000e+00 9.723873e+00 -1.190831e-15
    outer loop
      vertex   -1.739229e+02 3.065372e+02 -8.881784e-16
      vertex   -1.864229e+02 3.065372e+02 3.000000e+00
      vertex   -1.739229e+02 3.065372e+02 6.000000e+00
    endloop
  endfacet
  facet normal 0.000000e+00 6.571931e-01 -8.048294e-17
    outer loop
      vertex   -1.739229e+02 3.065372e+02 6.000000e+00
      vertex   -1.864229e+02 3.065372e+02 3.000000e+00
      vertex   -1.914229e+02 3.065372e+02 3.000000e+00
    endloop
  endfacet
  facet normal 0.000000e+00 1.689638e+00 -2.069210e-16
    outer loop
      vertex   -1.739229e+02 3.065372e+02 6.000000e+00
      vertex   -1.914229e+02 3.065372e+02 3.000000e+00
      vertex   -2.039229e+02 3.065372e+02 6.000000e+00
    endloop
  endfacet
  facet normal 0.000000e+00 9.723873e+00 -1.190831e-15
    outer loop
      vertex   -2.039229e+02 3.065372e+02 6.000000e+00
      vertex   -1.914229e+02 3.065372e+02 3.000000e+00
      vertex   -2.039229e+02 3.065372e+02 -8.881784e-16
    endloop
  endfacet
  facet normal 0.000000e+00 2.333730e+00 -2.857995e-16
    outer loop
      vertex   -2.039229e+02 3.065372e+02 -8.881784e-16
      vertex   -1.914229e+02 3.065372e+02 3.000000e+00
      vertex   -1.914229e+02 3.065372e+02 -8.881784e-16
    endloop
  endfacet
  facet normal 0.000000e+00 2.333730e+00 -2.857995e-16
    outer loop
      vertex   -1.739229e+02 3.065372e+02 -8.881784e-16
      vertex   -1.864229e+02 3.065372e+02 -8.881784e-16
      vertex   -1.864229e+02 3.065372e+02 3.000000e+00
    endloop
  endfacet
  facet normal 1.000000e+01 0.000000e+00 0.000000e+00
    outer loop
      vertex   -1.864229e+02 3.100372e+02 3.000000e+00
      vertex   -1.864229e+02 3.065372e+02 3.000000e+00
      vertex   -1.864229e+02 3.100372e+02 -8.881784e-16
    endloop
  endfacet
  facet normal 6.507910e+00 0.000000e+00 0.000000e+00
    outer loop
      vertex   -1.864229e+02 3.100372e+02 -8.881784e-16
      vertex   -1.864229e+02 3.065372e+02 3.000000e+00
      vertex   -1.864229e+02 3.065372e+02 -8.881784e-16
    endloop
  endfacet
  facet normal 0.000000e+00 -1.000000e+01 1.224647e-15
    outer loop
      vertex   -1.839229e+02 3.100372e+02 3.000000e+00
      vertex   -1.864229e+02 3.100372e+02 3.000000e+00
      vertex   -1.839229e+02 3.100372e+02 -8.881784e-16
    endloop
  endfacet
  facet normal 0.000000e+00 -7.682213e+00 9.407998e-16
    outer loop
      vertex   -1.839229e+02 3.100372e+02 -8.881784e-16
      vertex   -1.864229e+02 3.100372e+02 3.000000e+00
      vertex   -1.864229e+02 3.100372e+02 -8.881784e-16
    endloop
  endfacet
  facet normal 1.000000e+01 0.000000e+00 0.000000e+00
    outer loop
      vertex   -1.839229e+02 3.140372e+02 3.000000e+00
      vertex   -1.839229e+02 3.100372e+02 3.000000e+00
      vertex   -1.839229e+02 3.140372e+02 -1.776357e-15
    endloop
  endfacet
  facet normal 6.000004e+00 0.000000e+00 0.000000e+00
    outer loop
      vertex   -1.839229e+02 3.140372e+02 -1.776357e-15
      vertex   -1.839229e+02 3.100372e+02 3.000000e+00
      vertex   -1.839229e+02 3.100372e+02 -8.881784e-16
    endloop
  endfacet
  facet normal 0.000000e+00 1.000000e+01 -1.224647e-15
    outer loop
      vertex   -1.939229e+02 3.140372e+02 3.000000e+00
      vertex   -1.839229e+02 3.140372e+02 3.000000e+00
      vertex   -1.939229e+02 3.140372e+02 -1.776357e-15
    endloop
  endfacet
  facet normal 0.000000e+00 2.873479e+00 -3.518997e-16
    outer loop
      vertex   -1.939229e+02 3.140372e+02 -1.776357e-15
      vertex   -1.839229e+02 3.140372e+02 3.000000e+00
      vertex   -1.839229e+02 3.140372e+02 -1.776357e-15
    endloop
  endfacet
  facet normal -1.000000e+01 -0.000000e+00 0.000000e+00
    outer loop
      vertex   -1.939229e+02 3.100372e+02 3.000000e+00
      vertex   -1.939229e+02 3.140372e+02 3.000000e+00
      vertex   -1.939229e+02 3.100372e+02 -8.881784e-16
    endloop
  endfacet
  facet normal -6.000004e+00 0.000000e+00 -0.000000e+00
    outer loop
      vertex   -1.939229e+02 3.100372e+02 -8.881784e-16
      vertex   -1.939229e+02 3.140372e+02 3.000000e+00
      vertex   -1.939229e+02 3.140372e+02 -1.776357e-15
    endloop
  endfacet
  facet normal 0.000000e+00 -1.000000e+01 1.224647e-15
    outer loop
      vertex   -1.914229e+02 3.100372e+02 3.000000e+00
      vertex   -1.939229e+02 3.100372e+02 3.000000e+00
      vertex   -1.914229e+02 3.100372e+02 -8.881784e-16
    endloop
  endfacet
  facet normal 0.000000e+00 -7.682213e+00 9.407998e-16
    outer loop
      vertex   -1.914229e+02 3.100372e+02 -8.881784e-16
      vertex   -1.939229e+02 3.100372e+02 3.000000e+00
      vertex   -1.939229e+02 3.100372e+02 -8.881784e-16
    endloop
  endfacet
  facet normal -1.000000e+01 -0.000000e+00 0.000000e+00
    outer loop
      vertex   -1.914229e+02 3.065372e+02 3.000000e+00
      vertex   -1.914229e+02 3.100372e+02 3.000000e+00
      vertex   -1.914229e+02 3.065372e+02 -8.881784e-16
    endloop
  endfacet
  facet normal -6.507910e+00 0.000000e+00 -0.000000e+00
    outer loop
      vertex   -1.914229e+02 3.065372e+02 -8.881784e-16
      vertex   -1.914229e+02 3.100372e+02 3.000000e+00
      vertex   -1.914229e+02 3.100372e+02 -8.881784e-16
    endloop
  endfacet
  facet normal -9.486832e+00 -0.000000e+00 0.000000e+00
    outer loop
      vertex   -2.039229e+02 3.065372e+02 -8.881784e-16
      vertex   -2.039229e+02 2.945372e+02 4.000000e+00
      vertex   -2.039229e+02 3.065372e+02 6.000000e+00
    endloop
  endfacet
  facet normal -5.446460e-01 -0.000000e+00 0.000000e+00
    outer loop
      vertex   -2.039229e+02 3.065372e+02 6.000000e+00
      vertex   -2.039229e+02 2.945372e+02 4.000000e+00
      vertex   -2.039229e+02 2.885372e+02 4.000000e+00
    endloop
  endfacet
  facet normal -1.104316e+00 -0.000000e+00 0.000000e+00
    outer loop
      vertex   -2.039229e+02 3.065372e+02 6.000000e+00
      vertex   -2.039229e+02 2.885372e+02 4.000000e+00
      vertex   -2.039229e+02 2.765372e+02 6.000000e+00
    endloop
  endfacet
  facet normal -9.863939e+00 -0.000000e+00 0.000000e+00
    outer loop
      vertex   -2.039229e+02 2.765372e+02 6.000000e+00
      vertex   -2.039229e+02 2.885372e+02 4.000000e+00
      vertex   -2.039229e+02 2.765372e+02 2.664535e-15
    endloop
  endfacet
  facet normal -3.162276e+00 0.000000e+00 -0.000000e+00
    outer loop
      vertex   -2.039229e+02 2.765372e+02 2.664535e-15
      vertex   -2.039229e+02 2.885372e+02 4.000000e+00
      vertex   -2.039229e+02 2.885372e+02 1.776357e-15
    endloop
  endfacet
  facet normal -3.162281e+00 -0.000000e+00 0.000000e+00
    outer loop
      vertex   -2.039229e+02 3.065372e+02 -8.881784e-16
      vertex   -2.039229e+02 2.945372e+02 8.881784e-16
      vertex   -2.039229e+02 2.945372e+02 4.000000e+00
    endloop
  endfacet
  facet normal 0.000000e+00 -1.000000e+01 1.224647e-15
    outer loop
      vertex   -2.012229e+02 2.945372e+02 4.000000e+00
      vertex   -2.039229e+02 2.945372e+02 4.000000e+00
      vertex   -2.012229e+02 2.945372e+02 8.881784e-16
    endloop
  endfacet
  facet normal 0.000000e+00 -8.288483e+00 1.015046e-15
    outer loop
      vertex   -2.012229e+02 2.945372e+02 8.881784e-16
      vertex   -2.039229e+02 2.945372e+02 4.000000e+00
      vertex   -2.039229e+02 2.945372e+02 8.881784e-16
    endloop
  endfacet
  facet normal 1.000000e+01 0.000000e+00 0.000000e+00
    outer loop
      vertex   -2.012229e+02 2.970372e+02 4.000000e+00
      vertex   -2.012229e+02 2.945372e+02 4.000000e+00
      vertex   -2.012229e+02 2.970372e+02 0.000000e+00
    endloop
  endfacet
  facet normal 8.479983e+00 0.000000e+00 0.000000e+00
    outer loop
      vertex   -2.012229e+02 2.970372e+02 0.000000e+00
      vertex   -2.012229e+02 2.945372e+02 4.000000e+00
      vertex   -2.012229e+02 2.945372e+02 8.881784e-16
    endloop
  endfacet
  facet normal 0.000000e+00 -1.000000e+01 1.224647e-15
    outer loop
      vertex   -1.962229e+02 2.970372e+02 4.000000e+00
      vertex   -2.012229e+02 2.970372e+02 4.000000e+00
      vertex   -1.962229e+02 2.970372e+02 0.000000e+00
    endloop
  endfacet
  facet normal 0.000000e+00 -6.246951e+00 7.650308e-16
    outer loop
      vertex   -1.962229e+02 2.970372e+02 0.000000e+00
      vertex   -2.012229e+02 2.970372e+02 4.000000e+00
      vertex   -2.012229e+02 2.970372e+02 0.000000e+00
    endloop
  endfacet
  facet normal -1.000000e+01 -0.000000e+00 0.000000e+00
    outer loop
      vertex   -1.962229e+02 2.860372e+02 4.000000e+00
      vertex   -1.962229e+02 2.970372e+02 4.000000e+00
      vertex   -1.962229e+02 2.860372e+02 1.776357e-15
    endloop
  endfacet
  facet normal -3.417430e+00 0.000000e+00 -0.000000e+00
    outer loop
      vertex   -1.962229e+02 2.860372e+02 1.776357e-15
      vertex   -1.962229e+02 2.970372e+02 4.000000e+00
      vertex   -1.962229e+02 2.970372e+02 0.000000e+00
    endloop
  endfacet
  facet normal 0.000000e+00 1.000000e+01 -1.224647e-15
    outer loop
      vertex   -2.012229e+02 2.860372e+02 4.000000e+00
      vertex   -1.962229e+02 2.860372e+02 4.000000e+00
      vertex   -2.012229e+02 2.860372e+02 1.776357e-15
    endloop
  endfacet
  facet normal 0.000000e+00 6.246951e+00 -7.650308e-16
    outer loop
      vertex   -2.012229e+02 2.860372e+02 1.776357e-15
      vertex   -1.962229e+02 2.860372e+02 4.000000e+00
      vertex   -1.962229e+02 2.860372e+02 1.776357e-15
    endloop
  endfacet
  facet normal 1.000000e+01 0.000000e+00 0.000000e+00
    outer loop
      vertex   -2.012229e+02 2.885372e+02 4.000000e+00
      vertex   -2.012229e+02 2.860372e+02 4.000000e+00
      vertex   -2.012229e+02 2.885372e+02 1.776357e-15
    endloop
  endfacet
  facet normal 8.479983e+00 0.000000e+00 0.000000e+00
    outer loop
      vertex   -2.012229e+02 2.885372e+02 1.776357e-15
      vertex   -2.012229e+02 2.860372e+02 4.000000e+00
      vertex   -2.012229e+02 2.860372e+02 1.776357e-15
    endloop
  endfacet
  facet normal 0.000000e+00 1.000000e+01 -1.224647e-15
    outer loop
      vertex   -2.039229e+02 2.885372e+02 4.000000e+00
      vertex   -2.012229e+02 2.885372e+02 4.000000e+00
      vertex   -2.039229e+02 2.885372e+02 1.776357e-15
    endloop
  endfacet
  facet normal 0.000000e+00 8.288483e+00 -1.015046e-15
    outer loop
      vertex   -2.039229e+02 2.885372e+02 1.776357e-15
      vertex   -2.012229e+02 2.885372e+02 4.000000e+00
      vertex   -2.012229e+02 2.885372e+02 1.776357e-15
    endloop
  endfacet
  facet normal 0.000000e+00 1.224647e-15 1.000000e+01
    outer loop
      vertex   -1.914229e+02 3.065372e+02 3.000000e+00
      vertex   -1.864229e+02 3.065372e+02 3.000000e+00
      vertex   -1.914229e+02 3.100372e+02 3.000000e+00
    endloop
  endfacet
  facet normal 0.000000e+00 7.022894e-16 5.734628e+00
    outer loop
      vertex   -1.914229e+02 3.100372e+02 3.000000e+00
      vertex   -1.864229e+02 3.065372e+02 3.000000e+00
      vertex   -1.864229e+02 3.100372e+02 3.000000e+00
    endloop
  endfacet
  facet normal 0.000000e+00 1.038498e-15 8.479980e+00
    outer loop
      vertex   -1.914229e+02 3.100372e+02 3.000000e+00
      vertex   -1.864229e+02 3.100372e+02 3.000000e+00
      vertex   -1.939229e+02 3.140372e+02 3.000000e+00
    endloop
  endfacet
  facet normal 0.000000e+00 5.763040e-16 4.705879e+00
    outer loop
      vertex   -1.939229e+02 3.140372e+02 3.000000e+00
      vertex   -1.864229e+02 3.100372e+02 3.000000e+00
      vertex   -1.839229e+02 3.140372e+02 3.000000e+00
    endloop
  endfacet
  facet normal 0.000000e+00 6.490620e-16 5.299993e+00
    outer loop
      vertex   -1.839229e+02 3.140372e+02 3.000000e+00
      vertex   -1.864229e+02 3.100372e+02 3.000000e+00
      vertex   -1.839229e+02 3.100372e+02 3.000000e+00
    endloop
  endfacet
  facet normal 0.000000e+00 6.490620e-16 5.299993e+00
    outer loop
      vertex   -1.939229e+02 3.140372e+02 3.000000e+00
      vertex   -1.939229e+02 3.100372e+02 3.000000e+00
      vertex   -1.914229e+02 3.100372e+02 3.000000e+00
    endloop
  endfacet
endsolid
