solid ascii
  facet normal 0.000000e+00 -1.224647e-15 -1.000000e+01
    outer loop
      vertex   -2.789044e+02 6.127522e+01 4.000000e+00
      vertex   -2.849044e+02 6.127522e+01 4.000000e+00
      vertex   -2.789044e+02 6.397520e+01 4.000000e+00
    endloop
  endfacet
  facet normal 0.000000e+00 -5.025506e-16 -4.103637e+00
    outer loop
      vertex   -2.789044e+02 6.397520e+01 4.000000e+00
      vertex   -2.849044e+02 6.127522e+01 4.000000e+00
      vertex   -2.849044e+02 6.397520e+01 4.000000e+00
    endloop
  endfacet
  facet normal 0.000000e+00 -1.095357e-15 -8.944272e+00
    outer loop
      vertex   -2.789044e+02 6.397520e+01 4.000000e+00
      vertex   -2.849044e+02 6.397520e+01 4.000000e+00
      vertex   -2.764044e+02 6.897520e+01 4.000000e+00
    endloop
  endfacet
  facet normal 0.000000e+00 -6.209214e-16 -5.070209e+00
    outer loop
      vertex   -2.764044e+02 6.897520e+01 4.000000e+00
      vertex   -2.849044e+02 6.397520e+01 4.000000e+00
      vertex   -2.874044e+02 6.897520e+01 4.000000e+00
    endloop
  endfacet
  facet normal 0.000000e+00 -5.476787e-16 -4.472136e+00
    outer loop
      vertex   -2.874044e+02 6.897520e+01 4.000000e+00
      vertex   -2.849044e+02 6.397520e+01 4.000000e+00
      vertex   -2.874044e+02 6.397520e+01 4.000000e+00
    endloop
  endfacet
  facet normal 0.000000e+00 -5.476787e-16 -4.472136e+00
    outer loop
      vertex   -2.764044e+02 6.897520e+01 4.000000e+00
      vertex   -2.764044e+02 6.397520e+01 4.000000e+00
      vertex   -2.789044e+02 6.397520e+01 4.000000e+00
    endloop
  endfacet
  facet normal 0.000000e+00 -4.799719e-16 -3.919268e+00
    outer loop
      vertex   -2.969044e+02 9.127522e+01 -1.776357e-15
      vertex   -2.874044e+02 6.897520e+01 1.776357e-15
      vertex   -2.969044e+02 6.127522e+01 2.664535e-15
    endloop
  endfacet
  facet normal 0.000000e+00 -4.816535e-16 -3.932999e+00
    outer loop
      vertex   -2.969044e+02 6.127522e+01 2.664535e-15
      vertex   -2.874044e+02 6.897520e+01 1.776357e-15
      vertex   -2.874044e+02 6.397520e+01 1.776357e-15
    endloop
  endfacet
  facet normal 0.000000e+00 -3.347964e-16 -2.733820e+00
    outer loop
      vertex   -2.969044e+02 6.127522e+01 2.664535e-15
      vertex   -2.874044e+02 6.397520e+01 1.776357e-15
      vertex   -2.849044e+02 6.127522e+01 2.664535e-15
    endloop
  endfacet
  facet normal 0.000000e+00 -8.320372e-16 -6.794100e+00
    outer loop
      vertex   -2.849044e+02 6.127522e+01 2.664535e-15
      vertex   -2.874044e+02 6.397520e+01 1.776357e-15
      vertex   -2.849044e+02 6.397520e+01 1.776357e-15
    endloop
  endfacet
  facet normal 0.000000e+00 -1.126671e-15 -9.199965e+00
    outer loop
      vertex   -2.969044e+02 9.127522e+01 -1.776357e-15
      vertex   -2.844044e+02 9.127522e+01 -1.776357e-15
      vertex   -2.874044e+02 6.897520e+01 1.776357e-15
    endloop
  endfacet
  facet normal 0.000000e+00 -2.561487e-16 -2.091613e+00
    outer loop
      vertex   -2.874044e+02 6.897520e+01 1.776357e-15
      vertex   -2.844044e+02 9.127522e+01 -1.776357e-15
      vertex   -2.794044e+02 9.127522e+01 -1.776357e-15
    endloop
  endfacet
  facet normal 0.000000e+00 -1.152716e-15 -9.412637e+00
    outer loop
      vertex   -2.874044e+02 6.897520e+01 1.776357e-15
      vertex   -2.794044e+02 9.127522e+01 -1.776357e-15
      vertex   -2.764044e+02 6.897520e+01 1.776357e-15
    endloop
  endfacet
  facet normal 0.000000e+00 -9.620186e-16 -7.855478e+00
    outer loop
      vertex   -2.764044e+02 6.897520e+01 1.776357e-15
      vertex   -2.794044e+02 9.127522e+01 -1.776357e-15
      vertex   -2.669044e+02 7.877522e+01 0.000000e+00
    endloop
  endfacet
  facet normal 0.000000e+00 -4.004176e-16 -3.269658e+00
    outer loop
      vertex   -2.764044e+02 6.897520e+01 1.776357e-15
      vertex   -2.669044e+02 7.877522e+01 0.000000e+00
      vertex   -2.669044e+02 7.377522e+01 8.881784e-16
    endloop
  endfacet
  facet normal 0.000000e+00 -7.022894e-16 -5.734628e+00
    outer loop
      vertex   -2.669044e+02 7.377522e+01 8.881784e-16
      vertex   -2.669044e+02 7.877522e+01 0.000000e+00
      vertex   -2.634044e+02 7.877522e+01 0.000000e+00
    endloop
  endfacet
  facet normal 0.000000e+00 -1.003269e-15 -8.192316e+00
    outer loop
      vertex   -2.669044e+02 7.377522e+01 8.881784e-16
      vertex   -2.634044e+02 7.877522e+01 0.000000e+00
      vertex   -2.634044e+02 7.377522e+01 8.881784e-16
    endloop
  endfacet
  facet normal 0.000000e+00 -5.763040e-16 -4.705879e+00
    outer loop
      vertex   -2.634044e+02 7.377522e+01 8.881784e-16
      vertex   -2.634044e+02 7.877522e+01 0.000000e+00
      vertex   -2.594044e+02 8.127522e+01 0.000000e+00
    endloop
  endfacet
  facet normal 0.000000e+00 -1.221763e-15 -9.976450e+00
    outer loop
      vertex   -2.634044e+02 7.377522e+01 8.881784e-16
      vertex   -2.594044e+02 8.127522e+01 0.000000e+00
      vertex   -2.594044e+02 7.127522e+01 8.881784e-16
    endloop
  endfacet
  facet normal 0.000000e+00 -1.224647e-15 -1.000000e+01
    outer loop
      vertex   -2.794044e+02 9.127522e+01 -1.776357e-15
      vertex   -2.844044e+02 9.127522e+01 -1.776357e-15
      vertex   -2.794044e+02 9.477522e+01 -1.776357e-15
    endloop
  endfacet
  facet normal 0.000000e+00 -7.022887e-16 -5.734622e+00
    outer loop
      vertex   -2.794044e+02 9.477522e+01 -1.776357e-15
      vertex   -2.844044e+02 9.127522e+01 -1.776357e-15
      vertex   -2.844044e+02 9.477522e+01 -1.776357e-15
    endloop
  endfacet
  facet normal 0.000000e+00 -1.038499e-15 -8.479986e+00
    outer loop
      vertex   -2.794044e+02 9.477522e+01 -1.776357e-15
      vertex   -2.844044e+02 9.477522e+01 -1.776357e-15
      vertex   -2.769044e+02 9.877522e+01 -2.664535e-15
    endloop
  endfacet
  facet normal 0.000000e+00 -5.763050e-16 -4.705888e+00
    outer loop
      vertex   -2.769044e+02 9.877522e+01 -2.664535e-15
      vertex   -2.844044e+02 9.477522e+01 -1.776357e-15
      vertex   -2.869044e+02 9.877522e+01 -2.664535e-15
    endloop
  endfacet
  facet normal 0.000000e+00 -6.490609e-16 -5.299984e+00
    outer loop
      vertex   -2.869044e+02 9.877522e+01 -2.664535e-15
      vertex   -2.844044e+02 9.477522e+01 -1.776357e-15
      vertex   -2.869044e+02 9.477522e+01 -1.776357e-15
    endloop
  endfacet
  facet normal 0.000000e+00 -6.490609e-16 -5.299984e+00
    outer loop
      vertex   -2.769044e+02 9.877522e+01 -2.664535e-15
      vertex   -2.769044e+02 9.477522e+01 -1.776357e-15
      vertex   -2.794044e+02 9.477522e+01 -1.776357e-15
    endloop
  endfacet
  facet normal 0.000000e+00 -8.659560e-16 -7.071068e+00
    outer loop
      vertex   -2.794044e+02 9.127522e+01 -1.776357e-15
      vertex   -2.669044e+02 9.127522e+01 -1.776357e-15
      vertex   -2.669044e+02 7.877522e+01 0.000000e+00
    endloop
  endfacet
  facet normal 0.000000e+00 -1.038498e-15 -8.479980e+00
    outer loop
      vertex   -2.634044e+02 7.877522e+01 0.000000e+00
      vertex   -2.634044e+02 8.127522e+01 0.000000e+00
      vertex   -2.594044e+02 8.127522e+01 0.000000e+00
    endloop
  endfacet
  facet normal 0.000000e+00 -6.490620e-16 -5.299993e+00
    outer loop
      vertex   -2.594044e+02 7.127522e+01 8.881784e-16
      vertex   -2.634044e+02 7.127522e+01 8.881784e-16
      vertex   -2.634044e+02 7.377522e+01 8.881784e-16
    endloop
  endfacet
  facet normal 0.000000e+00 -1.093046e-15 -8.925399e+00
    outer loop
      vertex   -2.669044e+02 7.377522e+01 8.881784e-16
      vertex   -2.669044e+02 6.127522e+01 2.664535e-15
      vertex   -2.764044e+02 6.897520e+01 1.776357e-15
    endloop
  endfacet
  facet normal 0.000000e+00 -9.513849e-16 -7.768647e+00
    outer loop
      vertex   -2.764044e+02 6.897520e+01 1.776357e-15
      vertex   -2.669044e+02 6.127522e+01 2.664535e-15
      vertex   -2.764044e+02 6.397520e+01 1.776357e-15
    endloop
  endfacet
  facet normal 0.000000e+00 -1.091828e-15 -8.915452e+00
    outer loop
      vertex   -2.764044e+02 6.397520e+01 1.776357e-15
      vertex   -2.669044e+02 6.127522e+01 2.664535e-15
      vertex   -2.789044e+02 6.127522e+01 2.664535e-15
    endloop
  endfacet
  facet normal 0.000000e+00 -8.985954e-16 -7.337589e+00
    outer loop
      vertex   -2.764044e+02 6.397520e+01 1.776357e-15
      vertex   -2.789044e+02 6.127522e+01 2.664535e-15
      vertex   -2.789044e+02 6.397520e+01 1.776357e-15
    endloop
  endfacet
  facet normal 0.000000e+00 1.224647e-15 1.000000e+01
    outer loop
      vertex   -2.969044e+02 6.127522e+01 6.000000e+00
      vertex   -2.669044e+02 6.127522e+01 6.000000e+00
      vertex   -2.969044e+02 9.127522e+01 6.000000e+00
    endloop
  endfacet
  facet normal 0.000000e+00 8.659560e-16 7.071068e+00
    outer loop
      vertex   -2.969044e+02 9.127522e+01 6.000000e+00
      vertex   -2.669044e+02 6.127522e+01 6.000000e+00
      vertex   -2.669044e+02 9.127522e+01 6.000000e+00
    endloop
  endfacet
  facet normal 0.000000e+00 1.224647e-15 1.000000e+01
    outer loop
      vertex   -2.669044e+02 7.377522e+01 3.000000e+00
      vertex   -2.634044e+02 7.377522e+01 3.000000e+00
      vertex   -2.669044e+02 7.877522e+01 3.000000e+00
    endloop
  endfacet
  facet normal 0.000000e+00 1.003269e-15 8.192316e+00
    outer loop
      vertex   -2.669044e+02 7.877522e+01 3.000000e+00
      vertex   -2.634044e+02 7.377522e+01 3.000000e+00
      vertex   -2.634044e+02 7.877522e+01 3.000000e+00
    endloop
  endfacet
  facet normal 0.000000e+00 1.038498e-15 8.479980e+00
    outer loop
      vertex   -2.634044e+02 7.877522e+01 3.000000e+00
      vertex   -2.634044e+02 7.377522e+01 3.000000e+00
      vertex   -2.594044e+02 8.127522e+01 3.000000e+00
    endloop
  endfacet
  facet normal 0.000000e+00 1.038498e-15 8.479980e+00
    outer loop
      vertex   -2.634044e+02 7.877522e+01 3.000000e+00
      vertex   -2.594044e+02 8.127522e+01 3.000000e+00
      vertex   -2.634044e+02 8.127522e+01 3.000000e+00
    endloop
  endfacet
  facet normal 0.000000e+00 1.224647e-15 1.000000e+01
    outer loop
      vertex   -2.634044e+02 7.127522e+01 3.000000e+00
      vertex   -2.594044e+02 7.127522e+01 3.000000e+00
      vertex   -2.634044e+02 7.377522e+01 3.000000e+00
    endloop
  endfacet
  facet normal 0.000000e+00 1.221763e-15 9.976450e+00
    outer loop
      vertex   -2.634044e+02 7.377522e+01 3.000000e+00
      vertex   -2.594044e+02 7.127522e+01 3.000000e+00
      vertex   -2.594044e+02 8.127522e+01 3.000000e+00
    endloop
  endfacet
  facet normal 0.000000e+00 -1.000000e+01 1.224647e-15
    outer loop
      vertex   -2.789044e+02 6.127522e+01 2.664535e-15
      vertex   -2.669044e+02 6.127522e+01 2.664535e-15
      vertex   -2.789044e+02 6.127522e+01 4.000000e+00
    endloop
  endfacet
  facet normal 0.000000e+00 -4.678875e+00 5.729969e-16
    outer loop
      vertex   -2.789044e+02 6.127522e+01 4.000000e+00
      vertex   -2.669044e+02 6.127522e+01 2.664535e-15
      vertex   -2.669044e+02 6.127522e+01 6.000000e+00
    endloop
  endfacet
  facet normal 0.000000e+00 -2.723224e+00 3.334988e-16
    outer loop
      vertex   -2.789044e+02 6.127522e+01 4.000000e+00
      vertex   -2.669044e+02 6.127522e+01 6.000000e+00
      vertex   -2.969044e+02 6.127522e+01 6.000000e+00
    endloop
  endfacet
  facet normal 0.000000e+00 -1.104316e+00 1.352397e-16
    outer loop
      vertex   -2.789044e+02 6.127522e+01 4.000000e+00
      vertex   -2.969044e+02 6.127522e+01 6.000000e+00
      vertex   -2.849044e+02 6.127522e+01 4.000000e+00
    endloop
  endfacet
  facet normal 0.000000e+00 -4.678875e+00 5.729969e-16
    outer loop
      vertex   -2.849044e+02 6.127522e+01 4.000000e+00
      vertex   -2.969044e+02 6.127522e+01 6.000000e+00
      vertex   -2.969044e+02 6.127522e+01 2.664535e-15
    endloop
  endfacet
  facet normal 0.000000e+00 -9.486834e+00 1.161802e-15
    outer loop
      vertex   -2.849044e+02 6.127522e+01 4.000000e+00
      vertex   -2.969044e+02 6.127522e+01 2.664535e-15
      vertex   -2.849044e+02 6.127522e+01 2.664535e-15
    endloop
  endfacet
  facet normal 0.000000e+00 -1.000000e+01 1.224647e-15
    outer loop
      vertex   -2.634044e+02 7.377522e+01 3.000000e+00
      vertex   -2.669044e+02 7.377522e+01 3.000000e+00
      vertex   -2.634044e+02 7.377522e+01 8.881784e-16
    endloop
  endfacet
  facet normal 0.000000e+00 -6.507910e+00 7.969891e-16
    outer loop
      vertex   -2.634044e+02 7.377522e+01 8.881784e-16
      vertex   -2.669044e+02 7.377522e+01 3.000000e+00
      vertex   -2.669044e+02 7.377522e+01 8.881784e-16
    endloop
  endfacet
  facet normal -1.000000e+01 -0.000000e+00 0.000000e+00
    outer loop
      vertex   -2.634044e+02 7.127522e+01 3.000000e+00
      vertex   -2.634044e+02 7.377522e+01 3.000000e+00
      vertex   -2.634044e+02 7.127522e+01 8.881784e-16
    endloop
  endfacet
  facet normal -7.682213e+00 0.000000e+00 -0.000000e+00
    outer loop
      vertex   -2.634044e+02 7.127522e+01 8.881784e-16
      vertex   -2.634044e+02 7.377522e+01 3.000000e+00
      vertex   -2.634044e+02 7.377522e+01 8.881784e-16
    endloop
  endfacet
  facet normal 0.000000e+00 -1.000000e+01 1.224647e-15
    outer loop
      vertex   -2.594044e+02 7.127522e+01 3.000000e+00
      vertex   -2.634044e+02 7.127522e+01 3.000000e+00
      vertex   -2.594044e+02 7.127522e+01 8.881784e-16
    endloop
  endfacet
  facet normal 0.000000e+00 -6.000004e+00 7.347885e-16
    outer loop
      vertex   -2.594044e+02 7.127522e+01 8.881784e-16
      vertex   -2.634044e+02 7.127522e+01 3.000000e+00
      vertex   -2.634044e+02 7.127522e+01 8.881784e-16
    endloop
  endfacet
  facet normal 1.000000e+01 0.000000e+00 0.000000e+00
    outer loop
      vertex   -2.594044e+02 8.127522e+01 3.000000e+00
      vertex   -2.594044e+02 7.127522e+01 3.000000e+00
      vertex   -2.594044e+02 8.127522e+01 0.000000e+00
    endloop
  endfacet
  facet normal 2.873479e+00 0.000000e+00 0.000000e+00
    outer loop
      vertex   -2.594044e+02 8.127522e+01 0.000000e+00
      vertex   -2.594044e+02 7.127522e+01 3.000000e+00
      vertex   -2.594044e+02 7.127522e+01 8.881784e-16
    endloop
  endfacet
  facet normal 0.000000e+00 1.000000e+01 -1.224647e-15
    outer loop
      vertex   -2.634044e+02 8.127522e+01 3.000000e+00
      vertex   -2.594044e+02 8.127522e+01 3.000000e+00
      vertex   -2.634044e+02 8.127522e+01 0.000000e+00
    endloop
  endfacet
  facet normal 0.000000e+00 6.000004e+00 -7.347885e-16
    outer loop
      vertex   -2.634044e+02 8.127522e+01 0.000000e+00
      vertex   -2.594044e+02 8.127522e+01 3.000000e+00
      vertex   -2.594044e+02 8.127522e+01 0.000000e+00
    endloop
  endfacet
  facet normal -1.000000e+01 -0.000000e+00 0.000000e+00
    outer loop
      vertex   -2.634044e+02 7.877522e+01 3.000000e+00
      vertex   -2.634044e+02 8.127522e+01 3.000000e+00
      vertex   -2.634044e+02 7.877522e+01 0.000000e+00
    endloop
  endfacet
  facet normal -7.682213e+00 0.000000e+00 -0.000000e+00
    outer loop
      vertex   -2.634044e+02 7.877522e+01 0.000000e+00
      vertex   -2.634044e+02 8.127522e+01 3.000000e+00
      vertex   -2.634044e+02 8.127522e+01 0.000000e+00
    endloop
  endfacet
  facet normal 0.000000e+00 1.000000e+01 -1.224647e-15
    outer loop
      vertex   -2.669044e+02 7.877522e+01 3.000000e+00
      vertex   -2.634044e+02 7.877522e+01 3.000000e+00
      vertex   -2.669044e+02 7.877522e+01 0.000000e+00
    endloop
  endfacet
  facet normal 0.000000e+00 6.507910e+00 -7.969891e-16
    outer loop
      vertex   -2.669044e+02 7.877522e+01 0.000000e+00
      vertex   -2.634044e+02 7.877522e+01 3.000000e+00
      vertex   -2.634044e+02 7.877522e+01 0.000000e+00
    endloop
  endfacet
  facet normal 1.000000e+01 0.000000e+00 0.000000e+00
    outer loop
      vertex   -2.669044e+02 7.877522e+01 0.000000e+00
      vertex   -2.669044e+02 9.127522e+01 -1.776357e-15
      vertex   -2.669044e+02 7.877522e+01 3.000000e+00
    endloop
  endfacet
  facet normal 4.538578e+00 0.000000e+00 0.000000e+00
    outer loop
      vertex   -2.669044e+02 7.877522e+01 3.000000e+00
      vertex   -2.669044e+02 9.127522e+01 -1.776357e-15
      vertex   -2.669044e+02 9.127522e+01 6.000000e+00
    endloop
  endfacet
  facet normal 3.943159e+00 0.000000e+00 0.000000e+00
    outer loop
      vertex   -2.669044e+02 7.877522e+01 3.000000e+00
      vertex   -2.669044e+02 9.127522e+01 6.000000e+00
      vertex   -2.669044e+02 6.127522e+01 6.000000e+00
    endloop
  endfacet
  facet normal 1.689638e+00 0.000000e+00 0.000000e+00
    outer loop
      vertex   -2.669044e+02 7.877522e+01 3.000000e+00
      vertex   -2.669044e+02 6.127522e+01 6.000000e+00
      vertex   -2.669044e+02 7.377522e+01 3.000000e+00
    endloop
  endfacet
  facet normal 4.538578e+00 0.000000e+00 0.000000e+00
    outer loop
      vertex   -2.669044e+02 7.377522e+01 3.000000e+00
      vertex   -2.669044e+02 6.127522e+01 6.000000e+00
      vertex   -2.669044e+02 6.127522e+01 2.664535e-15
    endloop
  endfacet
  facet normal 9.723873e+00 0.000000e+00 0.000000e+00
    outer loop
      vertex   -2.669044e+02 7.377522e+01 3.000000e+00
      vertex   -2.669044e+02 6.127522e+01 2.664535e-15
      vertex   -2.669044e+02 7.377522e+01 8.881784e-16
    endloop
  endfacet
  facet normal 0.000000e+00 9.723873e+00 -1.190831e-15
    outer loop
      vertex   -2.669044e+02 9.127522e+01 -1.776357e-15
      vertex   -2.794044e+02 9.127522e+01 3.000000e+00
      vertex   -2.669044e+02 9.127522e+01 6.000000e+00
    endloop
  endfacet
  facet normal 0.000000e+00 6.571931e-01 -8.048294e-17
    outer loop
      vertex   -2.669044e+02 9.127522e+01 6.000000e+00
      vertex   -2.794044e+02 9.127522e+01 3.000000e+00
      vertex   -2.844044e+02 9.127522e+01 3.000000e+00
    endloop
  endfacet
  facet normal 0.000000e+00 1.689638e+00 -2.069210e-16
    outer loop
      vertex   -2.669044e+02 9.127522e+01 6.000000e+00
      vertex   -2.844044e+02 9.127522e+01 3.000000e+00
      vertex   -2.969044e+02 9.127522e+01 6.000000e+00
    endloop
  endfacet
  facet normal 0.000000e+00 9.723873e+00 -1.190831e-15
    outer loop
      vertex   -2.969044e+02 9.127522e+01 6.000000e+00
      vertex   -2.844044e+02 9.127522e+01 3.000000e+00
      vertex   -2.969044e+02 9.127522e+01 -1.776357e-15
    endloop
  endfacet
  facet normal 0.000000e+00 2.333730e+00 -2.857995e-16
    outer loop
      vertex   -2.969044e+02 9.127522e+01 -1.776357e-15
      vertex   -2.844044e+02 9.127522e+01 3.000000e+00
      vertex   -2.844044e+02 9.127522e+01 -1.776357e-15
    endloop
  endfacet
  facet normal 0.000000e+00 2.333730e+00 -2.857995e-16
    outer loop
      vertex   -2.669044e+02 9.127522e+01 -1.776357e-15
      vertex   -2.794044e+02 9.127522e+01 -1.776357e-15
      vertex   -2.794044e+02 9.127522e+01 3.000000e+00
    endloop
  endfacet
  facet normal 1.000000e+01 0.000000e+00 0.000000e+00
    outer loop
      vertex   -2.794044e+02 9.477522e+01 3.000000e+00
      vertex   -2.794044e+02 9.127522e+01 3.000000e+00
      vertex   -2.794044e+02 9.477522e+01 -1.776357e-15
    endloop
  endfacet
  facet normal 6.507915e+00 0.000000e+00 0.000000e+00
    outer loop
      vertex   -2.794044e+02 9.477522e+01 -1.776357e-15
      vertex   -2.794044e+02 9.127522e+01 3.000000e+00
      vertex   -2.794044e+02 9.127522e+01 -1.776357e-15
    endloop
  endfacet
  facet normal 0.000000e+00 -1.000000e+01 1.224647e-15
    outer loop
      vertex   -2.769044e+02 9.477522e+01 3.000000e+00
      vertex   -2.794044e+02 9.477522e+01 3.000000e+00
      vertex   -2.769044e+02 9.477522e+01 -1.776357e-15
    endloop
  endfacet
  facet normal 0.000000e+00 -7.682213e+00 9.407998e-16
    outer loop
      vertex   -2.769044e+02 9.477522e+01 -1.776357e-15
      vertex   -2.794044e+02 9.477522e+01 3.000000e+00
      vertex   -2.794044e+02 9.477522e+01 -1.776357e-15
    endloop
  endfacet
  facet normal 1.000000e+01 0.000000e+00 0.000000e+00
    outer loop
      vertex   -2.769044e+02 9.877522e+01 3.000000e+00
      vertex   -2.769044e+02 9.477522e+01 3.000000e+00
      vertex   -2.769044e+02 9.877522e+01 -2.664535e-15
    endloop
  endfacet
  facet normal 5.999995e+00 0.000000e+00 0.000000e+00
    outer loop
      vertex   -2.769044e+02 9.877522e+01 -2.664535e-15
      vertex   -2.769044e+02 9.477522e+01 3.000000e+00
      vertex   -2.769044e+02 9.477522e+01 -1.776357e-15
    endloop
  endfacet
  facet normal 0.000000e+00 1.000000e+01 -1.224647e-15
    outer loop
      vertex   -2.869044e+02 9.877522e+01 3.000000e+00
      vertex   -2.769044e+02 9.877522e+01 3.000000e+00
      vertex   -2.869044e+02 9.877522e+01 -2.664535e-15
    endloop
  endfacet
  facet normal 0.000000e+00 2.873479e+00 -3.518997e-16
    outer loop
      vertex   -2.869044e+02 9.877522e+01 -2.664535e-15
      vertex   -2.769044e+02 9.877522e+01 3.000000e+00
      vertex   -2.769044e+02 9.877522e+01 -2.664535e-15
    endloop
  endfacet
  facet normal -1.000000e+01 -0.000000e+00 0.000000e+00
    outer loop
      vertex   -2.869044e+02 9.477522e+01 3.000000e+00
      vertex   -2.869044e+02 9.877522e+01 3.000000e+00
      vertex   -2.869044e+02 9.477522e+01 -1.776357e-15
    endloop
  endfacet
  facet normal -5.999995e+00 0.000000e+00 -0.000000e+00
    outer loop
      vertex   -2.869044e+02 9.477522e+01 -1.776357e-15
      vertex   -2.869044e+02 9.877522e+01 3.000000e+00
      vertex   -2.869044e+02 9.877522e+01 -2.664535e-15
    endloop
  endfacet
  facet normal 0.000000e+00 -1.000000e+01 1.224647e-15
    outer loop
      vertex   -2.844044e+02 9.477522e+01 3.000000e+00
      vertex   -2.869044e+02 9.477522e+01 3.000000e+00
      vertex   -2.844044e+02 9.477522e+01 -1.776357e-15
    endloop
  endfacet
  facet normal 0.000000e+00 -7.682213e+00 9.407998e-16
    outer loop
      vertex   -2.844044e+02 9.477522e+01 -1.776357e-15
      vertex   -2.869044e+02 9.477522e+01 3.000000e+00
      vertex   -2.869044e+02 9.477522e+01 -1.776357e-15
    endloop
  endfacet
  facet normal -1.000000e+01 -0.000000e+00 0.000000e+00
    outer loop
      vertex   -2.844044e+02 9.127522e+01 3.000000e+00
      vertex   -2.844044e+02 9.477522e+01 3.000000e+00
      vertex   -2.844044e+02 9.127522e+01 -1.776357e-15
    endloop
  endfacet
  facet normal -6.507915e+00 0.000000e+00 -0.000000e+00
    outer loop
      vertex   -2.844044e+02 9.127522e+01 -1.776357e-15
      vertex   -2.844044e+02 9.477522e+01 3.000000e+00
      vertex   -2.844044e+02 9.477522e+01 -1.776357e-15
    endloop
  endfacet
  facet normal -1.000000e+01 -0.000000e+00 0.000000e+00
    outer loop
      vertex   -2.969044e+02 9.127522e+01 -1.776357e-15
      vertex   -2.969044e+02 6.127522e+01 2.664535e-15
      vertex   -2.969044e+02 9.127522e+01 6.000000e+00
    endloop
  endfacet
  facet normal -1.961161e+00 -0.000000e+00 0.000000e+00
    outer loop
      vertex   -2.969044e+02 9.127522e+01 6.000000e+00
      vertex   -2.969044e+02 6.127522e+01 2.664535e-15
      vertex   -2.969044e+02 6.127522e+01 6.000000e+00
    endloop
  endfacet
  facet normal 1.000000e+01 0.000000e+00 0.000000e+00
    outer loop
      vertex   -2.849044e+02 6.397520e+01 4.000000e+00
      vertex   -2.849044e+02 6.127522e+01 4.000000e+00
      vertex   -2.849044e+02 6.397520e+01 1.776357e-15
    endloop
  endfacet
  facet normal 8.288501e+00 0.000000e+00 0.000000e+00
    outer loop
      vertex   -2.849044e+02 6.397520e+01 1.776357e-15
      vertex   -2.849044e+02 6.127522e+01 4.000000e+00
      vertex   -2.849044e+02 6.127522e+01 2.664535e-15
    endloop
  endfacet
  facet normal 0.000000e+00 1.000000e+01 -1.224647e-15
    outer loop
      vertex   -2.874044e+02 6.397520e+01 4.000000e+00
      vertex   -2.849044e+02 6.397520e+01 4.000000e+00
      vertex   -2.874044e+02 6.397520e+01 1.776357e-15
    endloop
  endfacet
  facet normal 0.000000e+00 8.479983e+00 -1.038498e-15
    outer loop
      vertex   -2.874044e+02 6.397520e+01 1.776357e-15
      vertex   -2.849044e+02 6.397520e+01 4.000000e+00
      vertex   -2.849044e+02 6.397520e+01 1.776357e-15
    endloop
  endfacet
  facet normal 1.000000e+01 0.000000e+00 0.000000e+00
    outer loop
      vertex   -2.874044e+02 6.897520e+01 4.000000e+00
      vertex   -2.874044e+02 6.397520e+01 4.000000e+00
      vertex   -2.874044e+02 6.897520e+01 1.776357e-15
    endloop
  endfacet
  facet normal 6.246951e+00 0.000000e+00 0.000000e+00
    outer loop
      vertex   -2.874044e+02 6.897520e+01 1.776357e-15
      vertex   -2.874044e+02 6.397520e+01 4.000000e+00
      vertex   -2.874044e+02 6.397520e+01 1.776357e-15
    endloop
  endfacet
  facet normal 0.000000e+00 -1.000000e+01 1.224647e-15
    outer loop
      vertex   -2.764044e+02 6.897520e+01 4.000000e+00
      vertex   -2.874044e+02 6.897520e+01 4.000000e+00
      vertex   -2.764044e+02 6.897520e+01 1.776357e-15
    endloop
  endfacet
  facet normal 0.000000e+00 -3.417435e+00 4.185151e-16
    outer loop
      vertex   -2.764044e+02 6.897520e+01 1.776357e-15
      vertex   -2.874044e+02 6.897520e+01 4.000000e+00
      vertex   -2.874044e+02 6.897520e+01 1.776357e-15
    endloop
  endfacet
  facet normal -1.000000e+01 -0.000000e+00 0.000000e+00
    outer loop
      vertex   -2.764044e+02 6.397520e+01 4.000000e+00
      vertex   -2.764044e+02 6.897520e+01 4.000000e+00
      vertex   -2.764044e+02 6.397520e+01 1.776357e-15
    endloop
  endfacet
  facet normal -6.246951e+00 0.000000e+00 -0.000000e+00
    outer loop
      vertex   -2.764044e+02 6.397520e+01 1.776357e-15
      vertex   -2.764044e+02 6.897520e+01 4.000000e+00
      vertex   -2.764044e+02 6.897520e+01 1.776357e-15
    endloop
  endfacet
  facet normal 0.000000e+00 1.000000e+01 -1.224647e-15
    outer loop
      vertex   -2.789044e+02 6.397520e+01 4.000000e+00
      vertex   -2.764044e+02 6.397520e+01 4.000000e+00
      vertex   -2.789044e+02 6.397520e+01 1.776357e-15
    endloop
  endfacet
  facet normal 0.000000e+00 8.479983e+00 -1.038498e-15
    outer loop
      vertex   -2.789044e+02 6.397520e+01 1.776357e-15
      vertex   -2.764044e+02 6.397520e+01 4.000000e+00
      vertex   -2.764044e+02 6.397520e+01 1.776357e-15
    endloop
  endfacet
  facet normal -1.000000e+01 -0.000000e+00 0.000000e+00
    outer loop
      vertex   -2.789044e+02 6.127522e+01 4.000000e+00
      vertex   -2.789044e+02 6.397520e+01 4.000000e+00
      vertex   -2.789044e+02 6.127522e+01 2.664535e-15
    endloop
  endfacet
  facet normal -8.288501e+00 0.000000e+00 -0.000000e+00
    outer loop
      vertex   -2.789044e+02 6.127522e+01 2.664535e-15
      vertex   -2.789044e+02 6.397520e+01 4.000000e+00
      vertex   -2.789044e+02 6.397520e+01 1.776357e-15
    endloop
  endfacet
  facet normal 0.000000e+00 1.224647e-15 1.000000e+01
    outer loop
      vertex   -2.844044e+02 9.127522e+01 3.000000e+00
      vertex   -2.794044e+02 9.127522e+01 3.000000e+00
      vertex   -2.844044e+02 9.477522e+01 3.000000e+00
    endloop
  endfacet
  facet normal 0.000000e+00 7.022887e-16 5.734622e+00
    outer loop
      vertex   -2.844044e+02 9.477522e+01 3.000000e+00
      vertex   -2.794044e+02 9.127522e+01 3.000000e+00
      vertex   -2.794044e+02 9.477522e+01 3.000000e+00
    endloop
  endfacet
  facet normal 0.000000e+00 1.038499e-15 8.479986e+00
    outer loop
      vertex   -2.844044e+02 9.477522e+01 3.000000e+00
      vertex   -2.794044e+02 9.477522e+01 3.000000e+00
      vertex   -2.869044e+02 9.877522e+01 3.000000e+00
    endloop
  endfacet
  facet normal 0.000000e+00 5.763050e-16 4.705888e+00
    outer loop
      vertex   -2.869044e+02 9.877522e+01 3.000000e+00
      vertex   -2.794044e+02 9.477522e+01 3.000000e+00
      vertex   -2.769044e+02 9.877522e+01 3.000000e+00
    endloop
  endfacet
  facet normal 0.000000e+00 6.490609e-16 5.299984e+00
    outer loop
      vertex   -2.769044e+02 9.877522e+01 3.000000e+00
      vertex   -2.794044e+02 9.477522e+01 3.000000e+00
      vertex   -2.769044e+02 9.477522e+01 3.000000e+00
    endloop
  endfacet
  facet normal 0.000000e+00 6.490609e-16 5.299984e+00
    outer loop
      vertex   -2.869044e+02 9.877522e+01 3.000000e+00
      vertex   -2.869044e+02 9.477522e+01 3.000000e+00
      vertex   -2.844044e+02 9.477522e+01 3.000000e+00
    endloop
  endfacet
endsolid
