solid ascii
  facet normal 1.224647e-15 0.000000e+00 -1.000000e+01
    outer loop
      vertex   -1.152290e+01 2.840372e+02 -2.664535e-15
      vertex   -1.152290e+01 3.140372e+02 -2.664535e-15
      vertex   9.770995e-01 2.840372e+02 -8.881784e-16
    endloop
  endfacet
  facet normal 9.125164e-16 0.000000e+00 -7.451262e+00
    outer loop
      vertex   9.770995e-01 2.840372e+02 -8.881784e-16
      vertex   -1.152290e+01 3.140372e+02 -2.664535e-15
      vertex   1.077710e+01 3.045372e+02 8.881784e-16
    endloop
  endfacet
  facet normal 4.256852e-16 0.000000e+00 -3.475983e+00
    outer loop
      vertex   9.770995e-01 2.840372e+02 -8.881784e-16
      vertex   1.077710e+01 3.045372e+02 8.881784e-16
      vertex   1.077710e+01 2.935372e+02 8.881784e-16
    endloop
  endfacet
  facet normal 4.799722e-16 0.000000e+00 -3.919270e+00
    outer loop
      vertex   -1.152290e+01 3.140372e+02 -2.664535e-15
      vertex   1.847710e+01 3.140372e+02 1.776357e-15
      vertex   1.077710e+01 3.045372e+02 8.881784e-16
    endloop
  endfacet
  facet normal 9.513840e-16 0.000000e+00 -7.768640e+00
    outer loop
      vertex   1.077710e+01 3.045372e+02 8.881784e-16
      vertex   1.847710e+01 3.140372e+02 1.776357e-15
      vertex   1.577710e+01 3.045372e+02 8.881784e-16
    endloop
  endfacet
  facet normal 1.091830e-15 0.000000e+00 -8.915471e+00
    outer loop
      vertex   1.577710e+01 3.045372e+02 8.881784e-16
      vertex   1.847710e+01 3.140372e+02 1.776357e-15
      vertex   1.847710e+01 3.020372e+02 1.776357e-15
    endloop
  endfacet
  facet normal 8.985978e-16 0.000000e+00 -7.337608e+00
    outer loop
      vertex   1.577710e+01 3.045372e+02 8.881784e-16
      vertex   1.847710e+01 3.020372e+02 1.776357e-15
      vertex   1.577710e+01 3.020372e+02 8.881784e-16
    endloop
  endfacet
  facet normal 1.177994e-15 0.000000e+00 -9.619050e+00
    outer loop
      vertex   1.577710e+01 2.935372e+02 8.881784e-16
      vertex   1.847710e+01 2.840372e+02 1.776357e-15
      vertex   1.077710e+01 2.935372e+02 8.881784e-16
    endloop
  endfacet
  facet normal 1.117301e-15 0.000000e+00 -9.123456e+00
    outer loop
      vertex   1.077710e+01 2.935372e+02 8.881784e-16
      vertex   1.847710e+01 2.840372e+02 1.776357e-15
      vertex   5.977098e+00 2.840372e+02 0.000000e+00
    endloop
  endfacet
  facet normal 4.004184e-16 0.000000e+00 -3.269664e+00
    outer loop
      vertex   1.077710e+01 2.935372e+02 8.881784e-16
      vertex   5.977098e+00 2.840372e+02 0.000000e+00
      vertex   9.770995e-01 2.840372e+02 -8.881784e-16
    endloop
  endfacet
  facet normal 1.224647e-15 0.000000e+00 -1.000000e+01
    outer loop
      vertex   9.770995e-01 2.840372e+02 -8.881784e-16
      vertex   5.977098e+00 2.840372e+02 0.000000e+00
      vertex   9.770995e-01 2.805372e+02 -8.881784e-16
    endloop
  endfacet
  facet normal 7.022894e-16 0.000000e+00 -5.734629e+00
    outer loop
      vertex   9.770995e-01 2.805372e+02 -8.881784e-16
      vertex   5.977098e+00 2.840372e+02 0.000000e+00
      vertex   5.977098e+00 2.805372e+02 0.000000e+00
    endloop
  endfacet
  facet normal 1.038498e-15 0.000000e+00 -8.479980e+00
    outer loop
      vertex   9.770995e-01 2.805372e+02 -8.881784e-16
      vertex   5.977098e+00 2.805372e+02 0.000000e+00
      vertex   -1.522901e+00 2.765372e+02 -8.881784e-16
    endloop
  endfacet
  facet normal 5.763040e-16 0.000000e+00 -4.705879e+00
    outer loop
      vertex   -1.522901e+00 2.765372e+02 -8.881784e-16
      vertex   5.977098e+00 2.805372e+02 0.000000e+00
      vertex   8.477098e+00 2.765372e+02 0.000000e+00
    endloop
  endfacet
  facet normal 6.490619e-16 0.000000e+00 -5.299993e+00
    outer loop
      vertex   8.477098e+00 2.765372e+02 0.000000e+00
      vertex   5.977098e+00 2.805372e+02 0.000000e+00
      vertex   8.477098e+00 2.805372e+02 0.000000e+00
    endloop
  endfacet
  facet normal 1.224647e-15 0.000000e+00 -1.000000e+01
    outer loop
      vertex   1.577710e+01 2.960372e+02 8.881784e-16
      vertex   1.847710e+01 2.960372e+02 1.776357e-15
      vertex   1.577710e+01 2.935372e+02 8.881784e-16
    endloop
  endfacet
  facet normal 1.091831e-15 0.000000e+00 -8.915474e+00
    outer loop
      vertex   1.577710e+01 2.935372e+02 8.881784e-16
      vertex   1.847710e+01 2.960372e+02 1.776357e-15
      vertex   1.847710e+01 2.840372e+02 1.776357e-15
    endloop
  endfacet
  facet normal 6.490620e-16 0.000000e+00 -5.299994e+00
    outer loop
      vertex   -1.522901e+00 2.765372e+02 -8.881784e-16
      vertex   -1.522901e+00 2.805372e+02 -8.881784e-16
      vertex   9.770995e-01 2.805372e+02 -8.881784e-16
    endloop
  endfacet
  facet normal 1.224647e-15 0.000000e+00 -1.000000e+01
    outer loop
      vertex   1.847710e+01 2.960372e+02 4.000000e+00
      vertex   1.577710e+01 2.960372e+02 4.000000e+00
      vertex   1.847710e+01 3.020372e+02 4.000000e+00
    endloop
  endfacet
  facet normal 1.116782e-15 0.000000e+00 -9.119216e+00
    outer loop
      vertex   1.847710e+01 3.020372e+02 4.000000e+00
      vertex   1.577710e+01 2.960372e+02 4.000000e+00
      vertex   1.577710e+01 3.020372e+02 4.000000e+00
    endloop
  endfacet
  facet normal 6.209205e-16 0.000000e+00 -5.070200e+00
    outer loop
      vertex   1.577710e+01 3.020372e+02 4.000000e+00
      vertex   1.577710e+01 2.960372e+02 4.000000e+00
      vertex   1.077710e+01 2.935372e+02 4.000000e+00
    endloop
  endfacet
  facet normal 1.221810e-15 0.000000e+00 -9.976837e+00
    outer loop
      vertex   1.577710e+01 3.020372e+02 4.000000e+00
      vertex   1.077710e+01 2.935372e+02 4.000000e+00
      vertex   1.077710e+01 3.045372e+02 4.000000e+00
    endloop
  endfacet
  facet normal 1.095357e-15 0.000000e+00 -8.944272e+00
    outer loop
      vertex   1.577710e+01 2.960372e+02 4.000000e+00
      vertex   1.577710e+01 2.935372e+02 4.000000e+00
      vertex   1.077710e+01 2.935372e+02 4.000000e+00
    endloop
  endfacet
  facet normal 5.476786e-16 0.000000e+00 -4.472135e+00
    outer loop
      vertex   1.077710e+01 3.045372e+02 4.000000e+00
      vertex   1.577710e+01 3.045372e+02 4.000000e+00
      vertex   1.577710e+01 3.020372e+02 4.000000e+00
    endloop
  endfacet
  facet normal -1.224647e-15 0.000000e+00 1.000000e+01
    outer loop
      vertex   1.847710e+01 3.140372e+02 6.000000e+00
      vertex   -1.152290e+01 3.140372e+02 6.000000e+00
      vertex   1.847710e+01 2.840372e+02 6.000000e+00
    endloop
  endfacet
  facet normal -8.659560e-16 0.000000e+00 7.071068e+00
    outer loop
      vertex   1.847710e+01 2.840372e+02 6.000000e+00
      vertex   -1.152290e+01 3.140372e+02 6.000000e+00
      vertex   -1.152290e+01 2.840372e+02 6.000000e+00
    endloop
  endfacet
  facet normal 0.000000e+00 1.000000e+01 0.000000e+00
    outer loop
      vertex   1.847710e+01 3.140372e+02 1.776357e-15
      vertex   -1.152290e+01 3.140372e+02 -2.664535e-15
      vertex   1.847710e+01 3.140372e+02 6.000000e+00
    endloop
  endfacet
  facet normal 0.000000e+00 1.961161e+00 0.000000e+00
    outer loop
      vertex   1.847710e+01 3.140372e+02 6.000000e+00
      vertex   -1.152290e+01 3.140372e+02 -2.664535e-15
      vertex   -1.152290e+01 3.140372e+02 6.000000e+00
    endloop
  endfacet
  facet normal -1.000000e+01 0.000000e+00 -1.224647e-15
    outer loop
      vertex   -1.152290e+01 3.140372e+02 -2.664535e-15
      vertex   -1.152290e+01 2.840372e+02 -2.664535e-15
      vertex   -1.152290e+01 3.140372e+02 6.000000e+00
    endloop
  endfacet
  facet normal -1.961161e+00 0.000000e+00 -2.401730e-16
    outer loop
      vertex   -1.152290e+01 3.140372e+02 6.000000e+00
      vertex   -1.152290e+01 2.840372e+02 -2.664535e-15
      vertex   -1.152290e+01 2.840372e+02 6.000000e+00
    endloop
  endfacet
  facet normal -0.000000e+00 -9.723873e+00 0.000000e+00
    outer loop
      vertex   -1.152290e+01 2.840372e+02 -2.664535e-15
      vertex   9.770995e-01 2.840372e+02 3.000000e+00
      vertex   -1.152290e+01 2.840372e+02 6.000000e+00
    endloop
  endfacet
  facet normal 0.000000e+00 -6.571930e-01 -0.000000e+00
    outer loop
      vertex   -1.152290e+01 2.840372e+02 6.000000e+00
      vertex   9.770995e-01 2.840372e+02 3.000000e+00
      vertex   5.977098e+00 2.840372e+02 3.000000e+00
    endloop
  endfacet
  facet normal 0.000000e+00 -1.689638e+00 -0.000000e+00
    outer loop
      vertex   -1.152290e+01 2.840372e+02 6.000000e+00
      vertex   5.977098e+00 2.840372e+02 3.000000e+00
      vertex   1.847710e+01 2.840372e+02 6.000000e+00
    endloop
  endfacet
  facet normal 0.000000e+00 -9.723873e+00 -0.000000e+00
    outer loop
      vertex   1.847710e+01 2.840372e+02 6.000000e+00
      vertex   5.977098e+00 2.840372e+02 3.000000e+00
      vertex   1.847710e+01 2.840372e+02 1.776357e-15
    endloop
  endfacet
  facet normal 0.000000e+00 -2.333730e+00 -0.000000e+00
    outer loop
      vertex   1.847710e+01 2.840372e+02 1.776357e-15
      vertex   5.977098e+00 2.840372e+02 3.000000e+00
      vertex   5.977098e+00 2.840372e+02 0.000000e+00
    endloop
  endfacet
  facet normal 0.000000e+00 -2.333730e+00 0.000000e+00
    outer loop
      vertex   -1.152290e+01 2.840372e+02 -2.664535e-15
      vertex   9.770995e-01 2.840372e+02 -8.881784e-16
      vertex   9.770995e-01 2.840372e+02 3.000000e+00
    endloop
  endfacet
  facet normal -1.000000e+01 0.000000e+00 -1.224647e-15
    outer loop
      vertex   9.770995e-01 2.805372e+02 3.000000e+00
      vertex   9.770995e-01 2.840372e+02 3.000000e+00
      vertex   9.770995e-01 2.805372e+02 -8.881784e-16
    endloop
  endfacet
  facet normal -6.507910e+00 0.000000e+00 -7.969891e-16
    outer loop
      vertex   9.770995e-01 2.805372e+02 -8.881784e-16
      vertex   9.770995e-01 2.840372e+02 3.000000e+00
      vertex   9.770995e-01 2.840372e+02 -8.881784e-16
    endloop
  endfacet
  facet normal 0.000000e+00 1.000000e+01 0.000000e+00
    outer loop
      vertex   -1.522901e+00 2.805372e+02 3.000000e+00
      vertex   9.770995e-01 2.805372e+02 3.000000e+00
      vertex   -1.522901e+00 2.805372e+02 -8.881784e-16
    endloop
  endfacet
  facet normal 0.000000e+00 7.682212e+00 0.000000e+00
    outer loop
      vertex   -1.522901e+00 2.805372e+02 -8.881784e-16
      vertex   9.770995e-01 2.805372e+02 3.000000e+00
      vertex   9.770995e-01 2.805372e+02 -8.881784e-16
    endloop
  endfacet
  facet normal -1.000000e+01 0.000000e+00 -1.224647e-15
    outer loop
      vertex   -1.522901e+00 2.765372e+02 3.000000e+00
      vertex   -1.522901e+00 2.805372e+02 3.000000e+00
      vertex   -1.522901e+00 2.765372e+02 -8.881784e-16
    endloop
  endfacet
  facet normal -6.000004e+00 0.000000e+00 -7.347885e-16
    outer loop
      vertex   -1.522901e+00 2.765372e+02 -8.881784e-16
      vertex   -1.522901e+00 2.805372e+02 3.000000e+00
      vertex   -1.522901e+00 2.805372e+02 -8.881784e-16
    endloop
  endfacet
  facet normal 0.000000e+00 -1.000000e+01 -0.000000e+00
    outer loop
      vertex   8.477098e+00 2.765372e+02 3.000000e+00
      vertex   -1.522901e+00 2.765372e+02 3.000000e+00
      vertex   8.477098e+00 2.765372e+02 0.000000e+00
    endloop
  endfacet
  facet normal 0.000000e+00 -2.873479e+00 -0.000000e+00
    outer loop
      vertex   8.477098e+00 2.765372e+02 0.000000e+00
      vertex   -1.522901e+00 2.765372e+02 3.000000e+00
      vertex   -1.522901e+00 2.765372e+02 -8.881784e-16
    endloop
  endfacet
  facet normal 1.000000e+01 0.000000e+00 1.224647e-15
    outer loop
      vertex   8.477098e+00 2.805372e+02 3.000000e+00
      vertex   8.477098e+00 2.765372e+02 3.000000e+00
      vertex   8.477098e+00 2.805372e+02 0.000000e+00
    endloop
  endfacet
  facet normal 6.000004e+00 0.000000e+00 7.347885e-16
    outer loop
      vertex   8.477098e+00 2.805372e+02 0.000000e+00
      vertex   8.477098e+00 2.765372e+02 3.000000e+00
      vertex   8.477098e+00 2.765372e+02 0.000000e+00
    endloop
  endfacet
  facet normal 0.000000e+00 1.000000e+01 0.000000e+00
    outer loop
      vertex   5.977098e+00 2.805372e+02 3.000000e+00
      vertex   8.477098e+00 2.805372e+02 3.000000e+00
      vertex   5.977098e+00 2.805372e+02 0.000000e+00
    endloop
  endfacet
  facet normal 0.000000e+00 7.682213e+00 0.000000e+00
    outer loop
      vertex   5.977098e+00 2.805372e+02 0.000000e+00
      vertex   8.477098e+00 2.805372e+02 3.000000e+00
      vertex   8.477098e+00 2.805372e+02 0.000000e+00
    endloop
  endfacet
  facet normal 1.000000e+01 0.000000e+00 1.224647e-15
    outer loop
      vertex   5.977098e+00 2.840372e+02 3.000000e+00
      vertex   5.977098e+00 2.805372e+02 3.000000e+00
      vertex   5.977098e+00 2.840372e+02 0.000000e+00
    endloop
  endfacet
  facet normal 6.507910e+00 0.000000e+00 7.969891e-16
    outer loop
      vertex   5.977098e+00 2.840372e+02 0.000000e+00
      vertex   5.977098e+00 2.805372e+02 3.000000e+00
      vertex   5.977098e+00 2.805372e+02 0.000000e+00
    endloop
  endfacet
  facet normal 9.486832e+00 0.000000e+00 1.161802e-15
    outer loop
      vertex   1.847710e+01 2.840372e+02 1.776357e-15
      vertex   1.847710e+01 2.960372e+02 4.000000e+00
      vertex   1.847710e+01 2.840372e+02 6.000000e+00
    endloop
  endfacet
  facet normal 5.446460e-01 0.000000e+00 6.669990e-17
    outer loop
      vertex   1.847710e+01 2.840372e+02 6.000000e+00
      vertex   1.847710e+01 2.960372e+02 4.000000e+00
      vertex   1.847710e+01 3.020372e+02 4.000000e+00
    endloop
  endfacet
  facet normal 1.104316e+00 0.000000e+00 1.352397e-16
    outer loop
      vertex   1.847710e+01 2.840372e+02 6.000000e+00
      vertex   1.847710e+01 3.020372e+02 4.000000e+00
      vertex   1.847710e+01 3.140372e+02 6.000000e+00
    endloop
  endfacet
  facet normal 9.863939e+00 0.000000e+00 1.207984e-15
    outer loop
      vertex   1.847710e+01 3.140372e+02 6.000000e+00
      vertex   1.847710e+01 3.020372e+02 4.000000e+00
      vertex   1.847710e+01 3.140372e+02 1.776357e-15
    endloop
  endfacet
  facet normal 3.162276e+00 0.000000e+00 3.872671e-16
    outer loop
      vertex   1.847710e+01 3.140372e+02 1.776357e-15
      vertex   1.847710e+01 3.020372e+02 4.000000e+00
      vertex   1.847710e+01 3.020372e+02 1.776357e-15
    endloop
  endfacet
  facet normal 3.162281e+00 0.000000e+00 3.872677e-16
    outer loop
      vertex   1.847710e+01 2.840372e+02 1.776357e-15
      vertex   1.847710e+01 2.960372e+02 1.776357e-15
      vertex   1.847710e+01 2.960372e+02 4.000000e+00
    endloop
  endfacet
  facet normal 0.000000e+00 1.000000e+01 0.000000e+00
    outer loop
      vertex   1.577710e+01 2.960372e+02 4.000000e+00
      vertex   1.847710e+01 2.960372e+02 4.000000e+00
      vertex   1.577710e+01 2.960372e+02 8.881784e-16
    endloop
  endfacet
  facet normal 0.000000e+00 8.288486e+00 0.000000e+00
    outer loop
      vertex   1.577710e+01 2.960372e+02 8.881784e-16
      vertex   1.847710e+01 2.960372e+02 4.000000e+00
      vertex   1.847710e+01 2.960372e+02 1.776357e-15
    endloop
  endfacet
  facet normal -1.000000e+01 0.000000e+00 -1.224647e-15
    outer loop
      vertex   1.577710e+01 2.935372e+02 4.000000e+00
      vertex   1.577710e+01 2.960372e+02 4.000000e+00
      vertex   1.577710e+01 2.935372e+02 8.881784e-16
    endloop
  endfacet
  facet normal -8.479983e+00 0.000000e+00 -1.038498e-15
    outer loop
      vertex   1.577710e+01 2.935372e+02 8.881784e-16
      vertex   1.577710e+01 2.960372e+02 4.000000e+00
      vertex   1.577710e+01 2.960372e+02 8.881784e-16
    endloop
  endfacet
  facet normal 0.000000e+00 1.000000e+01 0.000000e+00
    outer loop
      vertex   1.077710e+01 2.935372e+02 4.000000e+00
      vertex   1.577710e+01 2.935372e+02 4.000000e+00
      vertex   1.077710e+01 2.935372e+02 8.881784e-16
    endloop
  endfacet
  facet normal 0.000000e+00 6.246950e+00 0.000000e+00
    outer loop
      vertex   1.077710e+01 2.935372e+02 8.881784e-16
      vertex   1.577710e+01 2.935372e+02 4.000000e+00
      vertex   1.577710e+01 2.935372e+02 8.881784e-16
    endloop
  endfacet
  facet normal 1.000000e+01 0.000000e+00 1.224647e-15
    outer loop
      vertex   1.077710e+01 3.045372e+02 4.000000e+00
      vertex   1.077710e+01 2.935372e+02 4.000000e+00
      vertex   1.077710e+01 3.045372e+02 8.881784e-16
    endloop
  endfacet
  facet normal 3.417430e+00 0.000000e+00 4.185145e-16
    outer loop
      vertex   1.077710e+01 3.045372e+02 8.881784e-16
      vertex   1.077710e+01 2.935372e+02 4.000000e+00
      vertex   1.077710e+01 2.935372e+02 8.881784e-16
    endloop
  endfacet
  facet normal 0.000000e+00 -1.000000e+01 -0.000000e+00
    outer loop
      vertex   1.577710e+01 3.045372e+02 4.000000e+00
      vertex   1.077710e+01 3.045372e+02 4.000000e+00
      vertex   1.577710e+01 3.045372e+02 8.881784e-16
    endloop
  endfacet
  facet normal 0.000000e+00 -6.246950e+00 -0.000000e+00
    outer loop
      vertex   1.577710e+01 3.045372e+02 8.881784e-16
      vertex   1.077710e+01 3.045372e+02 4.000000e+00
      vertex   1.077710e+01 3.045372e+02 8.881784e-16
    endloop
  endfacet
  facet normal -1.000000e+01 0.000000e+00 -1.224647e-15
    outer loop
      vertex   1.577710e+01 3.020372e+02 4.000000e+00
      vertex   1.577710e+01 3.045372e+02 4.000000e+00
      vertex   1.577710e+01 3.020372e+02 8.881784e-16
    endloop
  endfacet
  facet normal -8.479983e+00 0.000000e+00 -1.038498e-15
    outer loop
      vertex   1.577710e+01 3.020372e+02 8.881784e-16
      vertex   1.577710e+01 3.045372e+02 4.000000e+00
      vertex   1.577710e+01 3.045372e+02 8.881784e-16
    endloop
  endfacet
  facet normal 0.000000e+00 -1.000000e+01 -0.000000e+00
    outer loop
      vertex   1.847710e+01 3.020372e+02 4.000000e+00
      vertex   1.577710e+01 3.020372e+02 4.000000e+00
      vertex   1.847710e+01 3.020372e+02 1.776357e-15
    endloop
  endfacet
  facet normal 0.000000e+00 -8.288486e+00 -0.000000e+00
    outer loop
      vertex   1.847710e+01 3.020372e+02 1.776357e-15
      vertex   1.577710e+01 3.020372e+02 4.000000e+00
      vertex   1.577710e+01 3.020372e+02 8.881784e-16
    endloop
  endfacet
  facet normal -1.224647e-15 0.000000e+00 1.000000e+01
    outer loop
      vertex   5.977098e+00 2.840372e+02 3.000000e+00
      vertex   9.770995e-01 2.840372e+02 3.000000e+00
      vertex   5.977098e+00 2.805372e+02 3.000000e+00
    endloop
  endfacet
  facet normal -7.022894e-16 0.000000e+00 5.734629e+00
    outer loop
      vertex   5.977098e+00 2.805372e+02 3.000000e+00
      vertex   9.770995e-01 2.840372e+02 3.000000e+00
      vertex   9.770995e-01 2.805372e+02 3.000000e+00
    endloop
  endfacet
  facet normal -1.038498e-15 0.000000e+00 8.479981e+00
    outer loop
      vertex   5.977098e+00 2.805372e+02 3.000000e+00
      vertex   9.770995e-01 2.805372e+02 3.000000e+00
      vertex   8.477098e+00 2.765372e+02 3.000000e+00
    endloop
  endfacet
  facet normal -5.763040e-16 0.000000e+00 4.705879e+00
    outer loop
      vertex   8.477098e+00 2.765372e+02 3.000000e+00
      vertex   9.770995e-01 2.805372e+02 3.000000e+00
      vertex   -1.522901e+00 2.765372e+02 3.000000e+00
    endloop
  endfacet
  facet normal -6.490620e-16 0.000000e+00 5.299994e+00
    outer loop
      vertex   -1.522901e+00 2.765372e+02 3.000000e+00
      vertex   9.770995e-01 2.805372e+02 3.000000e+00
      vertex   -1.522901e+00 2.805372e+02 3.000000e+00
    endloop
  endfacet
  facet normal -6.490619e-16 0.000000e+00 5.299993e+00
    outer loop
      vertex   8.477098e+00 2.765372e+02 3.000000e+00
      vertex   8.477098e+00 2.805372e+02 3.000000e+00
      vertex   5.977098e+00 2.805372e+02 3.000000e+00
    endloop
  endfacet
endsolid
