solid ascii
  facet normal 0.000000e+00 -1.224647e-15 -1.000000e+01
    outer loop
      vertex   -5.060000e+01 1.529000e+02 1.776357e-15
      vertex   -8.060001e+01 1.529000e+02 1.776357e-15
      vertex   -5.060000e+01 1.654000e+02 8.881784e-16
    endloop
  endfacet
  facet normal 0.000000e+00 -1.132404e-15 -9.246780e+00
    outer loop
      vertex   -5.060000e+01 1.654000e+02 8.881784e-16
      vertex   -8.060001e+01 1.529000e+02 1.776357e-15
      vertex   -6.810000e+01 1.829000e+02 -1.776357e-15
    endloop
  endfacet
  facet normal 0.000000e+00 -8.659560e-16 -7.071068e+00
    outer loop
      vertex   -5.060000e+01 1.654000e+02 8.881784e-16
      vertex   -6.810000e+01 1.829000e+02 -1.776357e-15
      vertex   -5.060000e+01 1.704000e+02 0.000000e+00
    endloop
  endfacet
  facet normal 0.000000e+00 -2.013307e-16 -1.643990e+00
    outer loop
      vertex   -5.060000e+01 1.704000e+02 0.000000e+00
      vertex   -6.810000e+01 1.829000e+02 -1.776357e-15
      vertex   -6.310000e+01 1.829000e+02 -1.776357e-15
    endloop
  endfacet
  facet normal 0.000000e+00 -8.659560e-16 -7.071068e+00
    outer loop
      vertex   -5.060000e+01 1.704000e+02 0.000000e+00
      vertex   -6.310000e+01 1.829000e+02 -1.776357e-15
      vertex   -5.060000e+01 1.829000e+02 -1.776357e-15
    endloop
  endfacet
  facet normal 0.000000e+00 -4.710181e-16 -3.846155e+00
    outer loop
      vertex   -8.060001e+01 1.529000e+02 1.776357e-15
      vertex   -8.060001e+01 1.829000e+02 -1.776357e-15
      vertex   -6.810000e+01 1.829000e+02 -1.776357e-15
    endloop
  endfacet
  facet normal 0.000000e+00 -1.224647e-15 -1.000000e+01
    outer loop
      vertex   -6.310000e+01 1.829000e+02 -1.776357e-15
      vertex   -6.810000e+01 1.829000e+02 -1.776357e-15
      vertex   -6.310000e+01 1.864000e+02 -1.776357e-15
    endloop
  endfacet
  facet normal 0.000000e+00 -7.022880e-16 -5.734617e+00
    outer loop
      vertex   -6.310000e+01 1.864000e+02 -1.776357e-15
      vertex   -6.810000e+01 1.829000e+02 -1.776357e-15
      vertex   -6.810000e+01 1.864000e+02 -1.776357e-15
    endloop
  endfacet
  facet normal 0.000000e+00 -1.038498e-15 -8.479980e+00
    outer loop
      vertex   -6.310000e+01 1.864000e+02 -1.776357e-15
      vertex   -6.810000e+01 1.864000e+02 -1.776357e-15
      vertex   -6.060000e+01 1.904000e+02 -2.664535e-15
    endloop
  endfacet
  facet normal 0.000000e+00 -5.763040e-16 -4.705879e+00
    outer loop
      vertex   -6.060000e+01 1.904000e+02 -2.664535e-15
      vertex   -6.810000e+01 1.864000e+02 -1.776357e-15
      vertex   -7.060000e+01 1.904000e+02 -2.664535e-15
    endloop
  endfacet
  facet normal 0.000000e+00 -6.490620e-16 -5.299993e+00
    outer loop
      vertex   -7.060000e+01 1.904000e+02 -2.664535e-15
      vertex   -6.810000e+01 1.864000e+02 -1.776357e-15
      vertex   -7.060000e+01 1.864000e+02 -1.776357e-15
    endloop
  endfacet
  facet normal 0.000000e+00 -6.490620e-16 -5.299993e+00
    outer loop
      vertex   -6.060000e+01 1.904000e+02 -2.664535e-15
      vertex   -6.060000e+01 1.864000e+02 -1.776357e-15
      vertex   -6.310000e+01 1.864000e+02 -1.776357e-15
    endloop
  endfacet
  facet normal 0.000000e+00 -1.224647e-15 -1.000000e+01
    outer loop
      vertex   -5.060000e+01 1.704000e+02 0.000000e+00
      vertex   -4.710000e+01 1.704000e+02 0.000000e+00
      vertex   -5.060000e+01 1.654000e+02 8.881784e-16
    endloop
  endfacet
  facet normal 0.000000e+00 -1.003270e-15 -8.192320e+00
    outer loop
      vertex   -5.060000e+01 1.654000e+02 8.881784e-16
      vertex   -4.710000e+01 1.704000e+02 0.000000e+00
      vertex   -4.710000e+01 1.654000e+02 8.881784e-16
    endloop
  endfacet
  facet normal 0.000000e+00 -5.763045e-16 -4.705883e+00
    outer loop
      vertex   -4.710000e+01 1.654000e+02 8.881784e-16
      vertex   -4.710000e+01 1.704000e+02 0.000000e+00
      vertex   -4.310000e+01 1.729000e+02 -8.881784e-16
    endloop
  endfacet
  facet normal 0.000000e+00 -1.221763e-15 -9.976451e+00
    outer loop
      vertex   -4.710000e+01 1.654000e+02 8.881784e-16
      vertex   -4.310000e+01 1.729000e+02 -8.881784e-16
      vertex   -4.310000e+01 1.629000e+02 8.881784e-16
    endloop
  endfacet
  facet normal 0.000000e+00 -1.038498e-15 -8.479984e+00
    outer loop
      vertex   -4.710000e+01 1.704000e+02 0.000000e+00
      vertex   -4.710000e+01 1.729000e+02 -8.881784e-16
      vertex   -4.310000e+01 1.729000e+02 -8.881784e-16
    endloop
  endfacet
  facet normal 0.000000e+00 -6.490614e-16 -5.299988e+00
    outer loop
      vertex   -4.310000e+01 1.629000e+02 8.881784e-16
      vertex   -4.710000e+01 1.629000e+02 8.881784e-16
      vertex   -4.710000e+01 1.654000e+02 8.881784e-16
    endloop
  endfacet
  facet normal 0.000000e+00 1.224647e-15 1.000000e+01
    outer loop
      vertex   -8.060001e+01 1.529000e+02 6.000000e+00
      vertex   -5.060000e+01 1.529000e+02 6.000000e+00
      vertex   -8.060001e+01 1.829000e+02 6.000000e+00
    endloop
  endfacet
  facet normal 0.000000e+00 8.659560e-16 7.071067e+00
    outer loop
      vertex   -8.060001e+01 1.829000e+02 6.000000e+00
      vertex   -5.060000e+01 1.529000e+02 6.000000e+00
      vertex   -5.060000e+01 1.829000e+02 6.000000e+00
    endloop
  endfacet
  facet normal 0.000000e+00 1.224647e-15 1.000000e+01
    outer loop
      vertex   -5.060000e+01 1.654000e+02 4.000000e+00
      vertex   -4.710000e+01 1.654000e+02 4.000000e+00
      vertex   -5.060000e+01 1.704000e+02 4.000000e+00
    endloop
  endfacet
  facet normal 0.000000e+00 1.003270e-15 8.192320e+00
    outer loop
      vertex   -5.060000e+01 1.704000e+02 4.000000e+00
      vertex   -4.710000e+01 1.654000e+02 4.000000e+00
      vertex   -4.710000e+01 1.704000e+02 4.000000e+00
    endloop
  endfacet
  facet normal 0.000000e+00 1.038498e-15 8.479984e+00
    outer loop
      vertex   -4.710000e+01 1.704000e+02 4.000000e+00
      vertex   -4.710000e+01 1.654000e+02 4.000000e+00
      vertex   -4.310000e+01 1.729000e+02 4.000000e+00
    endloop
  endfacet
  facet normal 0.000000e+00 1.038498e-15 8.479984e+00
    outer loop
      vertex   -4.710000e+01 1.704000e+02 4.000000e+00
      vertex   -4.310000e+01 1.729000e+02 4.000000e+00
      vertex   -4.710000e+01 1.729000e+02 4.000000e+00
    endloop
  endfacet
  facet normal 0.000000e+00 1.224647e-15 1.000000e+01
    outer loop
      vertex   -4.710000e+01 1.629000e+02 4.000000e+00
      vertex   -4.310000e+01 1.629000e+02 4.000000e+00
      vertex   -4.710000e+01 1.654000e+02 4.000000e+00
    endloop
  endfacet
  facet normal 0.000000e+00 1.221763e-15 9.976451e+00
    outer loop
      vertex   -4.710000e+01 1.654000e+02 4.000000e+00
      vertex   -4.310000e+01 1.629000e+02 4.000000e+00
      vertex   -4.310000e+01 1.729000e+02 4.000000e+00
    endloop
  endfacet
  facet normal 0.000000e+00 -1.000000e+01 1.224647e-15
    outer loop
      vertex   -8.060001e+01 1.529000e+02 1.776357e-15
      vertex   -5.060000e+01 1.529000e+02 1.776357e-15
      vertex   -8.060001e+01 1.529000e+02 6.000000e+00
    endloop
  endfacet
  facet normal 0.000000e+00 -1.961161e+00 2.401730e-16
    outer loop
      vertex   -8.060001e+01 1.529000e+02 6.000000e+00
      vertex   -5.060000e+01 1.529000e+02 1.776357e-15
      vertex   -5.060000e+01 1.529000e+02 6.000000e+00
    endloop
  endfacet
  facet normal 0.000000e+00 -1.000000e+01 1.224647e-15
    outer loop
      vertex   -4.710000e+01 1.654000e+02 4.000000e+00
      vertex   -5.060000e+01 1.654000e+02 4.000000e+00
      vertex   -4.710000e+01 1.654000e+02 8.881784e-16
    endloop
  endfacet
  facet normal 0.000000e+00 -7.525768e+00 9.216408e-16
    outer loop
      vertex   -4.710000e+01 1.654000e+02 8.881784e-16
      vertex   -5.060000e+01 1.654000e+02 4.000000e+00
      vertex   -5.060000e+01 1.654000e+02 8.881784e-16
    endloop
  endfacet
  facet normal -1.000000e+01 -0.000000e+00 0.000000e+00
    outer loop
      vertex   -4.710000e+01 1.629000e+02 4.000000e+00
      vertex   -4.710000e+01 1.654000e+02 4.000000e+00
      vertex   -4.710000e+01 1.629000e+02 8.881784e-16
    endloop
  endfacet
  facet normal -8.479983e+00 0.000000e+00 -0.000000e+00
    outer loop
      vertex   -4.710000e+01 1.629000e+02 8.881784e-16
      vertex   -4.710000e+01 1.654000e+02 4.000000e+00
      vertex   -4.710000e+01 1.654000e+02 8.881784e-16
    endloop
  endfacet
  facet normal 0.000000e+00 -1.000000e+01 1.224647e-15
    outer loop
      vertex   -4.310000e+01 1.629000e+02 4.000000e+00
      vertex   -4.710000e+01 1.629000e+02 4.000000e+00
      vertex   -4.310000e+01 1.629000e+02 8.881784e-16
    endloop
  endfacet
  facet normal 0.000000e+00 -7.071067e+00 8.659560e-16
    outer loop
      vertex   -4.310000e+01 1.629000e+02 8.881784e-16
      vertex   -4.710000e+01 1.629000e+02 4.000000e+00
      vertex   -4.710000e+01 1.629000e+02 8.881784e-16
    endloop
  endfacet
  facet normal 1.000000e+01 0.000000e+00 0.000000e+00
    outer loop
      vertex   -4.310000e+01 1.729000e+02 4.000000e+00
      vertex   -4.310000e+01 1.629000e+02 4.000000e+00
      vertex   -4.310000e+01 1.729000e+02 -8.881784e-16
    endloop
  endfacet
  facet normal 3.713907e+00 0.000000e+00 0.000000e+00
    outer loop
      vertex   -4.310000e+01 1.729000e+02 -8.881784e-16
      vertex   -4.310000e+01 1.629000e+02 4.000000e+00
      vertex   -4.310000e+01 1.629000e+02 8.881784e-16
    endloop
  endfacet
  facet normal 0.000000e+00 1.000000e+01 -1.224647e-15
    outer loop
      vertex   -4.710000e+01 1.729000e+02 4.000000e+00
      vertex   -4.310000e+01 1.729000e+02 4.000000e+00
      vertex   -4.710000e+01 1.729000e+02 -8.881784e-16
    endloop
  endfacet
  facet normal 0.000000e+00 7.071067e+00 -8.659560e-16
    outer loop
      vertex   -4.710000e+01 1.729000e+02 -8.881784e-16
      vertex   -4.310000e+01 1.729000e+02 4.000000e+00
      vertex   -4.310000e+01 1.729000e+02 -8.881784e-16
    endloop
  endfacet
  facet normal -1.000000e+01 -0.000000e+00 0.000000e+00
    outer loop
      vertex   -4.710000e+01 1.704000e+02 4.000000e+00
      vertex   -4.710000e+01 1.729000e+02 4.000000e+00
      vertex   -4.710000e+01 1.704000e+02 0.000000e+00
    endloop
  endfacet
  facet normal -8.479983e+00 0.000000e+00 -0.000000e+00
    outer loop
      vertex   -4.710000e+01 1.704000e+02 0.000000e+00
      vertex   -4.710000e+01 1.729000e+02 4.000000e+00
      vertex   -4.710000e+01 1.729000e+02 -8.881784e-16
    endloop
  endfacet
  facet normal 0.000000e+00 1.000000e+01 -1.224647e-15
    outer loop
      vertex   -5.060000e+01 1.704000e+02 4.000000e+00
      vertex   -4.710000e+01 1.704000e+02 4.000000e+00
      vertex   -5.060000e+01 1.704000e+02 0.000000e+00
    endloop
  endfacet
  facet normal 0.000000e+00 7.525768e+00 -9.216408e-16
    outer loop
      vertex   -5.060000e+01 1.704000e+02 0.000000e+00
      vertex   -4.710000e+01 1.704000e+02 4.000000e+00
      vertex   -4.710000e+01 1.704000e+02 0.000000e+00
    endloop
  endfacet
  facet normal 1.000000e+01 0.000000e+00 0.000000e+00
    outer loop
      vertex   -5.060000e+01 1.704000e+02 0.000000e+00
      vertex   -5.060000e+01 1.829000e+02 -1.776357e-15
      vertex   -5.060000e+01 1.704000e+02 4.000000e+00
    endloop
  endfacet
  facet normal 4.514219e+00 0.000000e+00 0.000000e+00
    outer loop
      vertex   -5.060000e+01 1.704000e+02 4.000000e+00
      vertex   -5.060000e+01 1.829000e+02 -1.776357e-15
      vertex   -5.060000e+01 1.829000e+02 6.000000e+00
    endloop
  endfacet
  facet normal 2.690892e+00 0.000000e+00 0.000000e+00
    outer loop
      vertex   -5.060000e+01 1.704000e+02 4.000000e+00
      vertex   -5.060000e+01 1.829000e+02 6.000000e+00
      vertex   -5.060000e+01 1.529000e+02 6.000000e+00
    endloop
  endfacet
  facet normal 1.135466e+00 0.000000e+00 0.000000e+00
    outer loop
      vertex   -5.060000e+01 1.704000e+02 4.000000e+00
      vertex   -5.060000e+01 1.529000e+02 6.000000e+00
      vertex   -5.060000e+01 1.654000e+02 4.000000e+00
    endloop
  endfacet
  facet normal 4.514219e+00 0.000000e+00 0.000000e+00
    outer loop
      vertex   -5.060000e+01 1.654000e+02 4.000000e+00
      vertex   -5.060000e+01 1.529000e+02 6.000000e+00
      vertex   -5.060000e+01 1.529000e+02 1.776357e-15
    endloop
  endfacet
  facet normal 9.524241e+00 0.000000e+00 0.000000e+00
    outer loop
      vertex   -5.060000e+01 1.654000e+02 4.000000e+00
      vertex   -5.060000e+01 1.529000e+02 1.776357e-15
      vertex   -5.060000e+01 1.654000e+02 8.881784e-16
    endloop
  endfacet
  facet normal 0.000000e+00 9.524241e+00 -1.166383e-15
    outer loop
      vertex   -5.060000e+01 1.829000e+02 -1.776357e-15
      vertex   -6.310000e+01 1.829000e+02 4.000000e+00
      vertex   -5.060000e+01 1.829000e+02 6.000000e+00
    endloop
  endfacet
  facet normal 0.000000e+00 4.484821e-01 -5.492321e-17
    outer loop
      vertex   -5.060000e+01 1.829000e+02 6.000000e+00
      vertex   -6.310000e+01 1.829000e+02 4.000000e+00
      vertex   -6.810000e+01 1.829000e+02 4.000000e+00
    endloop
  endfacet
  facet normal 0.000000e+00 1.135466e+00 -1.390545e-16
    outer loop
      vertex   -5.060000e+01 1.829000e+02 6.000000e+00
      vertex   -6.810000e+01 1.829000e+02 4.000000e+00
      vertex   -8.060001e+01 1.829000e+02 6.000000e+00
    endloop
  endfacet
  facet normal 0.000000e+00 9.874407e+00 -1.209266e-15
    outer loop
      vertex   -8.060001e+01 1.829000e+02 6.000000e+00
      vertex   -6.810000e+01 1.829000e+02 4.000000e+00
      vertex   -8.060001e+01 1.829000e+02 -1.776357e-15
    endloop
  endfacet
  facet normal 0.000000e+00 3.047757e+00 -3.732425e-16
    outer loop
      vertex   -8.060001e+01 1.829000e+02 -1.776357e-15
      vertex   -6.810000e+01 1.829000e+02 4.000000e+00
      vertex   -6.810000e+01 1.829000e+02 -1.776357e-15
    endloop
  endfacet
  facet normal 0.000000e+00 3.047757e+00 -3.732426e-16
    outer loop
      vertex   -5.060000e+01 1.829000e+02 -1.776357e-15
      vertex   -6.310000e+01 1.829000e+02 -1.776357e-15
      vertex   -6.310000e+01 1.829000e+02 4.000000e+00
    endloop
  endfacet
  facet normal 1.000000e+01 0.000000e+00 0.000000e+00
    outer loop
      vertex   -6.310000e+01 1.864000e+02 4.000000e+00
      vertex   -6.310000e+01 1.829000e+02 4.000000e+00
      vertex   -6.310000e+01 1.864000e+02 -1.776357e-15
    endloop
  endfacet
  facet normal 7.525773e+00 0.000000e+00 0.000000e+00
    outer loop
      vertex   -6.310000e+01 1.864000e+02 -1.776357e-15
      vertex   -6.310000e+01 1.829000e+02 4.000000e+00
      vertex   -6.310000e+01 1.829000e+02 -1.776357e-15
    endloop
  endfacet
  facet normal 0.000000e+00 -1.000000e+01 1.224647e-15
    outer loop
      vertex   -6.060000e+01 1.864000e+02 4.000000e+00
      vertex   -6.310000e+01 1.864000e+02 4.000000e+00
      vertex   -6.060000e+01 1.864000e+02 -1.776357e-15
    endloop
  endfacet
  facet normal 0.000000e+00 -8.479983e+00 1.038498e-15
    outer loop
      vertex   -6.060000e+01 1.864000e+02 -1.776357e-15
      vertex   -6.310000e+01 1.864000e+02 4.000000e+00
      vertex   -6.310000e+01 1.864000e+02 -1.776357e-15
    endloop
  endfacet
  facet normal 1.000000e+01 0.000000e+00 0.000000e+00
    outer loop
      vertex   -6.060000e+01 1.904000e+02 4.000000e+00
      vertex   -6.060000e+01 1.864000e+02 4.000000e+00
      vertex   -6.060000e+01 1.904000e+02 -2.664535e-15
    endloop
  endfacet
  facet normal 7.071071e+00 0.000000e+00 0.000000e+00
    outer loop
      vertex   -6.060000e+01 1.904000e+02 -2.664535e-15
      vertex   -6.060000e+01 1.864000e+02 4.000000e+00
      vertex   -6.060000e+01 1.864000e+02 -1.776357e-15
    endloop
  endfacet
  facet normal 0.000000e+00 1.000000e+01 -1.224647e-15
    outer loop
      vertex   -7.060000e+01 1.904000e+02 4.000000e+00
      vertex   -6.060000e+01 1.904000e+02 4.000000e+00
      vertex   -7.060000e+01 1.904000e+02 -2.664535e-15
    endloop
  endfacet
  facet normal 0.000000e+00 3.713907e+00 -4.548224e-16
    outer loop
      vertex   -7.060000e+01 1.904000e+02 -2.664535e-15
      vertex   -6.060000e+01 1.904000e+02 4.000000e+00
      vertex   -6.060000e+01 1.904000e+02 -2.664535e-15
    endloop
  endfacet
  facet normal -1.000000e+01 -0.000000e+00 0.000000e+00
    outer loop
      vertex   -7.060000e+01 1.864000e+02 4.000000e+00
      vertex   -7.060000e+01 1.904000e+02 4.000000e+00
      vertex   -7.060000e+01 1.864000e+02 -1.776357e-15
    endloop
  endfacet
  facet normal -7.071071e+00 0.000000e+00 -0.000000e+00
    outer loop
      vertex   -7.060000e+01 1.864000e+02 -1.776357e-15
      vertex   -7.060000e+01 1.904000e+02 4.000000e+00
      vertex   -7.060000e+01 1.904000e+02 -2.664535e-15
    endloop
  endfacet
  facet normal 0.000000e+00 -1.000000e+01 1.224647e-15
    outer loop
      vertex   -6.810000e+01 1.864000e+02 4.000000e+00
      vertex   -7.060000e+01 1.864000e+02 4.000000e+00
      vertex   -6.810000e+01 1.864000e+02 -1.776357e-15
    endloop
  endfacet
  facet normal 0.000000e+00 -8.479983e+00 1.038498e-15
    outer loop
      vertex   -6.810000e+01 1.864000e+02 -1.776357e-15
      vertex   -7.060000e+01 1.864000e+02 4.000000e+00
      vertex   -7.060000e+01 1.864000e+02 -1.776357e-15
    endloop
  endfacet
  facet normal -1.000000e+01 -0.000000e+00 0.000000e+00
    outer loop
      vertex   -6.810000e+01 1.829000e+02 4.000000e+00
      vertex   -6.810000e+01 1.864000e+02 4.000000e+00
      vertex   -6.810000e+01 1.829000e+02 -1.776357e-15
    endloop
  endfacet
  facet normal -7.525773e+00 0.000000e+00 -0.000000e+00
    outer loop
      vertex   -6.810000e+01 1.829000e+02 -1.776357e-15
      vertex   -6.810000e+01 1.864000e+02 4.000000e+00
      vertex   -6.810000e+01 1.864000e+02 -1.776357e-15
    endloop
  endfacet
  facet normal -1.000000e+01 -0.000000e+00 0.000000e+00
    outer loop
      vertex   -8.060001e+01 1.829000e+02 -1.776357e-15
      vertex   -8.060001e+01 1.529000e+02 1.776357e-15
      vertex   -8.060001e+01 1.829000e+02 6.000000e+00
    endloop
  endfacet
  facet normal -1.961161e+00 -0.000000e+00 0.000000e+00
    outer loop
      vertex   -8.060001e+01 1.829000e+02 6.000000e+00
      vertex   -8.060001e+01 1.529000e+02 1.776357e-15
      vertex   -8.060001e+01 1.529000e+02 6.000000e+00
    endloop
  endfacet
  facet normal 0.000000e+00 1.224647e-15 1.000000e+01
    outer loop
      vertex   -6.810000e+01 1.829000e+02 4.000000e+00
      vertex   -6.310000e+01 1.829000e+02 4.000000e+00
      vertex   -6.810000e+01 1.864000e+02 4.000000e+00
    endloop
  endfacet
  facet normal 0.000000e+00 7.022880e-16 5.734617e+00
    outer loop
      vertex   -6.810000e+01 1.864000e+02 4.000000e+00
      vertex   -6.310000e+01 1.829000e+02 4.000000e+00
      vertex   -6.310000e+01 1.864000e+02 4.000000e+00
    endloop
  endfacet
  facet normal 0.000000e+00 1.038498e-15 8.479980e+00
    outer loop
      vertex   -6.810000e+01 1.864000e+02 4.000000e+00
      vertex   -6.310000e+01 1.864000e+02 4.000000e+00
      vertex   -7.060000e+01 1.904000e+02 4.000000e+00
    endloop
  endfacet
  facet normal 0.000000e+00 5.763040e-16 4.705879e+00
    outer loop
      vertex   -7.060000e+01 1.904000e+02 4.000000e+00
      vertex   -6.310000e+01 1.864000e+02 4.000000e+00
      vertex   -6.060000e+01 1.904000e+02 4.000000e+00
    endloop
  endfacet
  facet normal 0.000000e+00 6.490620e-16 5.299993e+00
    outer loop
      vertex   -6.060000e+01 1.904000e+02 4.000000e+00
      vertex   -6.310000e+01 1.864000e+02 4.000000e+00
      vertex   -6.060000e+01 1.864000e+02 4.000000e+00
    endloop
  endfacet
  facet normal 0.000000e+00 6.490620e-16 5.299993e+00
    outer loop
      vertex   -7.060000e+01 1.904000e+02 4.000000e+00
      vertex   -7.060000e+01 1.864000e+02 4.000000e+00
      vertex   -6.810000e+01 1.864000e+02 4.000000e+00
    endloop
  endfacet
endsolid
